<svg xmlns="http://www.w3.org/2000/svg" fill="none" viewBox="0 0 335 176">
  <path stroke="#0E57FF" d="M167.5 175.5c-50.614 0-96.412-9.84-129.538-25.725C4.8 133.871-15.5 111.998-15.5 88c0-23.998 20.3-45.871 53.462-61.775C71.088 10.34 116.886.5 167.5.5c50.614 0 96.412 9.84 129.538 25.725C330.2 42.13 350.5 64.002 350.5 88c0 23.998-20.3 45.871-53.462 61.775C263.912 165.661 218.114 175.5 167.5 175.5Z" opacity=".8"/>
  <path stroke="#0E57FF" d="M167.5 175.5c-67.751 0-129.066-9.844-173.426-25.745-22.182-7.951-40.098-17.408-52.458-27.883C-70.747 111.395-77.5 99.947-77.5 88s6.753-23.395 19.116-33.872c12.36-10.475 30.276-19.931 52.458-27.883C38.434 10.345 99.749.5 167.5.5c67.751 0 129.066 9.844 173.426 25.745 22.182 7.951 40.098 17.408 52.458 27.883C405.747 64.605 412.5 76.053 412.5 88s-6.753 23.395-19.116 33.872c-12.36 10.475-30.276 19.932-52.458 27.883C296.566 165.656 235.251 175.5 167.5 175.5Z" opacity=".8"/>
</svg>