<svg xmlns="http://www.w3.org/2000/svg" fill="none" viewBox="0 0 236 100">
  <path stroke="#0E57FF" stroke-width=".5" d="M233.1 27.227c1.176 6.006-.874 12.379-5.651 18.774-4.776 6.396-12.262 12.79-21.9 18.823-19.276 12.064-47.113 22.65-78.942 28.885-31.83 6.236-61.603 6.937-84.005 3.038-11.203-1.95-20.548-5.048-27.385-9.168C8.381 83.459 4.077 78.33 2.9 72.324c-1.176-6.006.874-12.379 5.65-18.774 4.777-6.396 12.263-12.79 21.901-18.823 19.276-12.064 47.113-22.65 78.942-28.885 31.83-6.236 61.603-6.937 84.005-3.038 11.203 1.95 20.548 5.048 27.385 9.168 6.836 4.12 11.14 9.248 12.317 15.255Z"/>
  <path stroke="#0E57FF" stroke-width=".5" d="M234.738 38.442c.592 6.092-2.064 12.237-7.436 18.142-5.371 5.905-13.439 11.547-23.615 16.622-20.349 10.147-49.078 17.996-81.361 21.131-32.282 3.135-61.984.96-83.906-5.083-10.962-3.022-19.965-7.007-26.372-11.768-6.407-4.761-10.195-10.28-10.787-16.372-.592-6.092 2.065-12.237 7.436-18.142 5.371-5.904 13.44-11.547 23.615-16.621C52.662 16.203 81.39 8.354 113.673 5.219c32.282-3.135 61.984-.96 83.906 5.084 10.962 3.021 19.965 7.006 26.372 11.767 6.407 4.761 10.196 10.28 10.787 16.372Z"/>
</svg>