<svg xmlns="http://www.w3.org/2000/svg" fill="none" viewBox="30.98 21.12 189.72 302.47">
  <path stroke="#0E57FF" d="M165.132 194.995c-23.765 41.248-49.716 76.016-72.45 98.884-11.37 11.437-21.916 19.877-30.963 24.669-9.073 4.806-16.496 5.87-21.746 2.846-5.25-3.025-8.051-9.981-8.445-20.241-.391-10.231 1.621-23.586 5.813-39.159 8.381-31.137 25.444-71.026 49.21-112.275 23.766-41.248 49.717-76.016 72.451-98.884 11.37-11.437 21.915-19.877 30.962-24.669 9.074-4.806 16.497-5.87 21.747-2.846 5.249 3.025 8.051 9.98 8.444 20.241.392 10.23-1.62 23.586-5.812 39.159-8.382 31.137-25.445 71.026-49.211 112.275Z" opacity=".5"/>
  <path stroke="#0E57FF" d="M165.133 194.995c-14.347 24.902-31.763 44.868-48.303 57.025-8.271 6.079-16.303 10.191-23.606 12.003-7.3 1.812-13.84 1.321-19.183-1.757-5.342-3.078-9.047-8.49-11.141-15.714-2.095-7.228-2.566-16.239-1.455-26.443 2.222-20.406 10.76-45.487 25.107-70.389 14.347-24.901 31.763-44.867 48.303-57.024 8.271-6.08 16.303-10.191 23.606-12.004 7.301-1.812 13.841-1.32 19.183 1.757 5.342 3.078 9.048 8.49 11.141 15.715 2.095 7.227 2.566 16.238 1.455 26.442-2.221 20.407-10.759 45.488-25.107 70.389Z" opacity=".8"/>
</svg>