<svg xmlns="http://www.w3.org/2000/svg" fill="none" viewBox="0 0 293 60">
  <path stroke="#0E57FF" stroke-width=".5" d="M294.844 17.363c.158 1.631-.544 3.339-2.094 5.106-1.55 1.767-3.929 3.57-7.065 5.378-6.271 3.616-15.518 7.229-27.067 10.632-23.094 6.806-55.344 12.762-91.274 16.25-35.93 3.49-68.724 3.85-92.696 1.614-11.988-1.117-21.758-2.883-28.607-5.226-3.425-1.171-6.106-2.482-7.968-3.918-1.861-1.436-2.879-2.976-3.037-4.608-.158-1.632.544-3.34 2.094-5.107 1.55-1.767 3.929-3.569 7.065-5.378 6.27-3.616 15.518-7.228 27.067-10.632 23.094-6.806 55.344-12.762 91.274-16.25 35.93-3.49 68.724-3.85 92.696-1.614 11.988 1.118 21.758 2.884 28.607 5.226 3.425 1.172 6.106 2.482 7.968 3.918 1.861 1.436 2.879 2.977 3.037 4.609Z"/>
  <path stroke="#0E57FF" stroke-width=".5" d="M329.196 14.026c.156 1.607-.759 3.332-2.772 5.154-2.007 1.817-5.061 3.688-9.069 5.583-8.013 3.79-19.779 7.648-34.438 11.355-29.316 7.411-70.158 14.201-115.577 18.612-45.419 4.41-86.805 5.604-116.999 3.972-15.098-.817-27.387-2.34-35.979-4.517-4.297-1.089-7.655-2.338-9.974-3.734-2.325-1.4-3.555-2.917-3.711-4.524-.156-1.608.759-3.332 2.772-5.154 2.007-1.817 5.06-3.688 9.069-5.583 8.012-3.79 19.778-7.648 34.438-11.354C76.27 16.424 117.113 9.633 162.533 5.223 207.952.813 249.338-.38 279.531 1.251c15.099.817 27.388 2.34 35.979 4.517 4.298 1.089 7.655 2.338 9.974 3.734 2.326 1.4 3.556 2.917 3.712 4.524Z"/>
</svg>