<svg xmlns="http://www.w3.org/2000/svg" fill="none" viewBox="0 0 690 226">
  <path stroke="#0E57FF" d="M345 225.5c-70.916 0-135.094-12.64-181.525-33.055-23.216-10.208-41.973-22.35-54.918-35.807C95.613 143.183 88.5 128.437 88.5 113c0-15.438 7.114-30.183 20.057-43.638 12.945-13.457 31.702-25.6 54.918-35.807C209.906 13.14 274.084.5 345 .5c70.916 0 135.094 12.64 181.525 33.055 23.216 10.208 41.973 22.35 54.918 35.807C594.387 82.817 601.5 97.562 601.5 113c0 15.437-7.113 30.183-20.057 43.638-12.945 13.458-31.702 25.6-54.918 35.807C480.094 212.86 415.916 225.5 345 225.5Z" opacity=".8"/>
  <path stroke="#0E57FF" d="M345 225.5c-95.231 0-181.426-12.644-243.796-33.072-31.188-10.215-56.39-22.368-73.786-35.839C10.016 143.114.5 128.379.5 113c0-15.38 9.516-30.114 26.918-43.59 17.395-13.47 42.598-25.623 73.786-35.838C163.574 13.144 249.769.5 345 .5s181.426 12.644 243.796 33.072c31.188 10.215 56.391 22.368 73.786 35.839C679.984 82.886 689.5 97.62 689.5 113c0 15.379-9.516 30.114-26.918 43.589-17.395 13.471-42.598 25.624-73.786 35.839C526.426 212.856 440.231 225.5 345 225.5Z" opacity=".8"/>
</svg>