<svg xmlns="http://www.w3.org/2000/svg" fill="none" viewBox="0 0 40 20">
  <circle cx="29.5" cy="10" r="9.75" stroke="#0E57FF" stroke-width=".5"/>
  <path stroke="#0E57FF" stroke-width=".5" d="M36.5 10c0 2.714-.798 5.162-2.076 6.924-1.278 1.763-3.022 2.826-4.924 2.826-1.902 0-3.646-1.063-4.924-2.826C23.298 15.162 22.5 12.714 22.5 10c0-2.715.798-5.162 2.076-6.924C25.854 1.313 27.598.25 29.5.25c1.902 0 3.646 1.063 4.924 2.826C35.702 4.838 36.5 7.286 36.5 10ZM29.5.25v19.5"/>
  <circle cx="10" cy="10" r="9.75" stroke="#0E57FF" stroke-width=".5"/>
  <path stroke="#0E57FF" stroke-width=".5" d="M12.5 10c0 2.746-.306 5.222-.796 7.005-.246.893-.534 1.597-.843 2.073-.316.486-.613.672-.861.672s-.545-.186-.86-.672c-.31-.476-.598-1.18-.843-2.073-.49-1.783-.797-4.26-.797-7.005 0-2.746.306-5.222.797-7.005.245-.893.533-1.597.842-2.073C9.455.436 9.752.25 10 .25s.545.186.86.672c.31.476.598 1.18.844 2.073.49 1.783.796 4.26.796 7.005ZM10 .25v19.5"/>
</svg>