<svg xmlns="http://www.w3.org/2000/svg" fill="none" viewBox="0 0 51 51">
  <circle cx="25.178" cy="25.438" r="25.067" fill="#0E57FF"/>
  <circle cx="25.178" cy="25.438" r="25.067" fill="url(#a)"/>
  <path stroke="#0E57FF" d="M38.502 25.438c0 6.854-1.533 13.034-3.987 17.483-2.463 4.467-5.786 7.084-9.338 7.084-3.552 0-6.875-2.617-9.338-7.084-2.454-4.449-3.987-10.63-3.987-17.483 0-6.854 1.533-13.034 3.987-17.484C18.302 3.488 21.625.871 25.177.871c3.552 0 6.875 2.617 9.338 7.083 2.454 4.45 3.987 10.63 3.987 17.484Z"/>
  <path stroke="#0E57FF" d="M28.942 25.438c0 6.903-.476 13.14-1.242 17.64-.383 2.255-.836 4.05-1.326 5.27-.246.612-.491 1.05-.721 1.328-.234.282-.395.328-.475.328-.08 0-.24-.046-.475-.328-.23-.277-.475-.716-.72-1.328-.491-1.22-.944-3.015-1.327-5.27-.766-4.5-1.242-10.737-1.242-17.64 0-6.903.476-13.14 1.242-17.641.383-2.255.836-4.05 1.326-5.27.246-.612.491-1.05.721-1.327.235-.282.395-.329.475-.329.08 0 .24.047.475.329.23.277.475.715.72 1.328.491 1.22.944 3.014 1.327 5.269.766 4.5 1.242 10.738 1.242 17.64Z"/>
  <defs>
    <radialGradient id="a" cx="0" cy="0" r="1" gradientTransform="rotate(90 -.13 25.308) scale(27.8447)" gradientUnits="userSpaceOnUse">
      <stop stop-color="#141414"/>
      <stop offset=".708" stop-color="#141414"/>
      <stop offset="1" stop-color="#141414" stop-opacity="0"/>
    </radialGradient>
  </defs>
</svg>