<svg xmlns="http://www.w3.org/2000/svg" fill="none" viewBox="0 0 60 20">
  <circle cx="10" cy="10" r="9.75" stroke="#0E57FF" stroke-width=".5"/>
  <path stroke="#0E57FF" stroke-width=".5" d="M15.265 10c0 2.727-.61 5.184-1.584 6.95-.979 1.775-2.291 2.8-3.681 2.8-1.39 0-2.702-1.025-3.681-2.8-.974-1.766-1.585-4.223-1.585-6.95 0-2.727.61-5.184 1.585-6.95.979-1.775 2.29-2.8 3.68-2.8 1.39 0 2.703 1.025 3.682 2.8.974 1.766 1.584 4.223 1.584 6.95Z"/>
  <path stroke="#0E57FF" stroke-width=".5" d="M11.449 10c0 2.752-.19 5.237-.495 7.03-.152.897-.332 1.61-.526 2.09a1.998 1.998 0 0 1-.28.517c-.089.107-.14.113-.15.113-.01 0-.062-.006-.15-.113a1.996 1.996 0 0 1-.28-.516c-.194-.482-.374-1.194-.526-2.092-.305-1.792-.495-4.277-.495-7.029s.19-5.237.495-7.03c.152-.897.332-1.61.526-2.09.097-.243.192-.412.28-.517.088-.107.14-.113.15-.113.01 0 .061.006.15.113a2 2 0 0 1 .28.516c.194.482.373 1.194.526 2.092.305 1.792.495 4.277.495 7.029Z"/>
  <circle cx="30" cy="10" r="9.75" stroke="#0E57FF" stroke-width=".5"/>
  <path stroke="#0E57FF" stroke-width=".5" d="M35.265 10c0 2.727-.61 5.184-1.584 6.95-.979 1.775-2.291 2.8-3.681 2.8-1.39 0-2.702-1.025-3.681-2.8-.974-1.766-1.585-4.223-1.585-6.95 0-2.727.61-5.184 1.585-6.95.979-1.775 2.29-2.8 3.68-2.8 1.39 0 2.703 1.025 3.682 2.8.974 1.766 1.584 4.223 1.584 6.95Z"/>
  <path stroke="#0E57FF" stroke-width=".5" d="M31.449 10c0 2.752-.19 5.237-.495 7.03-.152.897-.332 1.61-.526 2.09a1.998 1.998 0 0 1-.28.517c-.089.107-.14.113-.15.113-.01 0-.062-.006-.15-.113a1.998 1.998 0 0 1-.28-.516c-.194-.482-.374-1.194-.526-2.092-.305-1.792-.495-4.277-.495-7.029s.19-5.237.495-7.03c.152-.897.332-1.61.526-2.09a2 2 0 0 1 .28-.517c.088-.107.14-.113.15-.113.01 0 .061.006.15.113a2 2 0 0 1 .28.516c.194.482.373 1.194.526 2.092.305 1.792.495 4.277.495 7.029Z"/>
  <circle cx="50" cy="10" r="9.75" stroke="#0E57FF" stroke-width=".5"/>
  <path stroke="#0E57FF" stroke-width=".5" d="M55.265 10c0 2.727-.61 5.184-1.584 6.95-.979 1.775-2.291 2.8-3.681 2.8-1.39 0-2.702-1.025-3.681-2.8-.974-1.766-1.585-4.223-1.585-6.95 0-2.727.61-5.184 1.585-6.95.979-1.775 2.29-2.8 3.68-2.8 1.39 0 2.703 1.025 3.682 2.8.974 1.766 1.584 4.223 1.584 6.95Z"/>
  <path stroke="#0E57FF" stroke-width=".5" d="M51.449 10c0 2.752-.19 5.237-.495 7.03-.153.897-.332 1.61-.526 2.09a1.998 1.998 0 0 1-.28.517c-.089.107-.14.113-.15.113-.01 0-.061-.006-.15-.113a1.998 1.998 0 0 1-.28-.516c-.194-.482-.374-1.194-.526-2.092-.305-1.792-.495-4.277-.495-7.029s.19-5.237.495-7.03c.152-.897.332-1.61.526-2.09a2 2 0 0 1 .28-.517c.089-.107.14-.113.15-.113.01 0 .061.006.15.113a2 2 0 0 1 .28.516c.194.482.373 1.194.526 2.092.305 1.792.495 4.277.495 7.029Z"/>
</svg>