<svg xmlns="http://www.w3.org/2000/svg" fill="none" viewBox="0.01 0 105.12 23.49">
  <path stroke="#141414" d="M20.794 16.117c.815-1.147 1.373-2.399 1.737-3.606-.28 5.838-5.102 10.486-11.01 10.486C5.615 22.997.793 18.35.514 12.511c.363 1.207.922 2.459 1.737 3.606 1.753 2.47 4.674 4.424 9.272 4.424s7.518-1.954 9.272-4.424Z"/>
  <path fill="#141414" fill-rule="evenodd" d="m11.672.79-.437-.787-.437.786-4.321 7.778.475.263-.48-.256a5.397 5.397 0 1 0 9.526 0l-.458.244.453-.251L11.672.789Zm3.447 8.262-3.884-6.99-3.884 6.99a4.397 4.397 0 1 0 7.769 0Z" clip-rule="evenodd"/>
  <circle cx="52.565" cy="11.956" r="11.022" stroke="#141414"/>
  <path fill="#141414" stroke="#141414" d="M45.076 12.53c0-7.604 6.337-10.85 9.506-11.521 5.184 1.152 8.353 4.897 9.217 10.657 0 6.625-4.897 9.794-9.217 11.234-4.897-.576-8.354-4.32-9.506-10.37Z"/>
  <circle cx="45.076" cy="11.956" r="1.728" fill="#141414"/>
  <circle cx="93.608" cy="11.956" r="11.022" stroke="#141414"/>
  <path stroke="#141414" d="M96.489 22.9c-5.727 0-10.37-4.9-10.37-10.946 0-6.045 4.643-10.945 10.37-10.945"/>
</svg>