<svg xmlns="http://www.w3.org/2000/svg" fill="none" viewBox="0 0 337 123">
  <path stroke="#0E57FF" stroke-width=".5" d="M.979.919h335.02M.979 16.063h335.02M.979 31.204h335.02M.979 46.348h335.02M.979 61.489h335.02M.979 76.63h335.02M.979 91.77h335.02M.979 106.911h335.02M.979 122.055h335.02M.979 122.055V.918M16.121 122.055V.918M31.264 122.055V.918M46.404 122.055V.918M61.547 122.055V.918M76.69 122.055V.918M91.83 122.055V.918M106.975 122.055V.918M122.117 122.055V.918M137.258 122.055V.918M152.4 122.055V.918M167.543 122.055V.918M182.686 122.055V.918M197.826 122.055V.918M212.969 122.055V.918M228.111 122.055V.918M243.254 122.055V.918M258.396 122.055V.918M273.537 122.055V.918M288.68 122.055V.918M305.715 122.055V.918M320.859 122.055V.918M336 122.055V.918"/>
</svg>