<svg xmlns="http://www.w3.org/2000/svg" fill="none" viewBox="0 0 1571 553">
  <path fill="#0E57FF" fill-rule="evenodd" d="m1504.19 297.304-.32-.304-.34.277c-25.09 20.35-55.22 57.5-64.01 102.838-8.8 45.383 3.8 98.879 63.99 151.817l.35.307.33-.325c54.19-53.154 70.64-101.137 65.27-143.722-5.37-42.554-32.53-79.585-65.27-110.888Zm64.28 111.013c5.31 42.095-10.87 89.676-64.64 142.557-59.66-52.632-72.03-105.663-63.33-150.569 8.7-44.835 38.42-81.663 63.32-101.973 32.54 31.179 59.34 67.908 64.65 109.985Zm-63.76-27.33-.95.295c.82 4.854 1.71 11.832 2.16 18.672.44 6.856.44 13.514-.51 17.759-.68 3.097-1.59 6.841-2.59 10.973l-.02.059c-.15.647-.31 1.302-.47 1.966-1.19 4.932-2.48 10.325-3.67 15.757-2.38 10.851-4.37 21.907-4.37 29.786 0 7.038 1.14 16.951 3.2 26.34 2.06 9.369 5.06 18.309 8.83 23.339l.9-.395c-1.23-6.354-2.47-15.901-3.08-25.245-.62-9.361-.61-18.452.6-23.931.67-3.021 1.71-7.534 2.88-12.631v-.007c.98-4.273 2.06-8.955 3.09-13.51 2.26-9.971 4.33-19.362 4.74-22.45.84-6.277 1.23-21.187-10.74-46.777Zm2.2 18.902a192.72 192.72 0 0 0-1.6-15.158c10.35 23.403 9.92 37.101 9.15 42.901-.41 3.03-2.46 12.361-4.72 22.361-1.03 4.548-2.11 9.228-3.09 13.501-1.17 5.104-2.21 9.627-2.88 12.651-1.25 5.632-1.25 14.852-.63 24.214.55 8.278 1.57 16.719 2.66 22.988-3.03-5.05-5.53-12.779-7.33-20.968-2.05-9.334-3.18-19.173-3.18-26.125 0-7.758 1.97-18.717 4.34-29.572 1.19-5.421 2.48-10.805 3.67-15.736.17-.683.33-1.358.49-2.024 1-4.13 1.91-7.886 2.6-10.992.98-4.396.97-11.18.52-18.041Zm-28.85-2.539.94-.303c9.42 19.858 9.3 31.519 8.73 36.447-.28 2.421-1.75 9.78-3.36 17.585-.73 3.566-1.5 7.232-2.2 10.576v.005c-.83 3.992-1.57 7.528-2.05 9.894-.86 4.275-.77 11.359-.19 18.659.58 7.283 1.62 14.716 2.63 19.658l-.89.401c-2.94-3.904-5.34-10.868-7.01-18.159-1.68-7.312-2.66-15.043-2.74-20.545-.09-6.162 1.3-14.823 2.99-23.319.84-4.254 1.77-8.479 2.62-12.341l.18-.81.17-.777c.71-3.236 1.36-6.168 1.85-8.591.67-3.309.6-8.494.18-13.84-.42-5.33-1.17-10.764-1.85-14.54Zm1.59 3.509c.49 3.282.96 7.143 1.26 10.953.42 5.351.5 10.658-.2 14.116-.49 2.433-1.14 5.375-1.85 8.61-.12.521-.24 1.05-.35 1.585-.86 3.862-1.78 8.078-2.62 12.321-1.69 8.499-3.06 17.066-2.97 23.109.08 5.418 1.05 13.079 2.71 20.336 1.4 6.064 3.26 11.784 5.47 15.676-.85-4.81-1.68-11.098-2.17-17.274-.57-7.301-.68-14.509.21-18.934.48-2.366 1.22-5.905 2.05-9.898v-.011c.7-3.346 1.47-7.011 2.2-10.571 1.62-7.833 3.07-15.133 3.34-17.497.52-4.449.69-14.876-7.08-32.521Zm44.93-7.889-.93.325c.76 3.76 1.65 9.174 2.19 14.493.54 5.335.73 10.517.15 13.84-.44 2.434-1.02 5.38-1.65 8.633-.11.524-.21 1.055-.32 1.594-.76 3.882-1.58 8.126-2.33 12.4-1.48 8.533-2.67 17.224-2.44 23.382.21 5.499 1.37 13.205 3.23 20.475 1.84 7.25 4.4 14.156 7.43 17.989l.88-.422c-1.12-4.916-2.34-12.323-3.09-19.591-.75-7.284-1.01-14.363-.25-18.657.42-2.376 1.08-5.927 1.82-9.937v-.004c.62-3.361 1.3-7.045 1.95-10.629 1.42-7.84 2.72-15.232 2.94-17.659.45-4.94.31-16.601-9.58-36.232Zm2.25 14.717c-.38-3.802-.94-7.652-1.51-10.921 8.19 17.457 8.25 27.886 7.85 32.345-.22 2.37-1.5 9.703-2.93 17.572-.65 3.576-1.33 7.258-1.95 10.62v.002c-.74 4.015-1.4 7.573-1.82 9.951-.79 4.445-.51 11.649.24 18.935.63 6.162 1.6 12.429 2.57 17.218-2.3-3.84-4.3-9.514-5.84-15.544-1.83-7.216-2.98-14.851-3.19-20.266-.23-6.04.94-14.636 2.43-23.173.74-4.262 1.56-8.498 2.32-12.379l.19-.962.13-.63v-.004c.64-3.25 1.22-6.205 1.65-8.648.62-3.473.41-8.777-.14-14.116Zm-20.21-50.469c6.96-1.503 12.18-7.698 12.18-15.111s-5.22-13.607-12.18-15.111c-7.5.457-13.48 7.024-13.48 15.111s5.98 14.653 13.48 15.111Zm.07 1.006c.26.013.51.02.76.02v-.196c7.1-1.828 12.35-8.272 12.35-15.941 0-7.669-5.25-14.114-12.35-15.941v-.196c-.25 0-.5.007-.75.02a16.58 16.58 0 0 0-3.36-.343c-9.09 0-16.46 7.369-16.46 16.46 0 9.09 7.37 16.46 16.46 16.46 1.15 0 2.27-.118 3.35-.343Zm-3.65-.66c-8.4-.16-15.16-7.019-15.16-15.457 0-8.439 6.76-15.298 15.16-15.457-6.32 1.999-10.9 8.18-10.9 15.457 0 7.277 4.58 13.457 10.9 15.457ZM785.19.304 784.871 0l-.342.277c-25.093 20.35-55.218 57.5-64.008 102.838-8.799 45.383 3.799 98.879 63.993 151.817l.349.307.331-.325c54.185-53.154 70.64-101.137 65.265-143.722-5.37-42.554-32.525-79.585-65.269-110.888Zm64.277 111.013c5.313 42.095-10.868 89.676-64.641 142.557-59.661-52.632-72.03-105.663-63.324-150.569 8.693-44.835 38.413-81.663 63.315-101.973 32.541 31.18 59.34 67.908 64.65 109.985Zm-70.469-77.572a18.456 18.456 0 0 1 2.269-1.73c-.81.499-1.57 1.079-2.269 1.73Zm9.456 27.499c-.255 0-.508-.007-.76-.02a16.536 16.536 0 0 1-3.355.343c-9.091 0-16.46-7.37-16.46-16.46s7.369-16.46 16.46-16.46c1.15 0 2.273.118 3.357.343.251-.013.504-.02.758-.02v.196c7.099 1.828 12.344 8.272 12.344 15.94 0 7.67-5.245 14.114-12.344 15.942v.196Zm-19.575-16.137c0 8.438 6.76 15.297 15.16 15.457-5.596-1.772-9.829-6.822-10.723-13.01a2.47 2.47 0 0 1 0-4.895c.895-6.188 5.129-11.238 10.725-13.009-8.401.159-15.162 7.018-15.162 15.457Zm16.829 38.88-.946.295c.821 4.854 1.71 11.832 2.155 18.672.445 6.856.44 13.514-.504 17.759-.688 3.097-1.594 6.841-2.594 10.973l-.014.059-.476 1.966c-1.191 4.932-2.481 10.325-3.671 15.757-2.377 10.851-4.367 21.907-4.367 29.786 0 7.038 1.137 16.951 3.201 26.34 2.059 9.369 5.06 18.309 8.832 23.339l.891-.395c-1.23-6.354-2.462-15.901-3.078-25.245-.617-9.361-.611-18.452.607-23.931.671-3.021 1.707-7.534 2.878-12.631l.001-.007c.981-4.273 2.057-8.955 3.089-13.51 2.261-9.971 4.326-19.362 4.738-22.45.837-6.277 1.228-21.187-10.742-46.777Zm2.207 18.902c-.346-5.32-.96-10.723-1.602-15.158 10.347 23.403 9.919 37.101 9.146 42.901-.404 3.03-2.454 12.361-4.722 22.361-1.031 4.548-2.106 9.228-3.087 13.501-1.172 5.104-2.211 9.627-2.883 12.651-1.251 5.632-1.245 14.852-.628 24.214.546 8.278 1.574 16.719 2.659 22.988-3.032-5.05-5.53-12.779-7.329-20.968-2.052-9.334-3.178-19.173-3.178-26.125 0-7.758 1.966-18.717 4.343-29.572 1.188-5.421 2.476-10.805 3.667-15.736l.49-2.024c.999-4.13 1.908-7.886 2.599-10.992.976-4.396.971-11.18.525-18.041Zm-28.856-2.539.944-.303c9.418 19.858 9.293 31.519 8.724 36.447-.279 2.421-1.747 9.78-3.356 17.585-.735 3.566-1.501 7.232-2.2 10.576l-.001.004v.001c-.834 3.992-1.573 7.528-2.05 9.894-.862 4.275-.765 11.359-.189 18.659.575 7.283 1.622 14.716 2.63 19.658l-.889.401c-2.946-3.904-5.338-10.868-7.013-18.159-1.68-7.312-2.66-15.043-2.74-20.545-.09-6.162 1.303-14.823 2.991-23.319.845-4.254 1.767-8.479 2.619-12.341l.178-.81.172-.777c.715-3.236 1.363-6.168 1.852-8.591.667-3.309.597-8.494.18-13.84-.416-5.33-1.172-10.764-1.852-14.54Zm1.589 3.509c.493 3.282.963 7.143 1.26 10.953.418 5.351.5 10.658-.197 14.116-.491 2.433-1.141 5.375-1.856 8.61l-.35 1.585c-.852 3.862-1.772 8.078-2.615 12.321-1.688 8.499-3.059 17.066-2.971 23.109.078 5.418 1.047 13.079 2.714 20.336 1.394 6.064 3.262 11.784 5.472 15.676-.858-4.81-1.683-11.098-2.171-17.274-.576-7.301-.687-14.509.206-18.934.477-2.366 1.216-5.905 2.051-9.898v-.002l.001-.003.001-.006c.699-3.346 1.465-7.011 2.198-10.571 1.615-7.833 3.07-15.133 3.343-17.497.513-4.449.69-14.876-7.086-32.521Zm44.935-7.889-.936.325c.768 3.76 1.652 9.174 2.193 14.493.543 5.335.735 10.517.145 13.84-.432 2.434-1.01 5.38-1.649 8.633l-.313 1.594c-.761 3.882-1.583 8.126-2.328 12.4-1.488 8.533-2.676 17.224-2.442 23.382.209 5.499 1.371 13.205 3.223 20.475 1.846 7.25 4.401 14.156 7.438 17.989l.879-.422c-1.124-4.916-2.345-12.323-3.091-19.591-.748-7.284-1.012-14.363-.25-18.657.421-2.376 1.076-5.927 1.816-9.937l.001-.004c.62-3.361 1.3-7.045 1.951-10.629 1.425-7.84 2.72-15.232 2.942-17.659.453-4.94.303-16.601-9.579-36.232Zm2.252 14.717a159.603 159.603 0 0 0-1.517-10.92c8.189 17.456 8.257 27.885 7.848 32.344-.217 2.37-1.5 9.703-2.93 17.572a4259.51 4259.51 0 0 1-1.949 10.62l-.001.002c-.741 4.015-1.397 7.573-1.819 9.951-.788 4.445-.508 11.649.24 18.935.633 6.162 1.605 12.429 2.576 17.218-2.301-3.84-4.303-9.514-5.838-15.544-1.838-7.216-2.987-14.851-3.193-20.266-.23-6.04.94-14.636 2.428-23.173.743-4.262 1.563-8.498 2.324-12.379l.189-.962.124-.63v-.001l.001-.003c.638-3.25 1.218-6.205 1.652-8.648.616-3.473.408-8.777-.135-14.116ZM67.19 297.304 66.87 297l-.342.277c-25.093 20.35-55.218 57.5-64.008 102.838-8.8 45.383 3.799 98.879 63.993 151.817l.349.307.332-.325c54.184-53.154 70.639-101.137 65.264-143.722-5.37-42.554-32.525-79.585-65.27-110.888Zm64.277 111.013c5.313 42.095-10.868 89.676-64.641 142.557-59.66-52.632-72.03-105.663-63.324-150.569 8.693-44.835 38.413-81.663 63.315-101.973 32.54 31.179 59.34 67.908 64.65 109.985Zm-65.128-54.689c10.222 0 14.255-6.971 15.43-12.472.281-1.314.4-2.545.4-3.576a16.426 16.426 0 0 1 .63 4.526c0 9.091-7.37 16.46-16.46 16.46s-16.46-7.369-16.46-16.46a16.42 16.42 0 0 1 .63-4.526c0 1.031.118 2.262.399 3.576 1.175 5.501 5.209 12.472 15.43 12.472Zm13.479-5.439a17.12 17.12 0 0 0 1.653-2.903c-1.466 7.013-7.684 12.28-15.132 12.28-7.449 0-13.667-5.267-15.133-12.28.445.99.99 1.97 1.654 2.903 2.557 3.601 6.815 6.439 13.479 6.439 6.663 0 10.921-2.838 13.479-6.439Zm-13.056 33.093.946-.295c11.97 25.59 11.579 40.5 10.742 46.777-.412 3.088-2.477 12.479-4.738 22.45a5097.582 5097.582 0 0 1-3.089 13.51l-.001.007c-1.17 5.097-2.207 9.61-2.879 12.631-1.217 5.479-1.223 14.57-.606 23.931.616 9.344 1.848 18.891 3.078 25.245l-.89.395c-3.773-5.03-6.774-13.97-8.833-23.339-2.064-9.389-3.2-19.302-3.2-26.34 0-7.879 1.989-18.935 4.366-29.786 1.19-5.432 2.48-10.825 3.671-15.757l.476-1.966.014-.059c1-4.132 1.906-7.876 2.594-10.973.944-4.245.95-10.903.504-17.759-.445-6.84-1.334-13.818-2.155-18.672Zm1.551 3.449a199.397 199.397 0 0 1 1.602 15.158c.446 6.861.451 13.645-.526 18.041-.69 3.106-1.599 6.862-2.598 10.992l-.49 2.024c-1.191 4.931-2.479 10.315-3.666 15.736-2.378 10.855-4.344 21.814-4.344 29.572 0 6.952 1.126 16.791 3.178 26.125 1.8 8.189 4.297 15.918 7.33 20.968-1.086-6.269-2.114-14.71-2.66-22.988-.617-9.362-.623-18.582.628-24.214.672-3.024 1.711-7.547 2.883-12.651.981-4.273 2.056-8.953 3.087-13.501 2.267-10 4.318-19.331 4.722-22.361.773-5.8 1.201-19.498-9.146-42.901Zm-26.31 12.316-.944.303c.68 3.776 1.436 9.21 1.852 14.54.417 5.346.487 10.531-.18 13.84-.49 2.423-1.137 5.355-1.852 8.591l-.172.777-.178.81c-.852 3.862-1.774 8.087-2.62 12.341-1.687 8.496-3.08 17.157-2.99 23.319.08 5.502 1.06 13.233 2.74 20.545 1.675 7.291 4.067 14.255 7.013 18.159l.89-.401c-1.009-4.942-2.056-12.375-2.63-19.658-.577-7.3-.675-14.384.188-18.659a1724.18 1724.18 0 0 1 2.05-9.894v-.001l.001-.004c.699-3.344 1.465-7.01 2.2-10.576 1.609-7.805 3.077-15.164 3.356-17.585.569-4.928.694-16.589-8.724-36.447Zm1.905 14.765c-.297-3.81-.767-7.671-1.26-10.953 7.776 17.645 7.599 28.072 7.086 32.521-.273 2.364-1.728 9.664-3.343 17.497-.733 3.56-1.5 7.225-2.198 10.571l-.002.006v.005c-.835 3.993-1.574 7.532-2.051 9.898-.893 4.425-.782 11.633-.206 18.934.488 6.176 1.313 12.464 2.17 17.274-2.209-3.892-4.077-9.612-5.47-15.676-1.668-7.257-2.637-14.918-2.715-20.336-.088-6.043 1.283-14.61 2.971-23.109.843-4.243 1.763-8.459 2.615-12.321l.35-1.585c.715-3.235 1.365-6.177 1.856-8.61.697-3.458.615-8.765.197-14.116Zm42.739-18.517.936-.325c9.882 19.631 10.032 31.292 9.579 36.232-.222 2.427-1.517 9.819-2.942 17.659-.651 3.584-1.33 7.268-1.951 10.629v.004c-.74 4.01-1.396 7.561-1.817 9.937-.762 4.294-.498 11.373.25 18.657.746 7.268 1.967 14.675 3.091 19.591l-.88.422c-3.036-3.833-5.59-10.739-7.438-17.989-1.851-7.27-3.013-14.976-3.222-20.475-.234-6.158.954-14.849 2.442-23.382.745-4.274 1.567-8.518 2.328-12.4l.313-1.594c.639-3.253 1.217-6.199 1.65-8.633.589-3.323.397-8.505-.146-13.84-.541-5.319-1.425-10.733-2.193-14.493Zm1.67 3.471c.57 3.269 1.13 7.119 1.518 10.921.543 5.339.75 10.643.135 14.116-.434 2.443-1.014 5.398-1.652 8.648v.003l-.001.001-.124.63-.189.962c-.76 3.881-1.581 8.117-2.324 12.379-1.488 8.537-2.658 17.133-2.428 23.173.207 5.415 1.355 13.05 3.193 20.266 1.535 6.03 3.537 11.704 5.838 15.544-.97-4.789-1.943-11.056-2.576-17.218-.748-7.286-1.028-14.49-.24-18.935.422-2.378 1.078-5.936 1.82-9.951v-.002c.62-3.362 1.3-7.044 1.95-10.62 1.43-7.869 2.712-15.202 2.93-17.572.408-4.459.34-14.888-7.85-32.345Zm-22.39-71.326.436.787 6.174 11.11-.48.267.485-.259a7.495 7.495 0 0 1-6.615 11.022 7.495 7.495 0 0 1-6.615-11.022l.473.252-.468-.26 6.172-11.11.437-.787Zm5.736 12.383v-.001a6.495 6.495 0 1 1-11.473.001h.001l5.735-10.324 5.737 10.324Z" clip-rule="evenodd"/>
</svg>