<svg xmlns="http://www.w3.org/2000/svg" fill="none" viewBox="0 0 335.12 114.67">
  <path fill="#0E57FF" fill-rule="evenodd" d="m167.348 0 .159.152c10.905 10.425 19.961 22.768 21.752 36.962 1.794 14.21-3.701 30.206-21.749 47.912l-.166.162-.175-.153c-20.056-17.64-24.264-35.475-21.328-50.615 2.93-15.117 12.973-27.5 21.336-34.281l.171-.139Zm-.023 84.506c17.844-17.57 23.201-33.365 21.438-47.33-1.761-13.955-10.639-26.147-21.442-36.51-8.267 6.762-18.107 18.984-20.99 33.849-2.889 14.901 1.204 32.505 20.994 49.99Zm.267-74.586a5.229 5.229 0 1 0 .004 10.424c-2.079-.415-3.701-2.178-4.028-4.388a.822.822 0 0 1-.001-1.642c.325-2.212 1.946-3.977 4.025-4.394Zm.107 18.12-.473.147c.273 1.613.569 3.933.716 6.207.149 2.282.146 4.488-.165 5.888-.229 1.03-.531 2.275-.864 3.65v.001l-.163.674a254.48 254.48 0 0 0-1.222 5.247c-.791 3.612-1.456 7.3-1.456 9.933 0 2.35.38 5.656 1.068 8.786.685 3.12 1.687 6.111 2.955 7.801l.445-.197c-.409-2.112-.818-5.286-1.023-8.393-.206-3.116-.203-6.132.2-7.943.223-1.006.568-2.509.958-4.206l.001-.002v-.001c.326-1.422.684-2.979 1.028-4.495.752-3.316 1.44-6.448 1.578-7.48.281-2.107.408-7.086-3.583-15.617Zm.742 6.322a66.305 66.305 0 0 0-.449-4.447c3.188 7.436 3.043 11.808 2.794 13.676-.134 1.004-.815 4.105-1.57 7.436-.343 1.512-.7 3.069-1.027 4.49v.003c-.391 1.7-.737 3.206-.96 4.213-.42 1.887-.417 4.967-.211 8.084.169 2.558.475 5.163.808 7.195-.898-1.662-1.646-4.035-2.198-6.546-.682-3.103-1.056-6.372-1.056-8.68 0-2.571.653-6.211 1.444-9.825a254.94 254.94 0 0 1 1.22-5.236l.163-.674c.333-1.375.636-2.626.866-3.66.328-1.477.325-3.745.176-6.03Zm-9.771-.824.472-.152c3.141 6.623 3.103 10.52 2.912 12.178-.094.81-.584 3.265-1.119 5.86-.245 1.189-.5 2.409-.732 3.522v.001l-.001.002v.002c-.277 1.327-.523 2.502-.682 3.29-.284 1.41-.253 3.757-.061 6.187.191 2.422.539 4.893.874 6.534l-.445.2c-.992-1.314-1.791-3.648-2.349-6.076-.56-2.438-.887-5.018-.914-6.857-.03-2.06.435-4.951.997-7.78.282-1.416.589-2.823.872-4.11l.117-.527c.238-1.078.453-2.053.616-2.859.22-1.089.197-2.804.058-4.584a51.558 51.558 0 0 0-.615-4.831Zm.783 1.763c.131.945.25 1.993.331 3.03.139 1.78.168 3.558-.067 4.721-.164.811-.38 1.791-.618 2.868l-.117.527a208.308 208.308 0 0 0-.87 4.1c-.562 2.83-1.016 5.673-.987 7.675.026 1.797.347 4.34.901 6.752.412 1.79.946 3.481 1.569 4.736a64.15 64.15 0 0 1-.635-5.243c-.192-2.43-.23-4.84.07-6.325.159-.789.406-1.968.684-3.3.233-1.114.487-2.334.732-3.518.537-2.61 1.021-5.035 1.111-5.817.163-1.416.227-4.694-2.104-10.206Zm14.859-3.273-.469.162c.256 1.249.549 3.049.729 4.816.181 1.776.244 3.49.05 4.584-.144.81-.336 1.79-.549 2.872l-.104.53a201.912 201.912 0 0 0-.776 4.13c-.495 2.84-.892 5.742-.814 7.801.07 1.838.458 4.409 1.076 6.833.615 2.415 1.468 4.729 2.491 6.02l.44-.211c-.374-1.633-.78-4.095-1.028-6.511-.249-2.425-.335-4.771-.084-6.188.141-.791.359-1.973.605-3.308.206-1.119.433-2.345.65-3.539.474-2.608.905-5.073.98-5.885.152-1.662.099-5.56-3.197-12.106Zm.758 4.928a51.754 51.754 0 0 0-.402-3.022c2.459 5.456 2.473 8.735 2.343 10.154-.072.784-.498 3.22-.974 5.842-.217 1.19-.443 2.415-.649 3.534a514.099 514.099 0 0 0-.606 3.315c-.265 1.492-.17 3.9.079 6.325.189 1.84.469 3.71.758 5.227-.653-1.24-1.227-2.919-1.68-4.698-.611-2.398-.992-4.933-1.06-6.729-.076-2 .311-4.854.807-7.696.247-1.418.52-2.827.773-4.119l.104-.53c.213-1.082.406-2.067.551-2.882.207-1.168.137-2.944-.044-4.721Zm-13.632-21.824a5.73 5.73 0 1 1 11.458 0 5.73 5.73 0 0 1-11.458 0ZM22.761 28.594l-.159-.153-.171.14C13.972 35.44 3.815 47.963.85 63.253c-2.97 15.312 1.285 33.353 21.572 51.194l.175.153.166-.162c18.255-17.91 23.812-34.089 21.998-48.46-1.812-14.356-10.97-26.841-22-37.385ZM44.266 66.04c1.784 14.128-3.636 30.107-21.686 47.88C2.56 96.231-1.58 78.423 1.341 63.349c2.916-15.038 12.87-27.402 21.234-34.241C33.503 39.59 42.485 51.924 44.266 66.04ZM22.417 49.032a5.292 5.292 0 0 1-5.282-4.957c.176.558.438 1.134.814 1.663.846 1.19 2.253 2.132 4.468 2.132s3.623-.942 4.468-2.132c.376-.53.638-1.105.814-1.663a5.292 5.292 0 0 1-5.282 4.957Zm-5.792-5.292a5.792 5.792 0 1 0 11.362-1.593l-.49.069c0 .861-.257 2.158-1.02 3.232-.754 1.062-2.01 1.922-4.06 1.922-2.049 0-3.306-.86-4.06-1.922-.763-1.074-1.02-2.37-1.02-3.232l-.49-.069a5.796 5.796 0 0 0-.222 1.593Zm5.856 13.205.473-.148c4.036 8.63 3.908 13.665 3.624 15.796-.14 1.044-.836 4.21-1.597 7.566-.347 1.533-.709 3.108-1.039 4.545v.004a664.397 664.397 0 0 0-.97 4.255c-.407 1.832-.41 4.883-.203 8.034.208 3.144.622 6.354 1.036 8.49l-.446.198c-1.282-1.709-2.295-4.734-2.988-7.89-.696-3.166-1.08-6.51-1.08-8.886 0-2.663.672-6.394 1.472-10.047A251.5 251.5 0 0 1 22 73.555l.165-.682c.337-1.391.641-2.651.873-3.693.315-1.417.318-3.649.168-5.957a65.54 65.54 0 0 0-.725-6.278Zm.766 1.727a66.89 66.89 0 0 1 .458 4.519c.15 2.31.153 4.605-.179 6.097a218.704 218.704 0 0 1-.875 3.703l-.165.681a253.83 253.83 0 0 0-1.234 5.297c-.801 3.655-1.46 7.337-1.46 9.94 0 2.333.377 5.64 1.067 8.778.56 2.549 1.32 4.956 2.231 6.638a79.594 79.594 0 0 1-.82-7.295c-.207-3.152-.21-6.267.214-8.176.226-1.018.576-2.541.97-4.26.331-1.44.693-3.015 1.04-4.546.764-3.369 1.453-6.506 1.588-7.522.252-1.89.399-6.32-2.835-13.854Zm-8.948 3.53-.473.152c.229 1.269.483 3.096.623 4.887.14 1.8.163 3.536-.06 4.638-.164.815-.382 1.801-.622 2.89l-.118.535c-.287 1.3-.598 2.724-.883 4.157-.568 2.86-1.039 5.785-1.008 7.869.027 1.86.358 4.468.925 6.934.564 2.457 1.372 4.816 2.375 6.146l.445-.201c-.339-1.66-.69-4.16-.884-6.61-.194-2.457-.226-4.832.062-6.259.16-.796.41-1.986.69-3.33v-.003c.236-1.126.494-2.36.741-3.56.541-2.626 1.037-5.109 1.131-5.928.194-1.677.232-5.618-2.944-12.317Zm.649 5a53.068 53.068 0 0 0-.338-3.086c2.366 5.589 2.302 8.91 2.137 10.345-.092.791-.58 3.245-1.125 5.885a984.74 984.74 0 0 1-.74 3.557v.001c-.281 1.347-.53 2.54-.691 3.337-.303 1.503-.265 3.94-.07 6.398.147 1.873.387 3.777.644 5.322-.634-1.271-1.177-2.99-1.595-4.808-.56-2.44-.886-5.013-.912-6.83-.03-2.026.43-4.902.999-7.764.284-1.428.593-2.847.88-4.147l.118-.534c.24-1.089.46-2.08.625-2.9.237-1.177.208-2.974.068-4.776Zm14.228-6.212.468-.163c3.334 6.622 3.388 10.564 3.234 12.244-.076.822-.513 3.315-.992 5.953-.22 1.207-.448 2.448-.657 3.58-.25 1.35-.47 2.545-.612 3.346-.254 1.433-.166 3.806.085 6.259.251 2.444.662 4.935 1.04 6.586l-.44.211c-1.034-1.305-1.898-3.645-2.52-6.087-.624-2.452-1.016-5.053-1.087-6.911-.08-2.083.322-5.018.823-7.89.251-1.44.528-2.87.784-4.177l.106-.537c.215-1.096.41-2.086.555-2.905.196-1.107.133-2.842-.05-4.637a52.345 52.345 0 0 0-.737-4.872ZM30 62.734c.155.958.302 2.023.41 3.077.182 1.798.254 3.594.044 4.775-.146.824-.342 1.82-.557 2.915l-.105.536a203.609 203.609 0 0 0-.782 4.166c-.502 2.875-.894 5.762-.816 7.786.069 1.816.454 4.381 1.072 6.806.46 1.808 1.044 3.514 1.708 4.77a64.605 64.605 0 0 1-.77-5.305c-.252-2.453-.348-4.889-.08-6.398.142-.8.363-2 .613-3.352.209-1.132.437-2.372.656-3.576.482-2.651.913-5.115.986-5.909.131-1.438.117-4.76-2.38-10.291Zm-7.72-24.771.219.393 2.079 3.74-.096.054.098-.052a2.605 2.605 0 1 1-4.599 0l.118.063-.115-.064 2.078-3.741.218-.393Zm1.86 4.377h.002a2.105 2.105 0 1 1-3.722 0l1.86-3.348 1.86 3.348Zm288.638-13.739-.159-.152-.172.139c-8.465 6.865-18.63 19.398-21.596 34.699-2.971 15.324 1.287 33.378 21.589 51.232l.174.154.166-.163c18.269-17.922 23.83-34.114 22.015-48.496-1.813-14.366-10.979-26.86-22.017-37.413Zm21.521 37.476c1.784 14.137-3.639 30.128-21.703 47.913-20.035-17.701-24.179-35.522-21.254-50.608 2.918-15.05 12.88-27.422 21.25-34.267 10.936 10.49 19.924 22.834 21.707 36.962Zm-21.329-9.252-.473.147a65.4 65.4 0 0 1 .725 6.283c.15 2.31.147 4.544-.168 5.961a210.664 210.664 0 0 1-.873 3.696l-.166.683c-.401 1.662-.836 3.48-1.237 5.31-.801 3.657-1.473 7.39-1.473 10.055 0 2.378.384 5.724 1.08 8.892.694 3.159 1.708 6.186 2.991 7.896l.445-.197c-.414-2.138-.828-5.351-1.036-8.497-.208-3.154-.205-6.207.203-8.04.226-1.018.575-2.537.969-4.253v-.001l.001-.003c.331-1.44.693-3.018 1.041-4.553.761-3.358 1.458-6.527 1.598-7.572.284-2.132.412-7.172-3.627-15.807Zm.751 6.398a67.543 67.543 0 0 0-.457-4.523c3.236 7.54 3.089 11.973 2.837 13.865-.136 1.017-.825 4.156-1.59 7.528-.347 1.53-.708 3.105-1.039 4.543l-.001.005v.001c-.395 1.72-.745 3.245-.971 4.263-.425 1.91-.422 5.028-.214 8.182.172 2.597.483 5.242.821 7.302-.913-1.684-1.673-4.093-2.234-6.644-.69-3.14-1.068-6.45-1.068-8.785 0-2.605.66-6.29 1.461-9.947.4-1.826.834-3.64 1.235-5.3l.165-.683h.001c.336-1.392.643-2.658.875-3.705.332-1.494.329-3.79.179-6.102Zm-9.885-.834.472-.152c3.179 6.704 3.141 10.648 2.947 12.326-.095.82-.59 3.304-1.132 5.932-.248 1.202-.506 2.437-.741 3.564l-.001.002a588.646 588.646 0 0 0-.69 3.333c-.288 1.428-.257 3.805-.063 6.264.194 2.452.546 4.953.885 6.614l-.444.201c-1.004-1.33-1.813-3.692-2.378-6.15-.567-2.468-.898-5.079-.925-6.94-.03-2.085.441-5.011 1.009-7.874a205.2 205.2 0 0 1 .883-4.16l.118-.535c.241-1.09.459-2.077.624-2.893.222-1.103.2-2.84.059-4.64a52.21 52.21 0 0 0-.623-4.892Zm.784 1.762c.133.963.255 2.032.338 3.09.14 1.803.169 3.602-.068 4.779-.166.82-.385 1.813-.626 2.903l-.118.534c-.287 1.3-.596 2.72-.88 4.15-.569 2.864-1.03 5.742-1 7.77.026 1.818.352 4.393.913 6.834.418 1.82.962 3.541 1.597 4.814a64.428 64.428 0 0 1-.646-5.327c-.194-2.46-.233-4.9.071-6.403.161-.798.41-1.992.692-3.34.235-1.127.493-2.362.74-3.56.545-2.643 1.034-5.098 1.125-5.89.166-1.435.23-4.76-2.138-10.354Zm15.045-3.292-.468.162c.258 1.264.556 3.086.738 4.875.183 1.797.246 3.534.05 4.641-.146.82-.34 1.812-.556 2.908l-.105.537a198.164 198.164 0 0 0-.785 4.18c-.501 2.874-.903 5.811-.824 7.895.071 1.86.463 4.463 1.088 6.917.623 2.444 1.487 4.785 2.522 6.092l.44-.211c-.378-1.653-.789-4.145-1.041-6.592-.252-2.454-.339-4.83-.085-6.264.142-.8.363-1.996.612-3.347v-.001h.001c.208-1.133.438-2.374.657-3.582.48-2.64.917-5.136.992-5.958.154-1.681.1-5.626-3.236-12.253Zm.767 4.987a52.53 52.53 0 0 0-.41-3.081c2.499 5.536 2.513 8.861 2.381 10.3-.072.794-.504 3.26-.986 5.914-.219 1.205-.448 2.445-.657 3.578-.249 1.353-.471 2.553-.613 3.355-.268 1.51-.172 3.947.08 6.402.192 1.871.477 3.771.771 5.31-.665-1.257-1.249-2.964-1.71-4.774-.618-2.427-1.004-4.994-1.073-6.811-.077-2.026.315-4.915.817-7.792.25-1.435.526-2.861.782-4.169l.106-.537c.215-1.095.411-2.092.557-2.916.21-1.183.138-2.98-.045-4.78Zm-7.189-17.106a5.047 5.047 0 0 0 0-9.964c-2.336.302-4.163 2.406-4.163 4.982 0 2.575 1.827 4.68 4.163 4.982Zm.008.505c.187.02.378.032.571.032v-.148a5.548 5.548 0 0 0 0-10.742v-.148a5.05 5.05 0 0 0-.571.032 5.546 5.546 0 1 0 0 10.973Zm-1.722-.522a5.048 5.048 0 0 1 .001-9.93c-1.75.897-2.95 2.79-2.95 4.965s1.199 4.068 2.949 4.965Z" clip-rule="evenodd"/>
</svg>