<svg xmlns="http://www.w3.org/2000/svg" fill="none" viewBox="0 0 8 10">
  <path fill="#0E57FF" d="M4.016 0c-.581 0-.89.433-.89 1 0 .833.72 1.767.72 3.733C2.407 3.8 2.1 2.767 1.448 2.367c-.41-.3-.958-.3-1.3.2-.309.433-.103.933.307 1.2C1.073 4.2 2.202 4.1 3.64 5c-1.438.9-2.567.8-3.184 1.233-.41.267-.616.767-.308 1.2.343.5.89.5 1.301.2.65-.4.959-1.433 2.396-2.366 0 1.966-.719 2.9-.719 3.733 0 .567.309 1 .89 1 .548 0 .89-.433.89-1 0-.833-.718-1.767-.718-3.733 1.437.933 1.745 1.966 2.396 2.366.376.3.924.3 1.266-.2.308-.433.103-.933-.273-1.2C6.927 5.8 5.83 5.9 4.359 5c1.472-.9 2.567-.8 3.218-1.233.376-.267.581-.767.273-1.2-.342-.5-.89-.5-1.266-.2-.65.4-.959 1.433-2.396 2.366 0-1.966.718-2.9.718-3.733 0-.567-.342-1-.89-1Z"/>
</svg>