<svg xmlns="http://www.w3.org/2000/svg" fill="none" viewBox="0 0 23 25">
  <circle cx="5.167" cy="14.833" r=".833" fill="currentColor"/>
  <circle cx="17.833" cy="19.167" r=".833" fill="currentColor"/>
  <circle cx="13.499" cy="5.168" r=".833" fill="currentColor"/>
  <path fill="currentColor" fill-rule="evenodd" d="M4.424 9.645h1.52v.742c0 1.13.105 2.138.3 2.882l.023.092v.003a.708.708 0 0 0 .413.4l.057.015c.746.194 1.757.3 2.89.3h.303l.456.448v1.089h-.742c-1.132 0-2.143.105-2.888.299l-.092.024H6.66a.708.708 0 0 0-.402.411l-.015.058c-.194.743-.3 1.752-.3 2.881v.742H4.425v-.742c0-1.13-.105-2.138-.3-2.881l-.023-.093v-.003a.698.698 0 0 0-.414-.395l-.078-.021c-.725-.193-1.734-.298-2.867-.298H0v-1.52h.742c1.132 0 2.143-.105 2.888-.299l.092-.024h.004a.643.643 0 0 0 .375-.388v-.006l.024-.092c.194-.744.3-1.752.3-2.882v-.742Zm.764 4.794c-.115.153-.251.29-.404.408.153.116.29.253.408.406.117-.152.255-.29.41-.407a2.197 2.197 0 0 1-.414-.407ZM12.59 0h1.52v.742c0 1.13.105 2.138.3 2.882l.024.092v.003a.708.708 0 0 0 .412.4l.057.015c.746.194 1.757.3 2.89.3h.303l.456.448v1.089h-.742c-1.132 0-2.143.105-2.888.299l-.092.024h-.004a.708.708 0 0 0-.402.411l-.014.058c-.195.743-.3 1.752-.3 2.881v.742h-1.52v-.742c0-1.13-.105-2.138-.3-2.881l-.023-.093v-.003a.697.697 0 0 0-.414-.395l-.078-.021c-.725-.193-1.734-.298-2.867-.298h-.742v-1.52h.742c1.132 0 2.143-.105 2.889-.299l.091-.024h.004a.643.643 0 0 0 .375-.388v-.006l.024-.092c.194-.744.3-1.752.3-2.882V0Zm.764 4.794c-.115.153-.251.29-.404.408.153.116.29.253.408.406.117-.152.255-.29.41-.407a2.191 2.191 0 0 1-.414-.407ZM17.037 14.095h1.52v.742c0 1.13.105 2.138.3 2.882l.024.092v.003a.708.708 0 0 0 .412.4l.058.015c.745.194 1.756.3 2.888.3h.304l.456.448v1.09h-.741c-1.133 0-2.144.104-2.889.298l-.092.024h-.004a.708.708 0 0 0-.401.412l-.015.057c-.194.743-.3 1.752-.3 2.881v.742h-1.52v-.742c0-1.13-.105-2.138-.299-2.881l-.024-.092v-.004a.698.698 0 0 0-.414-.395l-.078-.02c-.725-.194-1.734-.299-2.867-.299h-.742v-1.52h.742c1.132 0 2.143-.105 2.889-.299l.092-.023h.003a.643.643 0 0 0 .375-.39v-.005l.024-.092c.194-.744.3-1.752.3-2.882v-.742Zm.764 4.795c-.115.153-.25.29-.404.407.153.117.29.253.408.406a2.19 2.19 0 0 1 .41-.407 2.2 2.2 0 0 1-.414-.406Z" clip-rule="evenodd"/>
</svg>