<svg xmlns="http://www.w3.org/2000/svg" fill="none" viewBox="0 0 161 162">
  <g filter="url(#a)">
    <path fill="#0E57FF" d="M141 81v.493c-15.888 0-30.556 1.475-41.801 4.426h-.244c-6.844 1.723-11.978 7.132-13.934 13.774v.245c-2.933 11.316-4.4 26.073-4.4 42.062h-.487c0-15.987-1.466-30.746-4.399-42.062v-.245c-1.712-6.887-7.088-12.053-13.934-14.021h-.244C50.556 82.72 35.888 81.245 20 81.245v-.49c15.888 0 30.556-1.476 41.801-4.427h.244c6.844-1.722 11.978-7.132 13.688-14.021v-.245c2.933-11.316 4.4-26.073 4.4-42.062h.487c0 15.987 1.466 30.746 4.4 42.062v.245c1.711 6.887 7.087 12.053 13.688 14.021h.243c11.246 2.951 25.911 4.427 41.801 4.427L141 81Z"/>
    <path stroke="#0E57FF" d="M141 81v.493c-15.888 0-30.556 1.475-41.801 4.426h-.244c-6.844 1.723-11.978 7.132-13.934 13.774v.245c-2.933 11.316-4.4 26.073-4.4 42.062h-.487c0-15.987-1.466-30.746-4.399-42.062v-.245c-1.712-6.887-7.088-12.053-13.934-14.021h-.244C50.556 82.72 35.888 81.245 20 81.245v-.49c15.888 0 30.556-1.476 41.801-4.427h.244c6.844-1.722 11.978-7.132 13.688-14.021v-.245c2.933-11.316 4.4-26.073 4.4-42.062h.487c0 15.987 1.466 30.746 4.4 42.062v.245c1.711 6.887 7.087 12.053 13.688 14.021h.243c11.246 2.951 25.911 4.427 41.801 4.427L141 81Z"/>
  </g>
  <defs>
    <filter id="a" width="160" height="161" x=".5" y=".5" color-interpolation-filters="sRGB" filterUnits="userSpaceOnUse">
      <feFlood flood-opacity="0" result="BackgroundImageFix"/>
      <feColorMatrix in="SourceAlpha" result="hardAlpha" values="0 0 0 0 0 0 0 0 0 0 0 0 0 0 0 0 0 0 127 0"/>
      <feOffset/>
      <feGaussianBlur stdDeviation="9.5"/>
      <feComposite in2="hardAlpha" operator="out"/>
      <feColorMatrix values="0 0 0 0 0 0 0 0 0 0.231373 0 0 0 0 0.764706 0 0 0 0.4 0"/>
      <feBlend in2="BackgroundImageFix" result="effect1_dropShadow_155_3585"/>
      <feBlend in="SourceGraphic" in2="effect1_dropShadow_155_3585" result="shape"/>
    </filter>
  </defs>
</svg>