<svg xmlns="http://www.w3.org/2000/svg" fill="none" viewBox="19.5 19.5 50 59">
  <g filter="url(#a)">
    <path fill="#0E57FF" d="M56 38v.145c-4.727 0-9.09.436-12.437 1.307h-.072c-2.037.508-3.564 2.104-4.146 4.064v.072c-.873 3.34-1.309 7.694-1.309 12.412h-.145c0-4.718-.436-9.073-1.309-12.412v-.072c-.509-2.032-2.108-3.557-4.145-4.137h-.073c-3.273-.871-7.637-1.307-12.364-1.307v-.144c4.727 0 9.09-.436 12.437-1.307h.072c2.037-.508 3.564-2.104 4.073-4.137v-.072c.872-3.34 1.309-7.694 1.309-12.412h.145c0 4.718.436 9.073 1.309 12.412v.072c.509 2.032 2.108 3.557 4.072 4.137h.073c3.345.871 7.709 1.307 12.436 1.307L56 38Z"/>
    <path stroke="#0E57FF" d="M56 38v.145c-4.727 0-9.09.436-12.437 1.307h-.072c-2.037.508-3.564 2.104-4.146 4.064v.072c-.873 3.34-1.309 7.694-1.309 12.412h-.145c0-4.718-.436-9.073-1.309-12.412v-.072c-.509-2.032-2.108-3.557-4.145-4.137h-.073c-3.273-.871-7.637-1.307-12.364-1.307v-.144c4.727 0 9.09-.436 12.437-1.307h.072c2.037-.508 3.564-2.104 4.073-4.137v-.072c.872-3.34 1.309-7.694 1.309-12.412h.145c0 4.718.436 9.073 1.309 12.412v.072c.509 2.032 2.108 3.557 4.072 4.137h.073c3.345.871 7.709 1.307 12.436 1.307L56 38Z"/>
  </g>
  <g filter="url(#b)">
    <path fill="#0E57FF" d="M69 67v.089c-2.889 0-5.556.266-7.6.798h-.044c-1.245.31-2.178 1.286-2.534 2.484v.044c-.533 2.04-.8 4.702-.8 7.585h-.088c0-2.883-.267-5.544-.8-7.585v-.044c-.312-1.242-1.29-2.174-2.534-2.528h-.044c-2-.533-4.667-.799-7.556-.799v-.088c2.889 0 5.556-.266 7.6-.799h.044c1.245-.31 2.178-1.286 2.49-2.528v-.044c.533-2.04.8-4.702.8-7.585h.088c0 2.883.267 5.544.8 7.585v.044c.31 1.242 1.288 2.174 2.488 2.529h.045c2.044.532 4.71.798 7.6.798L69 67Z"/>
    <path stroke="#0E57FF" d="M69 67v.089c-2.889 0-5.556.266-7.6.798h-.044c-1.245.31-2.178 1.286-2.534 2.484v.044c-.533 2.04-.8 4.702-.8 7.585h-.088c0-2.883-.267-5.544-.8-7.585v-.044c-.312-1.242-1.29-2.174-2.534-2.528h-.044c-2-.533-4.667-.799-7.556-.799v-.088c2.889 0 5.556-.266 7.6-.799h.044c1.245-.31 2.178-1.286 2.49-2.528v-.044c.533-2.04.8-4.702.8-7.585h.088c0 2.883.267 5.544.8 7.585v.044c.31 1.242 1.288 2.174 2.488 2.529h.045c2.044.532 4.71.798 7.6.798L69 67Z"/>
  </g>
  <defs>
    <filter id="a" width="75" height="75" x=".5" y=".5" color-interpolation-filters="sRGB" filterUnits="userSpaceOnUse">
      <feFlood flood-opacity="0" result="BackgroundImageFix"/>
      <feColorMatrix in="SourceAlpha" result="hardAlpha" values="0 0 0 0 0 0 0 0 0 0 0 0 0 0 0 0 0 0 127 0"/>
      <feOffset/>
      <feGaussianBlur stdDeviation="9.5"/>
      <feComposite in2="hardAlpha" operator="out"/>
      <feColorMatrix values="0 0 0 0 0 0 0 0 0 0.231373 0 0 0 0 0.764706 0 0 0 0.4 0"/>
      <feBlend in2="BackgroundImageFix" result="effect1_dropShadow_155_2"/>
      <feBlend in="SourceGraphic" in2="effect1_dropShadow_155_2" result="shape"/>
    </filter>
    <filter id="b" width="61" height="61" x="27.5" y="36.5" color-interpolation-filters="sRGB" filterUnits="userSpaceOnUse">
      <feFlood flood-opacity="0" result="BackgroundImageFix"/>
      <feColorMatrix in="SourceAlpha" result="hardAlpha" values="0 0 0 0 0 0 0 0 0 0 0 0 0 0 0 0 0 0 127 0"/>
      <feOffset/>
      <feGaussianBlur stdDeviation="9.5"/>
      <feComposite in2="hardAlpha" operator="out"/>
      <feColorMatrix values="0 0 0 0 0 0 0 0 0 0.231373 0 0 0 0 0.764706 0 0 0 0.4 0"/>
      <feBlend in2="BackgroundImageFix" result="effect1_dropShadow_155_2"/>
      <feBlend in="SourceGraphic" in2="effect1_dropShadow_155_2" result="shape"/>
    </filter>
  </defs>
</svg>