<svg xmlns="http://www.w3.org/2000/svg" fill="none" viewBox="0 0 132 132">
  <g filter="url(#a)">
    <path fill="#0E57FF" d="M111 66v.363c-11.818 0-22.727 1.089-31.092 3.266h-.181c-5.09 1.27-8.91 5.261-10.364 10.161v.18C67.18 88.319 66.09 99.206 66.09 111h-.363c0-11.794-1.09-22.682-3.272-31.03v-.18c-1.274-5.08-5.272-8.892-10.364-10.344h-.182C43.727 67.27 32.818 66.181 21 66.181v-.362c11.818 0 22.727-1.088 31.092-3.266h.181c5.09-1.27 8.91-5.261 10.181-10.343v-.18c2.182-8.348 3.273-19.235 3.273-31.03h.362c0 11.794 1.091 22.682 3.272 31.03v.18c1.274 5.08 5.272 8.892 10.182 10.343h.181c8.365 2.178 19.273 3.266 31.092 3.266L111 66Z"/>
    <path stroke="#0E57FF" stroke-width="3" d="M111 66v.363c-11.818 0-22.727 1.089-31.092 3.266h-.181c-5.09 1.27-8.91 5.261-10.364 10.161v.18C67.18 88.319 66.09 99.206 66.09 111h-.363c0-11.794-1.09-22.682-3.272-31.03v-.18c-1.274-5.08-5.272-8.892-10.364-10.344h-.182C43.727 67.27 32.818 66.181 21 66.181v-.362c11.818 0 22.727-1.088 31.092-3.266h.181c5.09-1.27 8.91-5.261 10.181-10.343v-.18c2.182-8.348 3.273-19.235 3.273-31.03h.362c0 11.794 1.091 22.682 3.272 31.03v.18c1.274 5.08 5.272 8.892 10.182 10.343h.181c8.365 2.178 19.273 3.266 31.092 3.266L111 66Z"/>
  </g>
  <defs>
    <filter id="a" width="131" height="131" x=".5" y=".5" color-interpolation-filters="sRGB" filterUnits="userSpaceOnUse">
      <feFlood flood-opacity="0" result="BackgroundImageFix"/>
      <feColorMatrix in="SourceAlpha" result="hardAlpha" values="0 0 0 0 0 0 0 0 0 0 0 0 0 0 0 0 0 0 127 0"/>
      <feOffset/>
      <feGaussianBlur stdDeviation="9.5"/>
      <feComposite in2="hardAlpha" operator="out"/>
      <feColorMatrix values="0 0 0 0 0 0 0 0 0 0.231373 0 0 0 0 0.764706 0 0 0 0.4 0"/>
      <feBlend in2="BackgroundImageFix" result="effect1_dropShadow_155_3530"/>
      <feBlend in="SourceGraphic" in2="effect1_dropShadow_155_3530" result="shape"/>
    </filter>
  </defs>
</svg>
