<svg xmlns="http://www.w3.org/2000/svg" fill="none" viewBox="0 0 231 33">
  <path fill="#0E57FF" d="M111.514.52c-.76 0-1.2.52-1.2 1.2 0 1 1 2.44 1 4.8-2.04 0-2.84-1-3.84-1-.68 0-1.2.44-1.2 1.2s.52 1.2 1.2 1.2c1 0 1.8-1 3.84-1V33h.4V6.92c2.04 0 2.8 1 3.8 1 .68 0 1.2-.44 1.2-1.2s-.52-1.2-1.2-1.2c-1 0-1.76 1-3.8 1 0-2.36 1-3.8 1-4.8 0-.68-.44-1.2-1.2-1.2ZM1.5 11c.94 0 1.5-.632 1.5-1.5S2.44 8 1.5 8 0 8.632 0 9.5.56 11 1.5 11ZM229.5 12c.939 0 1.5-.632 1.5-1.5s-.561-1.5-1.5-1.5-1.5.632-1.5 1.5.561 1.5 1.5 1.5Z"/>
</svg>