<svg width="204" height="277" viewBox="0 0 204 277" fill="none"
  xmlns="http://www.w3.org/2000/svg">
  <path d="M169.369 182.095L168.949 182.836L164.9 180.542C164.482 180.305 164.165 179.995 163.948 179.612C163.732 179.232 163.631 178.81 163.643 178.347C163.658 177.884 163.801 177.413 164.073 176.934C164.345 176.454 164.675 176.089 165.064 175.838C165.455 175.589 165.87 175.459 166.308 175.446C166.747 175.437 167.175 175.551 167.594 175.788L171.643 178.082L171.223 178.823L167.234 176.563C166.935 176.393 166.632 176.309 166.325 176.308C166.019 176.309 165.731 176.392 165.46 176.56C165.19 176.73 164.959 176.986 164.766 177.326C164.573 177.666 164.473 177.996 164.466 178.316C164.46 178.636 164.536 178.926 164.694 179.186C164.853 179.45 165.081 179.666 165.38 179.835L169.369 182.095Z" fill="#0E57FF"/>
  <path d="M165.018 189.428L158.995 185.806L159.419 185.1L166.123 184.662L166.158 184.603L161.429 181.759L161.868 181.03L167.891 184.652L167.466 185.358L160.744 185.8L160.709 185.859L165.449 188.711L165.018 189.428Z" fill="#0E57FF"/>
  <path d="M163.419 191.967L157.463 188.236L157.915 187.515L163.871 191.246L163.419 191.967Z" fill="#0E57FF"/>
  <path d="M161.743 193.22L162.375 193.633L159.496 198.049L158.863 197.636L160.071 195.785L154.815 192.358L155.28 191.645L160.535 195.072L161.743 193.22Z" fill="#0E57FF"/>
  <path d="M152.762 195.46L158.562 199.43L156.167 202.93L155.544 202.504L157.459 199.706L155.499 198.365L153.708 200.982L153.085 200.555L154.876 197.938L152.904 196.589L150.959 199.433L150.335 199.006L152.762 195.46Z" fill="#0E57FF"/>
  <path d="M147.846 202.504L148.374 201.784L152.515 208.022L151.995 208.731L144.801 206.655L145.329 205.935L151.342 207.741L151.374 207.697L147.846 202.504ZM149.865 204.393L147.738 207.293L147.129 206.847L149.256 203.947L149.865 204.393Z" fill="#0E57FF"/>
  <path d="M144.158 207.484L149.729 211.77L149.21 212.444L144.237 208.619L142.245 211.209L141.647 210.748L144.158 207.484Z" fill="#0E57FF"/>
  <path d="M144.571 218.341L138.679 216.187L138.626 216.251L141.864 221.624L141.296 222.313L137.515 215.851L138.074 215.173L145.139 217.652L144.571 218.341Z" fill="#0E57FF"/>
  <path d="M139.811 224.025L134.475 219.45L135.029 218.804L140.365 223.379L139.811 224.025Z" fill="#0E57FF"/>
  <path d="M132.953 221.213L133.548 220.548L137.061 227.16L136.475 227.815L129.518 225.047L130.113 224.382L135.921 226.766L135.958 226.725L132.953 221.213ZM134.778 223.29L132.378 225.969L131.816 225.465L134.216 222.786L134.778 223.29Z" fill="#0E57FF"/>
  <path d="M132.084 232.563L131.501 233.183L127.842 229.739C127.515 229.432 127.294 229.111 127.179 228.776C127.063 228.441 127.049 228.109 127.136 227.779C127.224 227.45 127.407 227.137 127.686 226.84C127.949 226.56 128.234 226.359 128.541 226.236C128.85 226.115 129.158 226.082 129.466 226.136C129.773 226.189 130.058 226.339 130.32 226.585L129.746 227.195C129.601 227.059 129.44 226.976 129.265 226.945C129.089 226.918 128.912 226.94 128.732 227.01C128.553 227.08 128.388 227.196 128.236 227.358C128.068 227.536 127.963 227.723 127.92 227.918C127.877 228.114 127.898 228.312 127.982 228.514C128.066 228.718 128.213 228.92 128.425 229.119L132.084 232.563Z" fill="#0E57FF"/>
  <path d="M125.043 229.748L130.027 234.703L127.037 237.711L126.501 237.179L128.892 234.774L127.208 233.1L124.972 235.349L124.436 234.817L126.672 232.568L124.978 230.884L122.549 233.328L122.013 232.795L125.043 229.748Z" fill="#0E57FF"/>
  <path d="M121.247 237.825C121.508 238.101 121.67 238.367 121.733 238.624C121.794 238.882 121.783 239.12 121.702 239.339C121.619 239.559 121.491 239.748 121.32 239.907C121.149 240.065 120.957 240.17 120.746 240.222C120.535 240.276 120.264 240.312 119.934 240.328C119.71 240.338 119.541 240.354 119.426 240.376C119.312 240.4 119.21 240.455 119.119 240.538C118.973 240.674 118.906 240.832 118.918 241.014C118.93 241.196 119.032 241.385 119.223 241.582L118.679 242.085C118.414 241.812 118.252 241.547 118.191 241.289C118.13 241.03 118.141 240.791 118.224 240.571C118.307 240.351 118.434 240.162 118.606 240.003C118.777 239.845 118.967 239.737 119.175 239.679C119.384 239.622 119.657 239.59 119.992 239.582C120.211 239.576 120.378 239.56 120.494 239.534C120.612 239.51 120.716 239.455 120.807 239.372C120.943 239.246 121.012 239.095 121.014 238.918C121.016 238.742 120.912 238.545 120.702 238.328L121.247 237.825ZM119.84 236.302C120.101 236.578 120.263 236.845 120.326 237.101C120.387 237.359 120.377 237.598 120.295 237.816C120.212 238.037 120.085 238.226 119.913 238.384C119.742 238.543 119.551 238.647 119.34 238.699C119.129 238.754 118.858 238.789 118.527 238.805C118.303 238.816 118.134 238.832 118.02 238.853C117.906 238.878 117.803 238.932 117.712 239.016C117.566 239.151 117.499 239.309 117.511 239.491C117.524 239.673 117.625 239.862 117.817 240.059L117.272 240.563C117.008 240.29 116.845 240.024 116.784 239.766C116.723 239.508 116.734 239.269 116.817 239.048C116.9 238.828 117.028 238.639 117.199 238.481C117.371 238.322 117.56 238.214 117.768 238.156C117.978 238.099 118.25 238.067 118.586 238.06C118.804 238.054 118.972 238.038 119.088 238.011C119.205 237.987 119.309 237.933 119.4 237.849C119.536 237.723 119.605 237.572 119.608 237.396C119.61 237.219 119.506 237.023 119.296 236.805L119.84 236.302Z" fill="#0E57FF"/>
  <path d="M113.632 249.79L112.98 250.338L109.987 246.774C109.678 246.406 109.489 246.005 109.42 245.57C109.35 245.139 109.402 244.708 109.576 244.278C109.752 243.85 110.05 243.459 110.473 243.104C110.895 242.749 111.332 242.523 111.784 242.424C112.237 242.327 112.671 242.35 113.086 242.491C113.501 242.636 113.862 242.893 114.171 243.26L117.164 246.824L116.512 247.372L113.564 243.86C113.343 243.598 113.089 243.412 112.801 243.304C112.515 243.198 112.215 243.176 111.903 243.238C111.59 243.304 111.284 243.462 110.985 243.714C110.685 243.965 110.476 244.239 110.358 244.536C110.241 244.834 110.211 245.133 110.267 245.432C110.324 245.734 110.463 246.017 110.683 246.279L113.632 249.79Z" fill="#0E57FF"/>
  <path d="M106.796 255.128L102.522 249.548L103.176 249.047L109.572 251.099L109.627 251.057L106.271 246.676L106.946 246.159L111.221 251.738L110.567 252.239L104.151 250.185L104.097 250.227L107.461 254.618L106.796 255.128Z" fill="#0E57FF"/>
  <path d="M104.208 256.967L100.122 251.248L100.815 250.754L104.9 256.473L104.208 256.967Z" fill="#0E57FF"/>
  <path d="M102.255 257.434L102.674 258.062L98.2889 260.988L97.8698 260.36L99.7083 259.134L96.2264 253.915L96.9344 253.443L100.416 258.661L102.255 257.434Z" fill="#0E57FF"/>
  <path d="M93.0969 255.933L96.7246 261.953L93.0914 264.143L92.7018 263.496L95.6059 261.746L94.3802 259.712L91.6641 261.348L91.2744 260.702L93.9905 259.065L92.7576 257.019L89.8064 258.798L89.4167 258.151L93.0969 255.933Z" fill="#0E57FF"/>
  <path d="M85.7919 260.149L86.588 259.745L87.4613 267.182L86.6776 267.579L81.1995 262.475L81.9955 262.071L86.5425 266.401L86.5915 266.376L85.7919 260.149ZM86.7385 262.747L83.5299 264.372L83.1888 263.698L86.3974 262.073L86.7385 262.747Z" fill="#0E57FF"/>
  <path d="M80.3353 262.846L83.1621 269.281L82.3829 269.624L79.8597 263.88L76.8684 265.194L76.5647 264.503L80.3353 262.846Z" fill="#0E57FF"/>
  <path d="M75.2685 272.512L71.4227 267.555L71.3445 267.581L71.23 273.854L70.3832 274.135L70.6161 266.651L71.4499 266.374L76.1152 272.23L75.2685 272.512Z" fill="#0E57FF"/>
  <path d="M68.0296 274.733L66.2044 267.945L67.0263 267.724L68.8516 274.512L68.0296 274.733Z" fill="#0E57FF"/>
  <path d="M64.2241 268.45L65.0994 268.277L63.9311 275.673L63.0692 275.843L59.174 269.449L60.0493 269.275L63.2575 274.672L63.3114 274.662L64.2241 268.45ZM64.4335 271.207L60.9052 271.905L60.7587 271.164L64.287 270.467L64.4335 271.207Z" fill="#0E57FF"/>
  <path d="M56.2902 276.772L55.4433 276.857L54.9399 271.858C54.895 271.412 54.9388 271.025 55.0713 270.696C55.2038 270.368 55.411 270.108 55.693 269.916C55.9749 269.725 56.3185 269.608 56.7237 269.568C57.1061 269.529 57.4534 269.564 57.7656 269.673C58.0781 269.784 58.3327 269.961 58.5296 270.203C58.7264 270.446 58.8428 270.745 58.8788 271.103L58.0457 271.187C58.0257 270.989 57.9594 270.821 57.8466 270.683C57.7317 270.547 57.5837 270.447 57.4024 270.382C57.2212 270.318 57.0201 270.297 56.7993 270.319C56.5557 270.343 56.3537 270.415 56.1933 270.535C56.0329 270.655 55.9183 270.818 55.8494 271.025C55.7786 271.235 55.7577 271.484 55.7868 271.773L56.2902 276.772Z" fill="#0E57FF"/>
  <path d="M53.1832 269.936L53.1543 276.965L48.9125 276.947L48.9156 276.192L52.3063 276.206L52.3161 273.831L49.145 273.818L49.1481 273.063L52.3192 273.076L52.329 270.688L48.8834 270.674L48.8865 269.919L53.1832 269.936Z" fill="#0E57FF"/>
  <path d="M44.8767 272.616C44.8112 272.99 44.6941 273.279 44.5256 273.483C44.3549 273.686 44.1575 273.82 43.9334 273.885C43.7071 273.95 43.4793 273.96 43.2499 273.917C43.0206 273.874 42.8223 273.784 42.655 273.645C42.4851 273.509 42.2949 273.312 42.0845 273.056C41.9424 272.883 41.8287 272.757 41.7434 272.678C41.6554 272.601 41.5507 272.551 41.4293 272.529C41.2337 272.492 41.0666 272.533 40.928 272.651C40.7894 272.769 40.6982 272.964 40.6543 273.235L39.9257 273.099C39.9867 272.724 40.1026 272.435 40.2734 272.231C40.4441 272.028 40.6427 271.895 40.869 271.83C41.0952 271.765 41.3231 271.754 41.5524 271.797C41.7818 271.84 41.9819 271.928 42.1526 272.06C42.323 272.194 42.5114 272.394 42.7178 272.658C42.8532 272.83 42.966 272.955 43.0562 273.033C43.146 273.112 43.2516 273.164 43.3731 273.186C43.5552 273.22 43.7177 273.186 43.8605 273.082C44.0033 272.979 44.0991 272.778 44.1481 272.48L44.8767 272.616ZM45.2587 270.579C45.1932 270.953 45.0762 271.242 44.9077 271.445C44.7369 271.648 44.5395 271.783 44.3155 271.848C44.0892 271.912 43.8613 271.923 43.632 271.88C43.4026 271.837 43.2043 271.746 43.037 271.608C42.8671 271.471 42.677 271.275 42.4666 271.019C42.3245 270.846 42.2108 270.72 42.1255 270.641C42.0375 270.564 41.9328 270.514 41.8113 270.491C41.6157 270.455 41.4486 270.495 41.31 270.614C41.1714 270.732 41.0802 270.927 41.0364 271.198L40.3078 271.061C40.3688 270.686 40.4846 270.397 40.6554 270.194C40.8262 269.991 41.0247 269.857 41.251 269.793C41.4773 269.728 41.7051 269.717 41.9345 269.76C42.1638 269.803 42.3639 269.891 42.5347 270.023C42.705 270.157 42.8934 270.357 43.0999 270.621C43.2352 270.793 43.348 270.918 43.4382 270.995C43.528 271.075 43.6337 271.126 43.7551 271.149C43.9372 271.183 44.0997 271.148 44.2425 271.045C44.3853 270.941 44.4812 270.74 44.5301 270.442L45.2587 270.579Z" fill="#0E57FF"/>
  <path d="M30.4479 272.322L29.6664 271.985L31.5087 267.712C31.6989 267.271 31.9727 266.922 32.3302 266.665C32.6846 266.409 33.0929 266.262 33.555 266.225C34.0163 266.189 34.5001 266.281 35.0064 266.499C35.5127 266.717 35.9114 267.006 36.2023 267.366C36.4924 267.728 36.6671 268.126 36.7266 268.56C36.783 268.995 36.7161 269.434 36.5259 269.875L34.6836 274.148L33.902 273.811L35.7172 269.601C35.853 269.286 35.9046 268.976 35.8719 268.67C35.8383 268.366 35.7237 268.089 35.5281 267.838C35.3294 267.588 35.0505 267.385 34.6912 267.23C34.3319 267.075 33.9932 267.012 33.675 267.039C33.3559 267.068 33.0755 267.175 32.8339 267.36C32.5892 267.546 32.399 267.797 32.2631 268.112L30.4479 272.322Z" fill="#0E57FF"/>
  <path d="M22.4775 267.37L26.4448 261.568L27.1247 262.033L27.1713 268.75L27.2279 268.789L30.3429 264.233L31.0455 264.714L27.0781 270.516L26.3982 270.051L26.3481 263.314L26.2915 263.276L23.1687 267.842L22.4775 267.37Z" fill="#0E57FF"/>
  <path d="M19.8759 265.022L24.566 259.787L25.1999 260.355L20.5098 265.59L19.8759 265.022Z" fill="#0E57FF"/>
  <path d="M18.8581 263.075L18.2949 263.578L14.7838 259.646L15.347 259.143L16.8191 260.792L21.4985 256.613L22.0654 257.248L17.386 261.427L18.8581 263.075Z" fill="#0E57FF"/>
  <path d="M19.3241 253.957L13.4941 257.883L11.1249 254.364L11.7511 253.943L13.645 256.755L15.6149 255.429L13.8437 252.798L14.47 252.377L16.2412 255.007L18.2225 253.673L16.2979 250.815L16.9242 250.393L19.3241 253.957Z" fill="#0E57FF"/>
  <path d="M15.1043 247.088L15.4814 247.897L8.02065 248.528L7.64936 247.732L12.9287 242.423L13.3058 243.231L8.83116 247.635L8.85437 247.685L15.1043 247.088ZM12.4768 247.95L10.9568 244.69L11.641 244.371L13.161 247.631L12.4768 247.95Z" fill="#0E57FF"/>
  <path d="M12.6694 241.618L6.05273 243.988L5.76566 243.187L11.6716 241.071L10.5695 237.995L11.2803 237.741L12.6694 241.618Z" fill="#0E57FF"/>
  <path d="M3.40194 235.792L8.67138 232.387L8.65223 232.307L2.41263 231.653L2.20519 230.785L9.64116 231.662L9.8454 232.516L3.60938 236.66L3.40194 235.792Z" fill="#0E57FF"/>
  <path d="M1.79978 228.409L8.71333 227.143L8.86667 227.98L1.95312 229.246L1.79978 228.409Z" fill="#0E57FF"/>
  <path d="M8.37769 225.271L8.4978 226.155L1.18582 224.544L1.06756 223.674L7.68477 220.17L7.80488 221.054L2.22481 223.932L2.23221 223.986L8.37769 225.271ZM5.6128 225.314L5.12868 221.75L5.87683 221.649L6.36095 225.213L5.6128 225.314Z" fill="#0E57FF"/>
  <path d="M0.39927 217.132L0.330224 216.284L5.33799 215.876C5.78494 215.84 6.17131 215.891 6.49709 216.03C6.82287 216.169 7.07887 216.381 7.2651 216.666C7.45132 216.952 7.56095 217.298 7.59399 217.704C7.62517 218.087 7.58337 218.433 7.46858 218.743C7.35151 219.054 7.16995 219.305 6.9239 219.497C6.67786 219.689 6.37582 219.8 6.0178 219.829L5.94987 218.994C6.14826 218.978 6.31758 218.915 6.45783 218.805C6.59561 218.693 6.69849 218.547 6.76648 218.367C6.83447 218.187 6.85946 217.986 6.84146 217.765C6.8216 217.521 6.7534 217.318 6.63686 217.155C6.52032 216.992 6.35923 216.875 6.1536 216.802C5.9455 216.727 5.69664 216.701 5.40703 216.725L0.39927 217.132Z" fill="#0E57FF"/>
  <path d="M7.21459 213.609L0.189453 213.828L0.0570026 209.588L0.811656 209.565L0.91753 212.954L3.29126 212.88L3.19224 209.71L3.94689 209.687L4.04591 212.856L6.43336 212.782L6.32577 209.338L7.08042 209.314L7.21459 213.609Z" fill="#0E57FF"/>
  <path d="M3.99202 205.618C3.61226 205.611 3.30883 205.54 3.08174 205.405C2.85472 205.268 2.69177 205.093 2.59288 204.882C2.49407 204.668 2.4482 204.445 2.45527 204.212C2.46235 203.978 2.52136 203.768 2.63232 203.582C2.74105 203.393 2.90561 203.175 3.12599 202.927C3.27527 202.76 3.38227 202.628 3.447 202.532C3.50951 202.433 3.54264 202.322 3.54639 202.198C3.55242 201.999 3.48628 201.841 3.34796 201.722C3.20964 201.603 3.00316 201.543 2.72853 201.542L2.751 200.801C3.13091 200.803 3.43437 200.873 3.66139 201.01C3.88841 201.148 4.05133 201.323 4.15015 201.537C4.24896 201.75 4.29483 201.974 4.28776 202.207C4.28068 202.44 4.22506 202.652 4.1209 202.841C4.01445 203.03 3.84649 203.247 3.61704 203.492C3.46797 203.652 3.36214 203.783 3.29956 203.884C3.23469 203.985 3.20039 204.097 3.19664 204.22C3.19102 204.406 3.25041 204.561 3.3748 204.686C3.49919 204.811 3.71242 204.875 4.0145 204.877L3.99202 205.618ZM6.06395 205.681C5.68419 205.674 5.38076 205.603 5.15367 205.468C4.92664 205.33 4.76369 205.156 4.66481 204.945C4.56599 204.731 4.52012 204.508 4.5272 204.275C4.53427 204.041 4.59329 203.831 4.70424 203.645C4.81298 203.456 4.97754 203.238 5.19792 202.99C5.34719 202.823 5.4542 202.691 5.51892 202.595C5.58144 202.496 5.61456 202.385 5.61831 202.261C5.62434 202.062 5.5582 201.903 5.41988 201.785C5.28156 201.666 5.07509 201.606 4.80045 201.605L4.82293 200.864C5.20283 200.866 5.50629 200.936 5.73331 201.073C5.96033 201.211 6.12325 201.386 6.22207 201.6C6.32088 201.813 6.36675 202.037 6.35968 202.27C6.3526 202.503 6.29698 202.714 6.19282 202.904C6.08637 203.093 5.91842 203.31 5.68896 203.554C5.53989 203.715 5.43407 203.845 5.37148 203.946C5.30662 204.048 5.27231 204.16 5.26857 204.283C5.26295 204.468 5.32233 204.624 5.44672 204.749C5.57111 204.874 5.78434 204.938 6.08642 204.94L6.06395 205.681Z" fill="#0E57FF"/>
  <path d="M0.868318 191.777L0.94457 190.929L5.57953 191.346C6.05807 191.389 6.47519 191.541 6.83089 191.8C7.18451 192.057 7.45122 192.399 7.63101 192.827C7.80852 193.254 7.87257 193.742 7.82317 194.291C7.77377 194.84 7.62363 195.309 7.37273 195.698C7.11956 196.086 6.79597 196.376 6.40196 196.568C6.00588 196.758 5.56858 196.831 5.09004 196.788L0.455078 196.371L0.531331 195.523L5.09793 195.934C5.43974 195.965 5.75072 195.917 6.03086 195.791C6.30872 195.664 6.5365 195.469 6.71418 195.204C6.88979 194.938 6.99512 194.609 7.03017 194.22C7.06522 193.83 7.02016 193.488 6.89497 193.194C6.76751 192.9 6.57827 192.668 6.32726 192.496C6.07418 192.321 5.77673 192.219 5.43492 192.188L0.868318 191.777Z" fill="#0E57FF"/>
  <path d="M1.96834 182.957L8.93337 183.9L8.82289 184.716L2.84048 187.772L2.83127 187.84L8.29991 188.58L8.18574 189.423L1.2207 188.48L1.33119 187.664L7.32905 184.597L7.33825 184.529L1.85601 183.787L1.96834 182.957Z" fill="#0E57FF"/>
  <path d="M2.43632 180.121L9.37256 181.256L9.23507 182.096L2.29883 180.961L2.43632 180.121Z" fill="#0E57FF"/>
  <path d="M3.46456 178.472L2.72266 178.332L3.70097 173.152L4.44287 173.292L4.0327 175.464L10.1972 176.628L10.0393 177.465L3.87474 176.3L3.46456 178.472Z" fill="#0E57FF"/>
  <path d="M10.9314 172.919L4.06836 171.402L4.98343 167.26L5.72068 167.423L4.98921 170.734L7.30818 171.246L7.99226 168.15L8.7295 168.313L8.04542 171.409L10.3778 171.925L11.1211 168.56L11.8583 168.723L10.9314 172.919Z" fill="#0E57FF"/>
  <path d="M12.9353 164.301L12.7072 165.164L6.57178 160.872L6.79635 160.023L14.2511 159.324L14.023 160.187L7.76609 160.705L7.75205 160.758L12.9353 164.301ZM10.3652 163.281L11.2845 159.804L12.0144 159.997L11.0951 163.474L10.3652 163.281Z" fill="#0E57FF"/>
  <path d="M14.4115 158.793L7.66211 156.832L7.89961 156.015L13.9239 157.765L14.8357 154.628L15.5607 154.839L14.4115 158.793Z" fill="#0E57FF"/>
  <path d="M10.2236 148.333L16.4962 148.21L16.5221 148.132L11.5602 144.292L11.8405 143.445L17.7028 148.103L17.4268 148.937L9.94336 149.18L10.2236 148.333Z" fill="#0E57FF"/>
  <path d="M12.5952 141.334L19.2248 143.668L18.9421 144.471L12.3125 142.137L12.5952 141.334Z" fill="#0E57FF"/>
  <path d="M19.9709 141.56L19.6588 142.396L13.977 137.52L14.2843 136.697L21.7716 136.737L21.4595 137.573L15.1819 137.471L15.1627 137.523L19.9709 141.56ZM17.514 140.291L18.7721 136.922L19.4795 137.186L18.2214 140.555L17.514 140.291Z" fill="#0E57FF"/>
  <path d="M16.6546 130.608L16.9704 129.818L21.6361 131.682C22.0526 131.848 22.3757 132.066 22.6057 132.335C22.8357 132.605 22.9705 132.909 23.0101 133.247C23.0498 133.586 22.994 133.944 22.8429 134.322C22.7003 134.679 22.5086 134.971 22.2678 135.198C22.0249 135.423 21.7505 135.567 21.4446 135.63C21.1387 135.693 20.819 135.657 20.4854 135.524L20.7961 134.746C20.981 134.82 21.1607 134.839 21.3353 134.803C21.5086 134.764 21.6658 134.679 21.8068 134.548C21.9478 134.417 22.0595 134.248 22.1418 134.042C22.2326 133.815 22.2621 133.602 22.2301 133.405C22.1982 133.207 22.1063 133.03 21.9546 132.873C21.8016 132.714 21.5902 132.58 21.3203 132.472L16.6546 130.608Z" fill="#0E57FF"/>
  <path d="M24.0834 130.991L17.6113 128.25L19.2655 124.344L19.9607 124.638L18.6385 127.761L20.8253 128.687L22.062 125.767L22.7572 126.061L21.5206 128.981L23.7201 129.913L25.0638 126.74L25.759 127.034L24.0834 130.991Z" fill="#0E57FF"/>
  <path d="M24.6791 121.834C24.3325 121.679 24.0812 121.495 23.9252 121.281C23.7702 121.066 23.6886 120.842 23.6804 120.609C23.6732 120.373 23.7186 120.15 23.8165 119.938C23.9145 119.726 24.051 119.556 24.2263 119.428C24.4004 119.297 24.6373 119.161 24.937 119.019C25.1398 118.924 25.2899 118.845 25.3873 118.781C25.4835 118.715 25.5576 118.626 25.6094 118.514C25.693 118.333 25.6944 118.161 25.6136 117.997C25.5329 117.834 25.3664 117.698 25.1143 117.589L25.4254 116.916C25.774 117.067 26.0258 117.25 26.1808 117.466C26.3359 117.681 26.417 117.906 26.4242 118.142C26.4314 118.377 26.386 118.6 26.288 118.812C26.1901 119.024 26.0562 119.197 25.8862 119.33C25.7142 119.462 25.4746 119.596 25.1676 119.731C24.9676 119.82 24.819 119.899 24.7218 119.967C24.6226 120.035 24.547 120.125 24.4951 120.237C24.4174 120.405 24.4112 120.571 24.4766 120.735C24.542 120.899 24.7132 121.041 24.9902 121.161L24.6791 121.834ZM26.5606 122.704C26.214 122.549 25.9627 122.365 25.8067 122.151C25.6517 121.936 25.5701 121.712 25.5619 121.479C25.5547 121.243 25.6001 121.02 25.698 120.808C25.796 120.596 25.9326 120.426 26.1078 120.298C26.2819 120.167 26.5188 120.03 26.8185 119.889C27.0213 119.794 27.1714 119.715 27.2688 119.651C27.365 119.585 27.4391 119.496 27.4909 119.383C27.5745 119.203 27.5759 119.031 27.4951 118.867C27.4144 118.704 27.2479 118.568 26.9959 118.459L27.3069 117.786C27.6555 117.937 27.9073 118.12 28.0623 118.336C28.2174 118.551 28.2985 118.776 28.3057 119.012C28.3129 119.247 28.2675 119.47 28.1696 119.682C28.0716 119.894 27.9377 120.066 27.7677 120.2C27.5957 120.332 27.3562 120.466 27.0491 120.601C26.8491 120.69 26.7005 120.769 26.6033 120.837C26.5041 120.905 26.4285 120.994 26.3767 121.107C26.2989 121.275 26.2927 121.441 26.3581 121.605C26.4235 121.769 26.5947 121.911 26.8717 122.031L26.5606 122.704Z" fill="#0E57FF"/>
  <path d="M26.8996 108.128L27.2815 107.367L31.4405 109.455C31.8698 109.671 32.2024 109.965 32.4382 110.336C32.6729 110.705 32.7955 111.121 32.806 111.585C32.8144 112.047 32.695 112.525 32.4476 113.018C32.2002 113.51 31.8885 113.892 31.5125 114.161C31.1345 114.43 30.727 114.581 30.2901 114.615C29.8521 114.646 29.4184 114.554 28.989 114.338L24.8301 112.25L25.212 111.489L29.3096 113.547C29.6163 113.701 29.9231 113.77 30.2301 113.755C30.535 113.739 30.8186 113.641 31.0809 113.46C31.3421 113.277 31.5605 113.01 31.736 112.66C31.9115 112.311 31.995 111.976 31.9863 111.657C31.9756 111.337 31.885 111.051 31.7145 110.799C31.543 110.544 31.3039 110.339 30.9972 110.185L26.8996 108.128Z" fill="#0E57FF"/>
  <path d="M30.8505 100.629L37.0474 103.945L36.6588 104.672L29.9861 105.445L29.9537 105.505L34.8193 108.109L34.4177 108.859L28.2207 105.543L28.6093 104.817L35.3007 104.038L35.3331 103.978L30.4554 101.367L30.8505 100.629Z" fill="#0E57FF"/>
  <path d="M32.9552 96.8719L39.0775 100.324L38.6594 101.065L32.5371 97.6133L32.9552 96.8719Z" fill="#0E57FF"/>
  <path d="M34.3548 95.9126L33.7031 95.5312L36.3656 90.9816L37.0173 91.363L35.901 93.2705L41.3155 96.4391L40.8856 97.1737L35.4711 94.0051L34.3548 95.9126Z" fill="#0E57FF"/>
  <path d="M43.2304 93.2066L37.2441 89.5234L39.467 85.9107L40.11 86.3063L38.3332 89.1942L40.3559 90.4387L42.0176 87.7379L42.6607 88.1335L40.9989 90.8343L43.0333 92.086L44.8389 89.1514L45.482 89.547L43.2304 93.2066Z" fill="#0E57FF"/>
  <path d="M47.5519 86.289L47.0615 87.0345L42.6078 81.0157L43.0906 80.2817L50.3809 81.9882L49.8906 82.7337L43.7932 81.2369L43.7631 81.2827L47.5519 86.289ZM45.4392 84.5049L47.4157 81.5001L48.0465 81.915L46.0699 84.9199L45.4392 84.5049Z" fill="#0E57FF"/>
  <path d="M51.0733 80.9694L45.2891 76.9766L45.7726 76.2761L50.9355 79.84L52.7915 77.1513L53.4129 77.5802L51.0733 80.9694Z" fill="#0E57FF"/>
  <path d="M50.3862 69.728L56.3835 71.5699L56.4325 71.5036L52.9174 66.3071L53.4482 65.5898L57.5632 71.845L57.0406 72.5513L49.8555 70.4453L50.3862 69.728Z" fill="#0E57FF"/>
  <path d="M54.373 64.4024L59.9529 68.6763L59.4353 69.352L53.8555 65.0781L54.373 64.4024Z" fill="#0E57FF"/>
  <path d="M61.2943 66.9186L60.7385 67.6166L56.8479 61.2194L57.3952 60.5321L64.5011 62.8916L63.9453 63.5896L58.0085 61.5469L57.9743 61.5899L61.2943 66.9186ZM59.3518 64.9506L61.5923 62.137L62.1829 62.6074L59.9424 65.4209L59.3518 64.9506Z" fill="#0E57FF"/>
  <path d="M61.9091 55.033L62.4561 54.3809L66.3053 57.61C66.6489 57.8982 66.8878 58.2062 67.0221 58.5338C67.1563 58.8615 67.1894 59.1923 67.1212 59.5264C67.053 59.8604 66.8881 60.1834 66.6263 60.4954C66.3793 60.7899 66.106 61.0071 65.8064 61.147C65.5051 61.2855 65.1994 61.3366 64.8893 61.3004C64.5792 61.2643 64.2866 61.1308 64.0114 60.8999L64.5495 60.2584C64.702 60.3863 64.8669 60.4604 65.044 60.4806C65.2209 60.4975 65.3968 60.4659 65.5716 60.3856C65.7465 60.3053 65.9053 60.1802 66.0479 60.0102C66.2052 59.8226 66.2996 59.63 66.331 59.4324C66.3624 59.2347 66.3305 59.0378 66.2354 58.8415C66.1399 58.642 65.9809 58.4488 65.7583 58.2621L61.9091 55.033Z" fill="#0E57FF"/>
  <path d="M69.0374 57.4957L63.7617 52.8516L66.5645 49.6676L67.1312 50.1665L64.8908 52.7116L66.6734 54.2808L68.7687 51.9006L69.3354 52.3995L67.2401 54.7797L69.033 56.358L71.3098 53.7717L71.8765 54.2705L69.0374 57.4957Z" fill="#0E57FF"/>
  <path d="M72.2308 49.2901C71.9523 49.0318 71.7733 48.7767 71.694 48.5247C71.6163 48.271 71.6109 48.0324 71.678 47.809C71.7466 47.5839 71.8613 47.3867 72.022 47.2175C72.1827 47.0483 72.3665 46.931 72.5736 46.8658C72.7806 46.7973 73.0487 46.7443 73.3779 46.7067C73.6006 46.6815 73.7682 46.6545 73.8807 46.6257C73.9932 46.5937 74.092 46.5328 74.177 46.4433C74.3141 46.2989 74.3706 46.1364 74.3465 45.9558C74.3224 45.7752 74.2085 45.5928 74.0047 45.4087L74.5151 44.8712C74.7968 45.1261 74.9766 45.3804 75.0543 45.6341C75.1321 45.8878 75.1366 46.1272 75.068 46.3523C74.9994 46.5774 74.8847 46.7745 74.724 46.9438C74.5633 47.113 74.3811 47.2334 74.1774 47.305C73.9721 47.3751 73.7023 47.4249 73.3681 47.4546C73.1501 47.4748 72.9841 47.5017 72.8701 47.5354C72.7544 47.5675 72.654 47.6284 72.5689 47.718C72.4413 47.8524 72.3822 48.0076 72.3916 48.1838C72.401 48.36 72.5176 48.5495 72.7413 48.7525L72.2308 49.2901ZM73.7339 50.7175C73.4554 50.4592 73.2765 50.2041 73.1971 49.9521C73.1194 49.6984 73.114 49.4598 73.1811 49.2364C73.2497 49.0113 73.3644 48.8141 73.5251 48.6449C73.6858 48.4757 73.8696 48.3584 74.0767 48.2932C74.2837 48.2247 74.5518 48.1717 74.881 48.1341C75.1037 48.1089 75.2713 48.0819 75.3838 48.0531C75.4963 48.0211 75.5951 47.9603 75.6801 47.8707C75.8172 47.7263 75.8737 47.5638 75.8496 47.3832C75.8255 47.2026 75.7116 47.0202 75.5078 46.8361L76.0182 46.2986C76.2999 46.5535 76.4797 46.8078 76.5574 47.0615C76.6352 47.3152 76.6397 47.5546 76.5711 47.7797C76.5025 48.0048 76.3878 48.202 76.2271 48.3712C76.0664 48.5404 75.8842 48.6608 75.6805 48.7324C75.4752 48.8025 75.2054 48.8523 74.8712 48.882C74.6532 48.9022 74.4872 48.9291 74.3732 48.9628C74.2575 48.995 74.1571 49.0558 74.072 49.1454C73.9444 49.2798 73.8853 49.4351 73.8947 49.6112C73.9041 49.7874 74.0207 49.9769 74.2444 50.1799L73.7339 50.7175Z" fill="#0E57FF"/>
  <path d="M79.1695 36.6768L79.7821 36.0859L83.0128 39.4354C83.3463 39.7812 83.5626 40.1686 83.6617 40.5976C83.7608 41.0233 83.7384 41.4566 83.5945 41.8973C83.4491 42.3364 83.1779 42.7474 82.781 43.1302C82.3842 43.513 81.9637 43.7691 81.5196 43.8986C81.074 44.0265 80.6394 44.034 80.2158 43.9212C79.7924 43.8052 79.4139 43.5742 79.0803 43.2284L75.8496 39.8789L76.4622 39.288L79.6453 42.5881C79.8835 42.8352 80.1499 43.0026 80.4444 43.0904C80.7374 43.1766 81.0375 43.178 81.3448 43.0945C81.6522 43.0079 81.9467 42.8287 82.2283 42.5571C82.5099 42.2855 82.6995 41.9977 82.7973 41.6936C82.8934 41.3879 82.9029 41.0879 82.8256 40.7937C82.7485 40.4962 82.5908 40.2239 82.3525 39.9769L79.1695 36.6768Z" fill="#0E57FF"/>
  <path d="M85.1215 31.2393L89.8148 36.4713L89.2016 37.0213L82.6656 35.4708L82.6145 35.5167L86.2995 39.6246L85.666 40.1929L80.9727 34.9609L81.5858 34.4109L88.1412 35.9624L88.1923 35.9166L84.4981 31.7985L85.1215 31.2393Z" fill="#0E57FF"/>
  <path d="M87.8496 28.9197L92.3834 34.2905L91.733 34.8396L87.1992 29.4688L87.8496 28.9197Z" fill="#0E57FF"/>
  <path d="M89.4602 28.5269L88.9883 27.9375L93.1033 24.6429L93.5752 25.2323L91.8499 26.6136L95.7708 31.511L95.1064 32.0429L91.1855 27.1456L89.4602 28.5269Z" fill="#0E57FF"/>
  <path d="M98.6954 29.2L94.5137 23.5508L97.9231 21.0271L98.3723 21.6339L95.647 23.6513L97.0599 25.5601L99.6087 23.6734L100.058 24.2803L97.5091 26.1669L98.9303 28.0868L101.7 26.0368L102.149 26.6436L98.6954 29.2Z" fill="#0E57FF"/>
  <path d="M106.184 23.8285L105.436 24.3148L103.769 17.0153L104.506 16.5365L110.5 21.0229L109.752 21.5092L104.767 17.6932L104.721 17.7232L106.184 23.8285ZM104.964 21.347L107.98 19.3868L108.391 20.0199L105.376 21.9801L104.964 21.347Z" fill="#0E57FF"/>
  <path d="M111.136 20.6521L107.566 14.5977L108.3 14.1654L111.486 19.5695L114.3 17.91L114.684 18.5604L111.136 20.6521Z" fill="#0E57FF"/>
  <path d="M115.004 10.3837L119.508 14.7512L119.582 14.7145L118.814 8.48786L119.613 8.09034L120.433 15.5326L119.647 15.924L114.205 10.7812L115.004 10.3837Z" fill="#0E57FF"/>
  <path d="M121.546 7.2563L124.397 13.6806L123.619 14.0258L120.768 7.60156L121.546 7.2563Z" fill="#0E57FF"/>
  <path d="M126.486 12.7567L125.653 13.0767L125.542 5.59013L126.362 5.27507L131.292 10.9106L130.459 11.2306L126.376 6.46073L126.325 6.48043L126.486 12.7567ZM125.809 10.0756L129.167 8.78586L129.437 9.49066L126.08 10.7805L125.809 10.0756Z" fill="#0E57FF"/>
  <path d="M132.414 3.21087L133.228 2.9602L134.707 7.76167C134.84 8.19022 134.873 8.57852 134.808 8.92659C134.743 9.27465 134.591 9.57043 134.352 9.81395C134.114 10.0575 133.8 10.2392 133.411 10.3591C133.043 10.4723 132.696 10.5064 132.368 10.4613C132.04 10.414 131.756 10.291 131.515 10.0923C131.274 9.89355 131.101 9.62256 130.995 9.27928L131.795 9.03266C131.854 9.22288 131.952 9.37456 132.09 9.48771C132.229 9.59799 132.394 9.66689 132.585 9.69439C132.775 9.72189 132.976 9.70296 133.188 9.6376C133.422 9.5655 133.606 9.45498 133.74 9.30605C133.873 9.15712 133.954 8.97441 133.98 8.75791C134.008 8.53854 133.98 8.29002 133.894 8.01234L132.414 3.21087Z" fill="#0E57FF"/>
  <path d="M137.358 9.09753L135.824 2.23828L139.964 1.31284L140.129 2.04967L136.82 2.78943L137.338 5.1071L140.432 4.41527L140.597 5.1521L137.502 5.84394L138.024 8.17501L141.386 7.42328L141.551 8.16011L137.358 9.09753Z" fill="#0E57FF"/>
  <path d="M144.794 4.50674C144.758 4.12865 144.794 3.81912 144.902 3.57814C145.013 3.33697 145.168 3.15526 145.366 3.03299C145.567 2.91053 145.784 2.83956 146.017 2.82007C146.249 2.80058 146.464 2.83534 146.663 2.92436C146.863 3.0109 147.098 3.14959 147.369 3.34041C147.552 3.46972 147.695 3.56104 147.798 3.61438C147.904 3.66525 148.018 3.68553 148.141 3.67521C148.339 3.65858 148.49 3.57482 148.592 3.4239C148.694 3.27299 148.73 3.06103 148.7 2.78801L149.439 2.72609C149.48 3.1038 149.445 3.41324 149.334 3.6544C149.224 3.89557 149.068 4.07738 148.867 4.19984C148.666 4.3223 148.449 4.39328 148.216 4.41277C147.984 4.43226 147.768 4.40101 147.568 4.31902C147.368 4.23476 147.134 4.09256 146.864 3.89242C146.688 3.76254 146.546 3.67226 146.439 3.62158C146.331 3.56863 146.215 3.5473 146.092 3.55762C145.908 3.5731 145.76 3.64974 145.65 3.78755C145.54 3.92535 145.501 4.14445 145.533 4.44483L144.794 4.50674ZM144.967 6.57237C144.931 6.19428 144.967 5.88475 145.075 5.64377C145.186 5.40261 145.341 5.22089 145.539 5.09862C145.74 4.97617 145.957 4.90519 146.19 4.8857C146.422 4.86621 146.638 4.90097 146.836 4.98999C147.036 5.07654 147.271 5.21522 147.542 5.40604C147.725 5.53535 147.868 5.62667 147.971 5.68002C148.077 5.73089 148.191 5.75116 148.314 5.74084C148.512 5.72422 148.663 5.64045 148.765 5.48954C148.867 5.33863 148.903 5.12666 148.873 4.85364L149.612 4.79173C149.653 5.16943 149.618 5.47887 149.507 5.72004C149.397 5.96121 149.241 6.14302 149.04 6.26548C148.839 6.38793 148.622 6.45891 148.39 6.4784C148.157 6.49789 147.941 6.46664 147.741 6.38466C147.541 6.30039 147.307 6.15819 147.037 5.95806C146.861 5.82818 146.719 5.7379 146.612 5.68722C146.504 5.63426 146.388 5.61294 146.265 5.62326C146.081 5.63874 145.933 5.71538 145.823 5.85318C145.713 5.99099 145.674 6.21008 145.706 6.51046L144.967 6.57237Z" fill="#0E57FF"/>
  <path d="M158.359 0.537118L159.206 0.615325L158.778 5.24931C158.734 5.72775 158.582 6.14452 158.322 6.49962C158.064 6.85265 157.721 7.11857 157.294 7.29737C156.866 7.47389 156.378 7.53682 155.829 7.48615C155.28 7.43549 154.811 7.28426 154.423 7.03247C154.035 6.7784 153.746 6.45415 153.555 6.0597C153.366 5.66318 153.294 5.2257 153.338 4.74727L153.766 0.113281L154.613 0.191489L154.192 4.75713C154.16 5.09887 154.207 5.40995 154.333 5.69039C154.459 5.96854 154.654 6.19676 154.918 6.37506C155.184 6.55128 155.512 6.65737 155.902 6.69332C156.291 6.72927 156.633 6.68499 156.927 6.56049C157.222 6.4337 157.455 6.245 157.628 5.99439C157.803 5.74171 157.906 5.4445 157.937 5.10276L158.359 0.537118Z" fill="#0E57FF"/>
  <path d="M167.348 2.49846L165.527 9.2871L164.732 9.07374L162.462 2.75144L162.396 2.73366L160.966 8.06381L160.144 7.84333L161.965 1.05469L162.76 1.26805L165.04 7.60716L165.106 7.62494L166.539 2.28154L167.348 2.49846Z" fill="#0E57FF"/>
  <path d="M170.599 3.79805L167.912 10.2927L167.125 9.96727L169.812 3.47266L170.599 3.79805Z" fill="#0E57FF"/>
  <path d="M172.56 5.41759L172.934 4.76172L177.513 7.37307L177.139 8.02894L175.219 6.93408L172.111 12.3838L171.372 11.9621L174.479 6.51245L172.56 5.41759Z" fill="#0E57FF"/>
  <path d="M174.935 14.121L179.316 8.625L182.633 11.2691L182.163 11.8595L179.511 9.74592L178.031 11.603L180.511 13.5796L180.04 14.17L177.56 12.1934L176.071 14.0611L178.766 16.2089L178.295 16.7993L174.935 14.121Z" fill="#0E57FF"/>
  <path d="M180.966 19.4186L180.394 18.7335L187.444 16.212L188.007 16.8866L184.264 23.3712L183.692 22.6861L186.89 17.2828L186.855 17.2406L180.966 19.4186ZM183.285 17.9126L185.589 20.6741L185.01 21.1578L182.705 18.3963L183.285 17.9126Z" fill="#0E57FF"/>
  <path d="M184.542 23.8488L190.443 20.0312L190.906 20.7459L185.638 24.1534L187.413 26.8966L186.779 27.3067L184.542 23.8488Z" fill="#0E57FF"/>
  <path d="M194.872 27.5236L190.345 31.8669L190.379 31.9419L196.629 31.3995L196.998 32.2122L189.531 32.7636L189.168 31.9634L194.504 26.7109L194.872 27.5236Z" fill="#0E57FF"/>
  <path d="M197.953 34.9014L191.348 37.3044L191.057 36.5046L197.662 34.1016L197.953 34.9014Z" fill="#0E57FF"/>
  <path d="M191.931 38.9033L191.678 38.0476L199.15 38.5296L199.399 39.3721L193.391 43.8399L193.138 42.9842L198.216 39.2924L198.2 39.2398L191.931 38.9033ZM194.657 38.4408L195.677 41.8898L194.953 42.1039L193.933 38.6548L194.657 38.4408Z" fill="#0E57FF"/>
  <path d="M201.071 46.1073L201.251 46.9391L196.341 48.0042C195.903 48.0993 195.513 48.0995 195.172 48.005C194.831 47.9104 194.549 47.7339 194.326 47.4755C194.104 47.217 193.95 46.8888 193.864 46.4908C193.782 46.1151 193.778 45.7661 193.851 45.4436C193.926 45.1206 194.072 44.8476 194.291 44.6246C194.51 44.4016 194.794 44.2521 195.145 44.1759L195.323 44.9943C195.128 45.0365 194.969 45.1214 194.844 45.2491C194.723 45.3785 194.64 45.5369 194.596 45.7243C194.553 45.9117 194.554 46.1138 194.601 46.3307C194.653 46.5699 194.748 46.7625 194.885 46.9084C195.022 47.0542 195.197 47.1497 195.41 47.1947C195.627 47.2414 195.877 47.234 196.161 47.1724L201.071 46.1073Z" fill="#0E57FF"/>
  <path d="M194.687 50.0226L201.633 48.9453L202.283 53.137L201.537 53.2528L201.017 49.9021L198.67 50.2661L199.156 53.3997L198.41 53.5155L197.924 50.3818L195.564 50.748L196.092 54.1529L195.346 54.2686L194.687 50.0226Z" fill="#0E57FF"/>
  <path d="M198.888 58.1785C199.267 58.147 199.576 58.187 199.815 58.2984C200.055 58.4121 200.235 58.5691 200.355 58.7693C200.474 58.9718 200.543 59.1895 200.559 59.4223C200.576 59.655 200.538 59.8699 200.447 60.0668C200.358 60.2658 200.216 60.4995 200.022 60.7679C199.89 60.9492 199.797 61.0912 199.742 61.1937C199.69 61.2983 199.668 61.4123 199.677 61.5355C199.691 61.7341 199.773 61.8854 199.923 61.9894C200.072 62.0935 200.284 62.1323 200.557 62.106L200.61 62.8455C200.232 62.8815 199.923 62.8427 199.683 62.729C199.443 62.6153 199.263 62.4572 199.143 62.2547C199.023 62.0522 198.955 61.8345 198.939 61.6017C198.922 61.369 198.956 61.1532 199.041 60.9545C199.127 60.7557 199.273 60.5229 199.476 60.2561C199.608 60.0816 199.7 59.9409 199.752 59.834C199.807 59.7269 199.83 59.6117 199.821 59.4885C199.808 59.3036 199.733 59.1553 199.596 59.0434C199.46 58.9315 199.241 58.8897 198.941 58.918L198.888 58.1785ZM196.821 58.3254C197.199 58.2939 197.508 58.3339 197.748 58.4453C197.987 58.5591 198.167 58.716 198.287 58.9162C198.407 59.1187 198.475 59.3364 198.492 59.5692C198.508 59.8019 198.471 60.0168 198.379 60.2137C198.29 60.4127 198.148 60.6464 197.954 60.9148C197.822 61.0961 197.729 61.2381 197.675 61.3406C197.622 61.4452 197.601 61.5592 197.61 61.6824C197.624 61.881 197.705 62.0323 197.855 62.1363C198.005 62.2404 198.216 62.2793 198.49 62.2529L198.542 62.9924C198.164 63.0284 197.855 62.9896 197.615 62.8759C197.375 62.7622 197.196 62.6041 197.076 62.4016C196.956 62.1991 196.888 61.9814 196.871 61.7486C196.855 61.5159 196.889 61.3001 196.973 61.1014C197.06 60.9026 197.205 60.6698 197.409 60.403C197.541 60.2285 197.633 60.0878 197.685 59.9809C197.739 59.8738 197.762 59.7586 197.753 59.6354C197.74 59.4505 197.665 59.3022 197.529 59.1903C197.392 59.0784 197.174 59.0366 196.873 59.0649L196.821 58.3254Z" fill="#0E57FF"/>
  <path d="M203.311 71.5148L203.311 72.366L198.658 72.3649C198.177 72.3648 197.748 72.2515 197.371 72.0249C196.996 71.8006 196.699 71.4837 196.482 71.0741C196.267 70.6645 196.16 70.184 196.16 69.6326C196.16 69.0812 196.268 68.6008 196.483 68.1913C196.7 67.7818 196.997 67.4638 197.372 67.2374C197.749 67.0132 198.178 66.9012 198.659 66.9013L203.312 66.9023L203.312 67.7535L198.727 67.7525C198.384 67.7524 198.079 67.8278 197.811 67.9788C197.545 68.1297 197.336 68.3447 197.183 68.6238C197.032 68.9052 196.956 69.2415 196.956 69.6328C196.956 70.024 197.031 70.3603 197.182 70.6418C197.336 70.9232 197.545 71.1384 197.81 71.2871C198.078 71.4382 198.383 71.5138 198.726 71.5138L203.311 71.5148Z" fill="#0E57FF"/>
  <path d="M202.944 80.3779L195.926 80.0019L195.97 79.1795L201.685 75.6502L201.689 75.5816L196.178 75.2864L196.224 74.4365L203.242 74.8125L203.198 75.635L197.468 79.1773L197.464 79.2458L202.989 79.5418L202.944 80.3779Z" fill="#0E57FF"/>
  <path d="M202.67 83.4729L195.668 82.8623L195.742 82.0144L202.744 82.625L202.67 83.4729Z" fill="#0E57FF"/>
  <path d="M201.785 85.0041L202.535 85.0898L201.937 90.3272L201.187 90.2415L201.437 88.0456L195.204 87.3334L195.301 86.4878L201.534 87.2L201.785 85.0041Z" fill="#0E57FF"/>
  <path d="M194.718 91.2168L201.668 92.2656L201.035 96.46L200.288 96.3473L200.794 92.9945L198.446 92.6402L197.973 95.7758L197.226 95.6631L197.7 92.5275L195.338 92.1711L194.824 95.5781L194.077 95.4655L194.718 91.2168Z" fill="#0E57FF"/>
  <path d="M193.365 99.5176L193.537 98.642L199.936 102.529L199.767 103.391L192.373 104.569L192.545 103.693L198.755 102.772L198.766 102.718L193.365 99.5176ZM195.995 100.37L195.303 103.899L194.562 103.754L195.255 100.224L195.995 100.37Z" fill="#0E57FF"/>
  <path d="M192.158 105.495L199.014 107.043L198.826 107.873L192.707 106.491L191.987 109.678L191.251 109.512L192.158 105.495Z" fill="#0E57FF"/>
  <path d="M197.073 115.233L190.818 115.724L190.797 115.804L195.976 119.345L195.746 120.207L189.62 115.902L189.846 115.053L197.303 114.371L197.073 115.233Z" fill="#0E57FF"/>
  <path d="M195.026 122.634L188.277 120.672L188.514 119.855L195.264 121.816L195.026 122.634Z" fill="#0E57FF"/>
  <path d="M187.685 122.696L187.95 121.845L193.892 126.401L193.63 127.24L186.152 127.611L186.418 126.759L192.691 126.516L192.708 126.463L187.685 122.696ZM190.208 123.828L189.137 127.262L188.416 127.037L189.487 123.604L190.208 123.828Z" fill="#0E57FF"/>
  <path d="M191.623 133.361L191.35 134.167L186.59 132.559C186.165 132.415 185.831 132.215 185.587 131.959C185.342 131.703 185.191 131.406 185.133 131.07C185.075 130.734 185.112 130.374 185.242 129.988C185.365 129.624 185.541 129.322 185.769 129.083C185.999 128.844 186.265 128.685 186.567 128.606C186.869 128.527 187.191 128.545 187.531 128.66L187.263 129.453C187.074 129.39 186.894 129.381 186.721 129.426C186.55 129.475 186.398 129.568 186.264 129.707C186.131 129.845 186.028 130.019 185.957 130.229C185.879 130.461 185.861 130.675 185.904 130.871C185.946 131.066 186.048 131.238 186.208 131.386C186.369 131.537 186.587 131.66 186.863 131.753L191.623 133.361Z" fill="#0E57FF"/>
  <path d="M184.044 133.76L190.648 136.164L189.198 140.15L188.488 139.892L189.648 136.706L187.416 135.894L186.332 138.873L185.622 138.615L186.707 135.635L184.462 134.818L183.284 138.056L182.574 137.798L184.044 133.76Z" fill="#0E57FF"/>
  <path d="M184.018 142.654C184.372 142.791 184.632 142.962 184.799 143.167C184.964 143.375 185.057 143.594 185.077 143.827C185.096 144.061 185.063 144.287 184.976 144.503C184.888 144.72 184.761 144.897 184.592 145.034C184.425 145.174 184.195 145.322 183.903 145.478C183.706 145.583 183.56 145.67 183.466 145.739C183.373 145.81 183.303 145.903 183.257 146.017C183.183 146.202 183.191 146.374 183.279 146.533C183.368 146.692 183.542 146.819 183.799 146.916L183.522 147.603C183.167 147.47 182.906 147.3 182.74 147.093C182.574 146.886 182.482 146.665 182.463 146.43C182.444 146.196 182.477 145.97 182.564 145.754C182.652 145.537 182.776 145.358 182.939 145.216C183.105 145.076 183.337 144.93 183.637 144.779C183.832 144.68 183.976 144.594 184.07 144.52C184.166 144.448 184.236 144.354 184.283 144.24C184.352 144.068 184.349 143.902 184.276 143.741C184.202 143.581 184.024 143.448 183.741 143.341L184.018 142.654ZM182.094 141.881C182.448 142.018 182.709 142.189 182.875 142.394C183.041 142.601 183.134 142.821 183.154 143.054C183.173 143.288 183.139 143.514 183.052 143.73C182.965 143.947 182.837 144.124 182.669 144.261C182.502 144.401 182.272 144.549 181.98 144.705C181.782 144.81 181.636 144.897 181.542 144.965C181.45 145.037 181.38 145.13 181.334 145.244C181.26 145.429 181.267 145.601 181.356 145.76C181.445 145.919 181.618 146.046 181.876 146.142L181.599 146.83C181.243 146.697 180.982 146.527 180.817 146.32C180.651 146.113 180.558 145.892 180.539 145.657C180.52 145.423 180.554 145.197 180.641 144.981C180.728 144.764 180.853 144.585 181.016 144.443C181.181 144.303 181.414 144.157 181.713 144.006C181.909 143.907 182.053 143.821 182.147 143.747C182.242 143.675 182.313 143.581 182.359 143.467C182.428 143.295 182.426 143.129 182.352 142.968C182.279 142.808 182.101 142.675 181.818 142.568L182.094 141.881Z" fill="#0E57FF"/>
  <path d="M172.685 167.935C173.034 168.085 173.289 168.265 173.448 168.476C173.607 168.689 173.692 168.911 173.704 169.144C173.715 169.379 173.673 169.604 173.579 169.817C173.484 170.03 173.35 170.203 173.177 170.334C173.005 170.468 172.77 170.608 172.473 170.754C172.272 170.852 172.123 170.934 172.027 170.999C171.932 171.067 171.859 171.157 171.809 171.27C171.728 171.452 171.73 171.624 171.813 171.787C171.897 171.949 172.065 172.082 172.319 172.187L172.019 172.865C171.668 172.719 171.413 172.54 171.255 172.327C171.096 172.115 171.011 171.891 171 171.656C170.989 171.42 171.031 171.196 171.126 170.983C171.22 170.769 171.351 170.595 171.519 170.459C171.689 170.324 171.926 170.186 172.231 170.046C172.43 169.954 172.577 169.873 172.673 169.803C172.771 169.734 172.845 169.642 172.895 169.529C172.97 169.36 172.974 169.194 172.906 169.031C172.838 168.868 172.664 168.729 172.385 168.613L172.685 167.935ZM170.79 167.096C171.139 167.246 171.393 167.426 171.553 167.636C171.711 167.849 171.796 168.072 171.808 168.305C171.819 168.54 171.778 168.764 171.683 168.978C171.589 169.191 171.455 169.363 171.282 169.494C171.11 169.628 170.875 169.768 170.578 169.915C170.376 170.013 170.228 170.095 170.131 170.16C170.036 170.228 169.964 170.318 169.914 170.431C169.833 170.613 169.834 170.785 169.918 170.947C170.001 171.109 170.17 171.243 170.424 171.348L170.123 172.025C169.772 171.88 169.518 171.701 169.359 171.488C169.201 171.275 169.116 171.051 169.105 170.816C169.094 170.581 169.136 170.357 169.23 170.144C169.325 169.93 169.456 169.756 169.624 169.62C169.793 169.485 170.031 169.347 170.336 169.207C170.534 169.115 170.681 169.033 170.778 168.963C170.876 168.894 170.95 168.803 171 168.69C171.075 168.521 171.078 168.355 171.01 168.192C170.942 168.029 170.769 167.89 170.49 167.774L170.79 167.096Z" fill="#0E57FF"/>
  <g filter="url(#filter0_d_260_594)">
    <path d="M180.4 153.078L180.433 153.093C179.95 154.18 179.605 155.228 179.463 156.087L179.456 156.103C179.365 156.624 179.576 157.138 179.967 157.472L179.984 157.48C180.663 158.021 181.62 158.566 182.705 159.048L182.69 159.082C181.605 158.6 180.559 158.255 179.702 158.115L179.685 158.108C179.165 158.017 178.651 158.229 178.31 158.639L178.302 158.655C177.768 159.319 177.222 160.278 176.739 161.366L176.706 161.351C177.188 160.264 177.534 159.215 177.676 158.357L177.683 158.34C177.774 157.82 177.563 157.305 177.147 156.981L177.131 156.973C176.452 156.432 175.495 155.886 174.41 155.404L174.424 155.371C175.509 155.853 176.556 156.198 177.413 156.338L177.43 156.345C177.949 156.436 178.463 156.224 178.797 155.831L178.805 155.815C179.347 155.134 179.893 154.175 180.375 153.087L180.4 153.078Z" fill="#0E57FF"/>
  </g>
  <g filter="url(#filter1_d_260_594)">
    <path fill-rule="evenodd" clip-rule="evenodd" d="M174.011 155.557L174.271 154.971L174.547 155.094C175.618 155.57 176.639 155.904 177.462 156.039L177.5 156.045L177.516 156.052C177.896 156.106 178.277 155.955 178.54 155.665L178.544 155.656L178.569 155.625C179.089 154.972 179.623 154.037 180.1 152.964L180.15 152.851L180.407 152.749L180.832 152.938L180.709 153.214C180.232 154.288 179.897 155.31 179.761 156.135L179.755 156.173L179.748 156.189C179.694 156.57 179.844 156.951 180.132 157.214L180.142 157.218L180.172 157.242C180.824 157.763 181.756 158.295 182.828 158.771L183.104 158.894L182.844 159.479L182.568 159.357C181.496 158.881 180.476 158.547 179.653 158.412L179.615 158.406L179.599 158.399C179.22 158.345 178.838 158.496 178.568 158.801L178.562 158.813L178.538 158.844C178.025 159.48 177.492 160.413 177.015 161.487L176.892 161.763L176.307 161.503L176.43 161.227C176.906 160.154 177.242 159.131 177.378 158.307L177.384 158.269L177.391 158.253C177.446 157.871 177.294 157.492 176.989 157.24L176.973 157.233L176.942 157.208C176.291 156.688 175.359 156.155 174.287 155.679L174.011 155.557ZM177.288 156.712L177.304 156.719L177.333 156.742C177.832 157.132 178.092 157.755 177.981 158.391L177.974 158.428L177.967 158.443C177.956 158.508 177.944 158.573 177.931 158.64C177.968 158.59 178.005 158.542 178.042 158.496L178.051 158.476L178.078 158.444C178.482 157.96 179.1 157.698 179.737 157.809L179.774 157.815L179.789 157.822C179.852 157.833 179.916 157.845 179.981 157.857C179.928 157.818 179.876 157.778 179.826 157.739L179.805 157.729L179.771 157.701C179.306 157.304 179.047 156.685 179.158 156.05L179.165 156.014L179.172 155.998C179.184 155.925 179.198 155.852 179.213 155.777C179.164 155.844 179.115 155.908 179.065 155.971L179.056 155.993L179.027 156.026C178.631 156.492 178.012 156.752 177.378 156.642L177.341 156.635L177.326 156.628C177.263 156.618 177.199 156.606 177.134 156.593C177.187 156.633 177.238 156.672 177.288 156.712Z" fill="#0E57FF"/>
  </g>
  <defs>
    <filter id="filter0_d_260_594" x="155.409" y="134.078" width="46.2959" height="46.2877" filterUnits="userSpaceOnUse" color-interpolation-filters="sRGB">
      <feFlood flood-opacity="0" result="BackgroundImageFix"/>
      <feColorMatrix in="SourceAlpha" type="matrix" values="0 0 0 0 0 0 0 0 0 0 0 0 0 0 0 0 0 0 127 0" result="hardAlpha"/>
      <feOffset/>
      <feGaussianBlur stdDeviation="9.5"/>
      <feComposite in2="hardAlpha" operator="out"/>
      <feColorMatrix type="matrix" values="0 0 0 0 0 0 0 0 0 0.231373 0 0 0 0 0.764706 0 0 0 0.5 0"/>
      <feBlend mode="normal" in2="BackgroundImageFix" result="effect1_dropShadow_260_594"/>
      <feBlend mode="normal" in="SourceGraphic" in2="effect1_dropShadow_260_594" result="shape"/>
    </filter>
    <filter id="filter1_d_260_594" x="155.011" y="133.749" width="47.0928" height="47.0138" filterUnits="userSpaceOnUse" color-interpolation-filters="sRGB">
      <feFlood flood-opacity="0" result="BackgroundImageFix"/>
      <feColorMatrix in="SourceAlpha" type="matrix" values="0 0 0 0 0 0 0 0 0 0 0 0 0 0 0 0 0 0 127 0" result="hardAlpha"/>
      <feOffset/>
      <feGaussianBlur stdDeviation="9.5"/>
      <feComposite in2="hardAlpha" operator="out"/>
      <feColorMatrix type="matrix" values="0 0 0 0 0 0 0 0 0 0.231373 0 0 0 0 0.764706 0 0 0 0.5 0"/>
      <feBlend mode="normal" in2="BackgroundImageFix" result="effect1_dropShadow_260_594"/>
      <feBlend mode="normal" in="SourceGraphic" in2="effect1_dropShadow_260_594" result="shape"/>
    </filter>
  </defs>
</svg>
