<svg xmlns="http://www.w3.org/2000/svg" fill="none" viewBox="0 0 1455 349">
  <path fill="#0E57FF" d="M728.666 4.455h3.444l3.317 6.264h.142l3.317-6.264h3.445l-5.306 9.403V19h-3.054v-5.142l-5.305-9.403ZM898.641 180v-14.545h9.801v2.535h-6.726v3.466h6.222v2.535h-6.222v3.473h6.755V180h-9.83ZM743.577 329.455V344h-2.656l-6.328-9.155h-.107V344h-3.075v-14.545h2.699l6.278 9.147h.128v-9.147h3.061Z"/>
  <path stroke="#0E57FF" d="m691.537 6.386 89.422 333.727M649.875 23.64l172.75 299.212M614.096 51.097l244.305 244.305M586.643 86.875l299.211 172.75M569.385 128.539l333.727 89.422M736 39l.5 268.5M780.961 6.386l-89.422 333.727M822.625 23.64l-172.75 299.212M858.402 51.097 614.097 295.402M885.855 86.875l-299.211 172.75M903.113 128.539l-333.727 89.422M879 173H564"/>
  <g filter="url(#a)">
    <path fill="#0E57FF" d="M68 298.5v.19c-6.171 0-11.869.568-16.237 1.705h-.094c-2.659.664-4.653 2.748-5.413 5.306v.095c-1.14 4.359-1.709 10.044-1.709 16.204h-.19c0-6.159-.569-11.845-1.708-16.204v-.095c-.665-2.653-2.753-4.643-5.412-5.401h-.095c-4.273-1.137-9.97-1.705-16.142-1.705v-.19c6.171 0 11.869-.568 16.237-1.705h.094c2.659-.663 4.653-2.748 5.317-5.401v-.095c1.14-4.359 1.71-10.044 1.71-16.204h.189c0 6.159.57 11.845 1.708 16.204v.095c.665 2.653 2.754 4.643 5.317 5.401h.095c4.368 1.137 10.065 1.705 16.237 1.705l.096.095Z"/>
    <path stroke="#0E57FF" stroke-width="3" d="M68 298.5v.19c-6.171 0-11.869.568-16.237 1.705h-.094c-2.659.664-4.653 2.748-5.413 5.306v.095c-1.14 4.359-1.709 10.044-1.709 16.204h-.19c0-6.159-.569-11.845-1.708-16.204v-.095c-.665-2.653-2.753-4.643-5.412-5.401h-.095c-4.273-1.137-9.97-1.705-16.142-1.705v-.19c6.171 0 11.869-.568 16.237-1.705h.094c2.659-.663 4.653-2.748 5.317-5.401v-.095c1.14-4.359 1.71-10.044 1.71-16.204h.189c0 6.159.57 11.845 1.708 16.204v.095c.665 2.653 2.754 4.643 5.317 5.401h.095c4.368 1.137 10.065 1.705 16.237 1.705l.096.095Z"/>
  </g>
  <g filter="url(#b)">
    <path fill="#0E57FF" d="M1198 128.5v.19c-6.17 0-11.87.568-16.24 1.705h-.09c-2.66.664-4.65 2.748-5.41 5.306v.095c-1.14 4.359-1.71 10.044-1.71 16.204h-.19c0-6.159-.57-11.845-1.71-16.204v-.095c-.67-2.653-2.75-4.643-5.41-5.401h-.1c-4.27-1.137-9.97-1.705-16.14-1.705v-.19c6.17 0 11.87-.568 16.24-1.705h.09c2.66-.663 4.65-2.748 5.32-5.401v-.095c1.14-4.359 1.71-10.044 1.71-16.204h.19c0 6.159.57 11.845 1.71 16.204v.095c.66 2.653 2.75 4.643 5.31 5.401h.1c4.37 1.137 10.06 1.705 16.23 1.705l.1.095Z"/>
    <path stroke="#0E57FF" stroke-width="3" d="M1198 128.5v.19c-6.17 0-11.87.568-16.24 1.705h-.09c-2.66.664-4.65 2.748-5.41 5.306v.095c-1.14 4.359-1.71 10.044-1.71 16.204h-.19c0-6.159-.57-11.845-1.71-16.204v-.095c-.67-2.653-2.75-4.643-5.41-5.401h-.1c-4.27-1.137-9.97-1.705-16.14-1.705v-.19c6.17 0 11.87-.568 16.24-1.705h.09c2.66-.663 4.65-2.748 5.32-5.401v-.095c1.14-4.359 1.71-10.044 1.71-16.204h.19c0 6.159.57 11.845 1.71 16.204v.095c.66 2.653 2.75 4.643 5.31 5.401h.1c4.37 1.137 10.06 1.705 16.23 1.705l.1.095Z"/>
  </g>
  <path fill="#0E57FF" d="M10.005 335.2c1.96 0 3.13-1.56 3.13-3.7s-1.17-3.7-3.13-3.7-3.13 1.56-3.13 3.7 1.17 3.7 3.13 3.7ZM270.005 135.2c1.96 0 3.13-1.56 3.13-3.7s-1.17-3.7-3.13-3.7-3.13 1.56-3.13 3.7 1.17 3.7 3.13 3.7ZM1451.01 220.2c1.96 0 3.13-1.56 3.13-3.7s-1.17-3.7-3.13-3.7-3.13 1.56-3.13 3.7 1.17 3.7 3.13 3.7ZM1096.01 331.2c1.96 0 3.13-1.56 3.13-3.7s-1.17-3.7-3.13-3.7-3.13 1.56-3.13 3.7 1.17 3.7 3.13 3.7Z"/>
  <defs>
    <filter id="a" width="88" height="88" x=".5" y="254.5" color-interpolation-filters="sRGB" filterUnits="userSpaceOnUse">
      <feFlood flood-opacity="0" result="BackgroundImageFix"/>
      <feColorMatrix in="SourceAlpha" result="hardAlpha" values="0 0 0 0 0 0 0 0 0 0 0 0 0 0 0 0 0 0 127 0"/>
      <feOffset/>
      <feGaussianBlur stdDeviation="9.5"/>
      <feComposite in2="hardAlpha" operator="out"/>
      <feColorMatrix values="0 0 0 0 0 0 0 0 0 0.231373 0 0 0 0 0.764706 0 0 0 0.5 0"/>
      <feBlend in2="BackgroundImageFix" result="effect1_dropShadow_155_2"/>
      <feBlend in="SourceGraphic" in2="effect1_dropShadow_155_2" result="shape"/>
    </filter>
    <filter id="b" width="88" height="88" x="1130.5" y="84.5" color-interpolation-filters="sRGB" filterUnits="userSpaceOnUse">
      <feFlood flood-opacity="0" result="BackgroundImageFix"/>
      <feColorMatrix in="SourceAlpha" result="hardAlpha" values="0 0 0 0 0 0 0 0 0 0 0 0 0 0 0 0 0 0 127 0"/>
      <feOffset/>
      <feGaussianBlur stdDeviation="9.5"/>
      <feComposite in2="hardAlpha" operator="out"/>
      <feColorMatrix values="0 0 0 0 0 0 0 0 0 0.231373 0 0 0 0 0.764706 0 0 0 0.5 0"/>
      <feBlend in2="BackgroundImageFix" result="effect1_dropShadow_155_2"/>
      <feBlend in="SourceGraphic" in2="effect1_dropShadow_155_2" result="shape"/>
    </filter>
  </defs>
</svg>