<svg xmlns="http://www.w3.org/2000/svg" fill="none" viewBox="0 0 142.56 54">
  <path fill="#0E57FF" fill-rule="evenodd" d="M29.848 0h.763v.372c0 .567.053 1.074.15 1.447l.012.046v.002a.356.356 0 0 0 .207.2l.03.008c.373.098.88.15 1.45.15h.152l.229.226v.546h-.373c-.568 0-1.076.053-1.45.15l-.046.013h-.002a.355.355 0 0 0-.201.206l-.008.029c-.097.373-.15.88-.15 1.446v.373h-.763V4.84c0-.567-.053-1.073-.15-1.446l-.013-.047v-.001a.35.35 0 0 0-.207-.199l-.04-.01c-.363-.097-.87-.15-1.439-.15h-.372v-.763h.372c.569 0 1.076-.052 1.45-.15l.047-.012h.001a.323.323 0 0 0 .188-.195v-.003l.013-.046c.097-.373.15-.88.15-1.447V0ZM25.75 4.844h.763v.372c0 .567.053 1.074.15 1.447l.012.046v.002a.356.356 0 0 0 .207.2l.03.008c.374.097.881.15 1.45.15h.152l.23.226v.546h-.373c-.569 0-1.076.053-1.45.15l-.046.012h-.002a.355.355 0 0 0-.202.207l-.008.029c-.097.373-.15.879-.15 1.446v.372h-.763v-.372c0-.567-.053-1.073-.15-1.446l-.012-.047v-.001a.35.35 0 0 0-.208-.199l-.04-.01c-.363-.097-.87-.15-1.438-.15h-.373v-.763h.373c.568 0 1.076-.053 1.45-.15l.046-.012h.002a.323.323 0 0 0 .188-.195v-.003l.012-.046c.097-.373.15-.88.15-1.447v-.372Zm-24.548 5.48H0l3.132 5.095v3.572h1.05V15.42l3.13-5.095h-1.2L3.707 14.37h-.101l-2.404-4.046Zm6.872 0v8.667h5.299v-.93h-4.25v-2.946h3.911v-.931h-3.91v-2.929h4.181v-.93h-5.23Zm13.4 0v8.667h-1.016l-4.723-6.805h-.085v6.805H14.6v-8.667h1.017l4.74 6.822h.084v-6.822h1.033Zm107.039 19.87a.824.824 0 0 0 .274.038c.234 0 .434-.008.599-.026l.496-.026a11.15 11.15 0 0 1 1.081 0l.431.026c.156.018.351.026.586.026a.8.8 0 0 0 .274-.039c.069-.017.104-.052.104-.104 0-.061-.035-.109-.104-.144a1.276 1.276 0 0 0-.326-.09c-.322-.062-.574-.166-.756-.314-.182-.156-.274-.39-.274-.704v-5.122c0-.478.013-.821.039-1.03.026-.208.087-.339.183-.39.095-.053.239-.079.43-.079h1.316c.418 0 .713.056.887.17a.625.625 0 0 1 .313.43c.034.165.069.295.104.39.035.096.082.144.143.144.07 0 .122-.048.157-.143a.906.906 0 0 0 .052-.274v-.157c0-.113.004-.195.013-.247a2.85 2.85 0 0 1 .039-.183 2 2 0 0 0 .078-.339l.002-.011c.067.03.149.06.245.09.148.043.295.147.443.313.156.165.3.343.43.534.13.182.226.326.287.43l1.525 2.503c.035.06.096.195.182.404.096.2.144.386.144.56v1.93c0 .312-.087.56-.261.742-.174.174-.426.291-.756.352a1.276 1.276 0 0 0-.326.091c-.069.035-.104.083-.104.144 0 .052.035.087.104.104a.8.8 0 0 0 .274.04c.235 0 .434-.01.6-.027l.495-.026a11.15 11.15 0 0 1 1.082 0l.43.026c.156.018.352.026.586.026a.796.796 0 0 0 .274-.039c.07-.017.104-.052.104-.104 0-.061-.034-.109-.104-.144a1.263 1.263 0 0 0-.326-.09c-.321-.062-.573-.183-.756-.366a1.016 1.016 0 0 1-.273-.73v-1.981c0-.174.004-.308.013-.404a1.14 1.14 0 0 1 .078-.326c.043-.113.121-.26.234-.443.148-.243.274-.448.378-.613l.3-.495c.104-.156.213-.326.326-.508.122-.183.269-.409.443-.678a10.8 10.8 0 0 1 .574-.808c.156-.191.347-.317.573-.378.183-.052.343-.105.483-.157.139-.052.208-.108.208-.17 0-.051-.035-.086-.104-.103a.797.797 0 0 0-.274-.04 8.59 8.59 0 0 0-.586.027c-.244.008-.5.013-.77.013h-.482a7.674 7.674 0 0 0-.495-.013.797.797 0 0 0-.274.039c-.069.017-.104.052-.104.104 0 .06.048.117.143.17.105.043.2.073.287.09.122.018.239.057.352.118.122.06.182.174.182.339a.997.997 0 0 1-.052.287c-.034.104-.095.23-.182.378-.217.39-.404.725-.561 1.003-.156.278-.334.57-.534.874-.113.182-.2.312-.261.39-.061.07-.117.105-.169.105-.07 0-.191-.165-.365-.495l-1.199-2.216c-.113-.2-.17-.357-.17-.47a.22.22 0 0 1 .118-.208 1.37 1.37 0 0 1 .299-.117c.148-.035.257-.07.326-.105.07-.043.104-.095.104-.156 0-.052-.034-.087-.104-.104a.796.796 0 0 0-.274-.04c-.139 0-.299.005-.482.014-.174.008-.36.013-.56.013-.296 0-.574-.005-.834-.013a10.521 10.521 0 0 0-.691-.026c-.053 0-.1.002-.143.008v-.022a.686.686 0 0 0-.026-.195c-.017-.07-.039-.104-.065-.104a.384.384 0 0 0-.261.09.935.935 0 0 1-.247.17 2.236 2.236 0 0 1-.496.144 4.284 4.284 0 0 1-.743.052h-4.588a2.52 2.52 0 0 1-.56-.065c-.183-.044-.3-.109-.352-.196a1.783 1.783 0 0 0-.17-.26c-.069-.105-.121-.157-.156-.157a.304.304 0 0 0-.13.04c-.044.025-.074.112-.092.26-.034.27-.082.504-.143.704a3.938 3.938 0 0 1-.261.665.584.584 0 0 0-.065.26.51.51 0 0 0 .013.117c.018.035.044.053.078.053.07 0 .14-.03.209-.092a1.476 1.476 0 0 0 .326-.404.828.828 0 0 1 .443-.378c.209-.087.417-.13.626-.13h.612c.226 0 .404.004.535.013.139 0 .269.013.391.04.069.008.121.056.156.143.044.086.074.239.091.456.018.208.026.512.026.912v5.057c0 .313-.086.548-.26.704-.174.148-.426.252-.756.313a1.263 1.263 0 0 0-.326.091c-.07.035-.104.083-.104.144 0 .052.034.087.104.104Zm-22.448.038a.616.616 0 0 1-.274-.052c-.069-.026-.104-.065-.104-.117 0-.061.035-.113.104-.157.078-.052.187-.1.326-.143.226-.07.434-.174.626-.313.191-.139.356-.37.495-.69.243-.557.465-1.078.665-1.565.208-.486.404-.964.586-1.434.183-.469.37-.956.561-1.46.2-.512.408-1.068.625-1.668a5.73 5.73 0 0 0 .118-.365c.034-.122.056-.252.065-.39l.235-.08a.986.986 0 0 0 .234-.116.385.385 0 0 0 .157-.235.807.807 0 0 1 .091-.209.036.036 0 0 1 .026-.013c.017 0 .03.01.039.026a.5.5 0 0 1 .039.13l.052.157c.209.66.426 1.334.652 2.02.226.687.443 1.352.652 1.995l.586 1.72c.183.504.326.913.43 1.226.122.347.252.608.391.782.139.174.283.295.431.365.156.07.321.121.495.156a.68.68 0 0 1 .326.13c.069.053.104.109.104.17 0 .052-.035.087-.104.104a1.17 1.17 0 0 1-.274.026 5.98 5.98 0 0 1-.495-.026 20.479 20.479 0 0 1-.665-.039 17.691 17.691 0 0 0-.652-.013h-.508a8.21 8.21 0 0 0-.482.013h-.378a.793.793 0 0 1-.274-.04c-.07-.025-.104-.064-.104-.116 0-.061.043-.113.13-.157.087-.043.187-.074.3-.091.286-.044.491-.117.612-.222a.469.469 0 0 0 .183-.365c0-.13-.031-.317-.091-.56a12.393 12.393 0 0 0-.196-.795 17.267 17.267 0 0 0-.222-.756c-.017-.07-.052-.109-.104-.117a.77.77 0 0 0-.247-.027h-2.464c-.035 0-.074.018-.117.053-.035.026-.07.087-.105.182-.026.087-.069.226-.13.417a24.27 24.27 0 0 0-.339 1.147 1.79 1.79 0 0 0-.065.313c0 .191.074.352.222.482.147.122.325.209.534.261.287.078.43.165.43.26 0 .053-.035.092-.104.118a1.17 1.17 0 0 1-.274.026c-.113 0-.278-.004-.495-.013a17.318 17.318 0 0 0-.691-.013c-.287 0-.565.013-.834.04-.27.025-.513.038-.73.038Zm3.05-3.74h2.02c.122 0 .183-.022.183-.066a.125.125 0 0 0-.013-.052.266.266 0 0 0-.013-.078l-1.017-3.18c-.052-.157-.091-.235-.117-.235-.018 0-.052.074-.105.221l-1.186 3.194a.444.444 0 0 0-.026.104c0 .044.022.07.065.078a1.3 1.3 0 0 0 .209.013ZM77.21 30.375c-.365 0-.704-.057-1.017-.17a2.622 2.622 0 0 1-.82-.456 1.418 1.418 0 0 1-.105-.117.72.72 0 0 1-.065-.144 3.88 3.88 0 0 1-.092-.678 11.294 11.294 0 0 0-.039-.69c0-.061.026-.105.078-.13a.32.32 0 0 1 .183-.053c.043 0 .087.013.13.04.044.017.07.051.079.103.173.67.43 1.148.769 1.434.347.287.708.43 1.081.43.305 0 .574-.065.809-.195.234-.13.417-.313.547-.547.139-.244.209-.526.209-.848 0-.356-.061-.643-.183-.86a1.674 1.674 0 0 0-.495-.587 9.598 9.598 0 0 0-.795-.534c-.34-.217-.674-.434-1.004-.652a3.492 3.492 0 0 1-.821-.769c-.217-.295-.326-.651-.326-1.069 0-.443.1-.843.3-1.199.2-.356.5-.638.9-.847.407-.217.916-.326 1.524-.326.313 0 .582.035.808.104.235.061.422.122.56.183a.36.36 0 0 1 .17.13.488.488 0 0 1 .105.196c.052.182.108.39.169.625.06.235.091.457.091.665 0 .096-.065.143-.195.143a.573.573 0 0 1-.235-.052c-.07-.034-.113-.078-.13-.13-.183-.46-.396-.812-.639-1.056-.243-.243-.552-.365-.925-.365-.261 0-.504.048-.73.144a1.268 1.268 0 0 0-.56.469c-.14.217-.21.508-.21.873 0 .26.083.5.248.717.174.209.4.409.678.6.278.19.578.386.9.586.304.183.599.383.886.6.295.217.534.478.717.782.19.295.286.66.286 1.095 0 .512-.117.964-.352 1.355a2.34 2.34 0 0 1-.99.887c-.426.208-.926.313-1.5.313Zm10.337-.497c-.04-.01-.083-.02-.13-.028-.33-.06-.573-.16-.73-.3-.156-.139-.234-.365-.234-.678v-5.865c0-.313.065-.534.195-.665.122-.13.348-.226.678-.287a.95.95 0 0 0 .326-.104.296.296 0 0 0 .054-.042.373.373 0 0 0 .028.02c.079.043.187.086.326.13.148.043.296.1.443.169.148.07.309.187.483.352.173.156.369.387.586.69l1.747 2.451c.121.174.165.322.13.443-.035.113-.1.23-.195.352l-1.63 2.034a3.408 3.408 0 0 1-.625.6 4.694 4.694 0 0 1-.691.43c-.217.104-.4.178-.548.221a2.402 2.402 0 0 0-.213.077Zm.027.346a5.118 5.118 0 0 1-.677-.022 6.577 6.577 0 0 1-.431-.04 8.162 8.162 0 0 0-.495-.012c-.33 0-.648.004-.952.013a1265.945 1265.945 0 0 1-1.968.052c-.356.009-.743.013-1.16.013-.052 0-.087-.022-.104-.065a1.313 1.313 0 0 1-.079-.157 4.52 4.52 0 0 1-.169-.495 6.37 6.37 0 0 1-.17-.6 2.342 2.342 0 0 1-.065-.417c0-.052.013-.09.04-.117a.166.166 0 0 1 .104-.065.124.124 0 0 1 .117.04.495.495 0 0 1 .091.13c.14.26.265.469.378.625.105.157.226.282.365.378.14.087.304.148.496.183.182.026.412.039.69.039h.965c.295 0 .513-.061.652-.183.139-.13.208-.36.208-.69v-2.503c0-.148-.034-.24-.104-.274a.71.71 0 0 0-.339-.065h-1.212c-.174 0-.304.048-.391.143-.087.096-.157.244-.209.443-.07.278-.17.418-.3.418-.052 0-.082-.022-.09-.066a.42.42 0 0 1-.027-.156c0-.035.005-.117.013-.248 0-.13.004-.265.013-.404v-.352c0-.07-.004-.17-.013-.3a5.679 5.679 0 0 1-.013-.378 4.487 4.487 0 0 1-.013-.234c0-.07.022-.122.065-.157.035-.034.07-.052.105-.052.104 0 .182.096.234.287.061.243.14.413.235.508.095.087.27.13.521.13h1.29a.234.234 0 0 0 .17-.078.35.35 0 0 0 .065-.208v-2.763c0-.122-.06-.222-.182-.3-.122-.078-.218-.117-.287-.117h-1.707c-.166 0-.322.026-.47.078a.862.862 0 0 0-.404.273.736.736 0 0 0-.156.3c-.044.13-.087.27-.13.417a.581.581 0 0 1-.053.105c-.017.017-.047.026-.091.026a.19.19 0 0 1-.117-.04c-.044-.026-.066-.078-.066-.156 0-.174.022-.378.066-.612l.13-.73c.009-.044.04-.074.091-.092a.456.456 0 0 1 .144-.026c.034 0 .156.005.365.013.2 0 .447.005.743.013.269 0 .564.005.886.013h1.694l.678-.026c.226-.008.504-.013.834-.013a.796.796 0 0 1 .291.044.189.189 0 0 1 .065-.027.774.774 0 0 1 .274-.04c.217 0 .5.013.847.04a20.884 20.884 0 0 0 1.773.013c.243-.01.421-.013.534-.013.113 0 .205.013.274.039.07.017.104.052.104.104 0 .06-.034.108-.104.143-.07.035-.178.074-.326.118-.217.06-.382.117-.495.17-.113.051-.17.13-.17.234 0 .139.144.408.43.808l1.187 1.668c.095.14.165.204.208.196.053-.009.113-.061.183-.157l1.394-1.838a2.46 2.46 0 0 0 .248-.364.65.65 0 0 0 .091-.3c0-.096-.047-.178-.143-.248-.087-.07-.235-.122-.443-.156a1.53 1.53 0 0 1-.287-.092c-.096-.052-.143-.108-.143-.169 0-.052.034-.087.104-.104.07-.026.16-.04.274-.04h.326c.113 0 .23.005.352.014h.377c.253 0 .518-.013.796-.04a8.01 8.01 0 0 1 .69-.039.77.77 0 0 1 .274.04c.07.017.104.052.104.104 0 .06-.034.108-.104.143a2.07 2.07 0 0 1-.326.117c-.243.061-.517.244-.82.548a15.28 15.28 0 0 0-.874.951l-1.5 1.773c-.112.14-.182.24-.208.3-.026.052-.017.126.026.222l2.02 2.906c.2.287.422.526.666.717.243.191.486.322.73.391.147.035.256.074.325.117.07.035.105.083.105.144 0 .052-.035.087-.105.104a.796.796 0 0 1-.273.04 7.11 7.11 0 0 1-.509-.027 22.095 22.095 0 0 1-.69-.039 17.989 17.989 0 0 0-1.421 0h-.587c-.113 0-.204-.009-.274-.026-.07-.026-.104-.065-.104-.117 0-.061.048-.113.143-.157.105-.043.2-.078.287-.104.13-.044.257-.113.378-.209a.494.494 0 0 0 .196-.404.59.59 0 0 0-.04-.208.613.613 0 0 0-.117-.222l-1.355-1.968c-.061-.096-.113-.143-.157-.143-.043-.01-.087.017-.13.078l-1.76 2.268a1.456 1.456 0 0 0-.091.156.46.46 0 0 0-.026.144c0 .121.052.23.156.326.113.086.257.152.43.195.148.035.257.074.326.117.07.035.105.083.105.144 0 .052-.035.09-.105.117-.07.017-.16.026-.273.026-.113 0-.278-.004-.496-.013-.208-.009-.43-.013-.664-.013-.296 0-.591.013-.887.04a8.843 8.843 0 0 1-.756.038c-.049 0-.094-.002-.134-.007Zm11.683-.28c.522.27 1.169.404 1.942.404.643 0 1.217-.143 1.721-.43a3.312 3.312 0 0 0 1.225-1.225c.304-.521.465-1.116.482-1.786.018-.6.031-1.207.04-1.824.017-.617.047-1.3.091-2.047.017-.26.074-.478.169-.652.096-.173.257-.282.482-.325.287-.061.431-.148.431-.261 0-.052-.035-.087-.105-.104a.787.787 0 0 0-.273-.04c-.096 0-.2.005-.313.014l-.352.026h-.873a7.73 7.73 0 0 0-.496-.013.787.787 0 0 0-.273.039c-.07.017-.105.052-.105.104 0 .06.048.113.144.156.104.044.199.079.286.105.122.034.222.126.3.273a1.6 1.6 0 0 1 .17.509c.043.2.065.413.065.638l.026 1.043c.009.356.013.691.013 1.004.009.313.013.565.013.756 0 1.017-.209 1.838-.626 2.463-.417.617-1.073.926-1.968.926-.53 0-1.004-.105-1.421-.313a2.31 2.31 0 0 1-.964-.99c-.235-.453-.352-1.026-.352-1.721V23.01c0-.26.065-.473.195-.639.13-.165.248-.265.352-.3.148-.043.257-.082.326-.117.07-.034.104-.082.104-.143 0-.052-.034-.087-.104-.104a.796.796 0 0 0-.274-.04c-.139 0-.3.005-.482.014a15.397 15.397 0 0 1-1.225 0 6.47 6.47 0 0 0-.587-.026.794.794 0 0 0-.273.039c-.07.017-.105.052-.105.104 0 .113.144.208.43.287a.752.752 0 0 1 .405.273c.13.14.195.365.195.678v4.002c0 .66.13 1.242.391 1.746.26.496.652.882 1.173 1.16Zm15.663.235c.07.035.161.052.274.052l.3-.026c.208-.009.447-.017.717-.026.278-.009.525-.013.743-.013.33 0 .664.004 1.003.013.339.009.691.013 1.056.013l1.16.026c.4.009.817.013 1.251.013.07 0 .113-.021.131-.065a.422.422 0 0 0 .052-.156 8.3 8.3 0 0 1 .065-.522c.035-.165.074-.339.117-.521.053-.183.109-.387.17-.613v-.026a.095.095 0 0 0 .013-.039.348.348 0 0 0-.039-.156c-.026-.053-.065-.079-.118-.079-.06 0-.121.053-.182.157a1.953 1.953 0 0 0-.104.235 3.776 3.776 0 0 1-.3.534 2.173 2.173 0 0 1-.378.39 1.508 1.508 0 0 1-.404.236 1.656 1.656 0 0 1-.613.104h-1.616c-.426 0-.7-.065-.821-.196-.122-.13-.183-.33-.183-.6v-6.139c0-.252.113-.417.339-.495.226-.087.5-.16.821-.221a.948.948 0 0 0 .326-.105c.07-.043.105-.095.105-.156 0-.052-.035-.087-.105-.104a.791.791 0 0 0-.273-.04c-.235 0-.435.005-.6.014l-.482.026h-1.043c-.13-.01-.269-.018-.417-.026a9.543 9.543 0 0 0-.561-.014.787.787 0 0 0-.273.04c-.07.017-.105.052-.105.104 0 .122.144.208.43.26.218.035.383.079.496.13a.392.392 0 0 1 .234.223c.044.095.066.247.066.456v6.048c0 .287-.092.5-.274.638-.183.13-.443.23-.782.3a4.05 4.05 0 0 0-.17.065c-.078.026-.117.079-.117.157 0 .043.03.078.091.104Zm7.534.052a.8.8 0 0 1-.274-.039c-.069-.017-.104-.052-.104-.104 0-.104.143-.183.43-.235.33-.06.582-.16.756-.3.174-.139.261-.36.261-.664v-5.892c0-.304-.065-.521-.196-.652-.121-.13-.347-.226-.678-.286-.286-.053-.43-.14-.43-.261 0-.052.035-.087.105-.104a.787.787 0 0 1 .273-.04c.235 0 .426.005.574.014.156.008.304.017.443.026h.978c.121-.01.252-.018.391-.026.139-.01.326-.014.56-.014.113 0 .204.014.274.04.069.017.104.052.104.104 0 .06-.035.113-.104.156a.956.956 0 0 1-.326.105c-.322.06-.556.156-.704.286-.148.13-.221.348-.221.652v5.892c0 .304.091.525.273.664.183.14.435.24.756.3.148.026.257.057.326.091.07.035.104.083.104.144 0 .052-.034.087-.104.104a.796.796 0 0 1-.274.04 5.45 5.45 0 0 1-.586-.027 113.42 113.42 0 0 1-.43-.026 11.15 11.15 0 0 0-1.082 0 97.16 97.16 0 0 1-.495.026 5.86 5.86 0 0 1-.6.026ZM32.738 24.58h1.05a3.452 3.452 0 0 0-.432-1.19 3.19 3.19 0 0 0-.779-.888 3.36 3.36 0 0 0-1.045-.559 3.898 3.898 0 0 0-1.232-.19c-.739 0-1.396.18-1.972.542-.575.36-1.028.874-1.358 1.54-.33.666-.495 1.456-.495 2.37 0 .914.165 1.704.495 2.37.33.666.783 1.18 1.358 1.54.576.361 1.233.542 1.972.542.438 0 .848-.064 1.232-.19a3.25 3.25 0 0 0 1.824-1.447c.209-.35.352-.747.431-1.19h-1.05a2.22 2.22 0 0 1-.884 1.375 2.428 2.428 0 0 1-.723.352 2.89 2.89 0 0 1-.83.118c-.524 0-1-.132-1.426-.398-.423-.265-.76-.656-1.011-1.172-.249-.516-.373-1.15-.373-1.9s.124-1.384.373-1.9c.25-.517.588-.907 1.011-1.172a2.644 2.644 0 0 1 1.426-.398c.288 0 .565.04.83.118a2.372 2.372 0 0 1 1.282.931c.155.229.264.494.326.796Zm8.967 3.995c.33-.666.495-1.456.495-2.37 0-.914-.165-1.704-.495-2.37-.33-.666-.783-1.18-1.358-1.54-.576-.361-1.233-.542-1.972-.542-.74 0-1.397.18-1.972.542-.576.36-1.029.874-1.359 1.54-.33.666-.495 1.456-.495 2.37 0 .914.165 1.704.495 2.37.33.666.783 1.18 1.359 1.54.575.361 1.233.542 1.972.542.739 0 1.396-.18 1.972-.542.575-.36 1.028-.874 1.358-1.54Zm-.897-4.27c.251.516.377 1.15.377 1.9s-.126 1.384-.377 1.9c-.248.516-.585.907-1.011 1.172a2.622 2.622 0 0 1-1.422.398c-.525 0-1-.132-1.426-.398-.424-.265-.76-.656-1.012-1.172-.248-.516-.372-1.15-.372-1.9s.124-1.384.372-1.9c.251-.517.588-.907 1.012-1.172a2.644 2.644 0 0 1 1.426-.398c.525 0 .998.132 1.422.398.426.265.763.655 1.011 1.172Zm7.301-.267a1.329 1.329 0 0 0-.618-.999c-.36-.237-.804-.355-1.329-.355-.383 0-.72.062-1.007.186a1.61 1.61 0 0 0-.669.512 1.228 1.228 0 0 0-.236.74c0 .232.054.431.165.598.112.163.256.3.431.41.175.107.359.196.55.267.192.067.369.122.53.165l.88.237c.225.059.476.14.753.245.28.104.546.247.8.428.256.177.468.406.635.685.166.28.25.622.25 1.028 0 .469-.123.892-.369 1.27-.243.378-.598.679-1.066.902-.466.222-1.032.334-1.697.334-.621 0-1.159-.1-1.613-.3a2.57 2.57 0 0 1-1.066-.839 2.39 2.39 0 0 1-.436-1.248h1.083c.029.327.139.598.33.813.195.211.44.37.737.474.299.101.62.152.965.152.4 0 .76-.065 1.079-.195.319-.132.571-.316.757-.55a1.3 1.3 0 0 0 .28-.83c0-.287-.08-.521-.242-.702a1.772 1.772 0 0 0-.634-.44 6.675 6.675 0 0 0-.851-.296l-1.066-.305c-.678-.195-1.214-.473-1.609-.834-.395-.36-.592-.833-.592-1.417 0-.486.131-.909.393-1.27a2.616 2.616 0 0 1 1.067-.846c.448-.204.95-.305 1.502-.305.559 0 1.055.1 1.49.3.434.198.779.469 1.032.813.257.344.393.735.407 1.172h-1.016Zm3.517-2.167h-1.253v8.668h.982v-6.585h.084l2.709 6.585h.948l2.708-6.585h.085v6.585h.982v-8.668h-1.253l-2.945 7.195h-.102l-2.945-7.195Zm9.803 8.668h-1.05v-8.668h1.05v8.668Zm7.433-5.96h1.05a3.452 3.452 0 0 0-.432-1.188 3.19 3.19 0 0 0-.779-.889 3.36 3.36 0 0 0-1.045-.559 3.898 3.898 0 0 0-1.232-.19c-.739 0-1.396.18-1.972.542-.575.36-1.028.874-1.358 1.54-.33.666-.495 1.456-.495 2.37 0 .914.165 1.704.495 2.37.33.666.783 1.18 1.358 1.54.576.361 1.233.542 1.972.542.438 0 .848-.064 1.232-.19a3.25 3.25 0 0 0 1.824-1.447c.209-.35.353-.747.432-1.19h-1.05a2.222 2.222 0 0 1-.884 1.375 2.426 2.426 0 0 1-.724.352 2.89 2.89 0 0 1-.83.118c-.524 0-1-.132-1.426-.398-.423-.265-.76-.656-1.011-1.172-.248-.516-.373-1.15-.373-1.9s.125-1.384.373-1.9c.25-.517.588-.907 1.011-1.172a2.644 2.644 0 0 1 1.426-.398c.288 0 .565.04.83.118a2.37 2.37 0 0 1 1.282.931c.155.229.264.494.326.796Zm-42.794 8.837h1.202l2.404 4.046h.102l2.403-4.046h1.202l-3.131 5.096v3.571H29.2v-3.572l-3.132-5.095Zm14.485 6.704c.33-.666.495-1.456.495-2.37 0-.914-.165-1.704-.495-2.37-.33-.666-.783-1.18-1.358-1.54-.576-.362-1.233-.542-1.972-.542-.74 0-1.397.18-1.972.541-.576.361-1.029.875-1.359 1.54-.33.667-.495 1.457-.495 2.37 0 .915.165 1.705.495 2.37.33.666.783 1.18 1.358 1.541.576.361 1.233.542 1.973.542.739 0 1.396-.18 1.972-.542.575-.361 1.028-.875 1.358-1.54Zm-.897-4.27c.251.516.377 1.15.377 1.9s-.126 1.384-.377 1.9c-.248.516-.585.907-1.011 1.172a2.623 2.623 0 0 1-1.422.398c-.525 0-1-.133-1.427-.398-.423-.265-.76-.656-1.011-1.172-.248-.516-.372-1.15-.372-1.9s.124-1.384.372-1.9c.251-.517.588-.907 1.011-1.173a2.644 2.644 0 0 1 1.427-.397c.524 0 .998.132 1.422.397.425.266.763.656 1.01 1.173Zm9.434 6.233h-1.016l-4.723-6.805h-.084v6.805h-1.05v-8.667h1.016l4.74 6.822h.084v-6.822h1.033v8.667Zm1.504 0h1.05v-8.667h-1.05v8.667Zm5.314-8.667h1.05v3.86h4.62v-3.86h1.05v8.667h-1.05v-3.876h-4.62v3.876h-1.05v-8.667Zm13.456 0h-5.23v8.667h5.298v-.93h-4.249v-2.946h3.91v-.931h-3.91v-2.929h4.181v-.93Zm1.652 8.667h-1.1l3.182-8.667h1.083l3.183 8.667h-1.1l-.872-2.454h-3.505l-.871 2.454Zm2.657-7.296 1.388 3.91h-2.844l1.389-3.91h.067Zm5.494-1.37h-1.05v8.666h5.08v-.93h-4.03v-7.737Zm6.108 8.666h-1.05v-8.667h1.05v8.667Zm7.365 0h1.016v-8.667h-1.032v6.822h-.085l-4.74-6.822h-1.016v8.667h1.05V35.28h.085l4.722 6.805Zm8.445-5.958a3.066 3.066 0 0 0-.368-.766 2.371 2.371 0 0 0-.538-.584 2.248 2.248 0 0 0-.702-.369 2.8 2.8 0 0 0-.863-.126c-.514 0-.98.132-1.401.397-.42.266-.755.656-1.003 1.173-.248.516-.373 1.15-.373 1.9s.126 1.384.377 1.9.591.907 1.02 1.172c.429.265.911.398 1.447.398.497 0 .934-.106 1.312-.317a2.26 2.26 0 0 0 .889-.906c.205-.375.312-.814.321-1.316h-2.285v-.931h3.301v.93c0 .715-.152 1.335-.457 1.863a3.158 3.158 0 0 1-1.252 1.227c-.53.288-1.14.432-1.829.432-.767 0-1.441-.18-2.023-.542-.578-.361-1.03-.875-1.354-1.54-.321-.666-.482-1.456-.482-2.37 0-.686.091-1.302.275-1.85.186-.55.448-1.018.787-1.405a3.44 3.44 0 0 1 1.202-.888 3.714 3.714 0 0 1 1.528-.31c.457 0 .883.07 1.278.208a3.431 3.431 0 0 1 1.845 1.473c.209.344.352.726.431 1.147h-1.083Zm-83.041 3.043v2.32h.948v-2.32h2.319v-.947h-2.32v-2.32h-.947v2.32h-2.32v.947h2.32Zm85.706 14.46v-.761l2.861-3.132c.336-.367.612-.686.829-.956a3.54 3.54 0 0 0 .483-.77c.107-.243.161-.497.161-.762a1.405 1.405 0 0 0-.813-1.308 1.92 1.92 0 0 0-.846-.182c-.333 0-.624.069-.872.207a1.421 1.421 0 0 0-.571.571 1.785 1.785 0 0 0-.199.864h-.999c0-.508.117-.954.351-1.337.234-.384.553-.683.957-.898a2.879 2.879 0 0 1 1.366-.321c.508 0 .958.107 1.35.321.393.215.7.504.923.868.223.364.334.769.334 1.215 0 .318-.057.63-.173.935-.113.302-.311.639-.593 1.011-.279.37-.667.821-1.163 1.354l-1.947 2.083v.067h4.029v.931h-5.468Zm9.447.119c-.638 0-1.181-.174-1.63-.52-.448-.35-.791-.857-1.028-1.52-.237-.666-.356-1.47-.356-2.412 0-.937.119-1.737.356-2.4.24-.666.584-1.173 1.033-1.523.451-.353.993-.53 1.625-.53s1.172.177 1.62.53c.452.35.796.857 1.033 1.523.24.663.36 1.463.36 2.4 0 .942-.119 1.746-.356 2.412-.237.663-.58 1.17-1.028 1.52-.449.346-.992.52-1.629.52Zm0-.931c.632 0 1.122-.305 1.472-.914.35-.61.525-1.479.525-2.607 0-.75-.08-1.39-.241-1.917-.158-.528-.387-.93-.686-1.206a1.512 1.512 0 0 0-1.07-.415c-.627 0-1.116.309-1.469.927-.353.615-.529 1.485-.529 2.61 0 .751.079 1.389.237 1.914.158.524.385.924.681 1.197.3.274.659.41 1.08.41Zm4.025.05v.762h5.468v-.93h-4.029v-.068l1.947-2.083c.496-.533.884-.984 1.163-1.354.283-.372.48-.71.593-1.011a2.61 2.61 0 0 0 .173-.935 2.28 2.28 0 0 0-.334-1.215 2.42 2.42 0 0 0-.922-.868 2.773 2.773 0 0 0-1.35-.321 2.88 2.88 0 0 0-1.367.321 2.437 2.437 0 0 0-.957.898c-.234.383-.351.829-.351 1.337h.999c0-.33.066-.618.199-.864.135-.245.325-.435.571-.57.248-.139.539-.208.872-.208.313 0 .595.06.846.182.251.121.449.293.593.516.146.223.22.487.22.791 0 .266-.054.52-.161.762a3.54 3.54 0 0 1-.483.77c-.217.271-.493.59-.829.957l-2.861 3.132Zm6.62.762v-.761l2.861-3.132c.335-.367.612-.686.829-.956.217-.274.378-.53.482-.77.108-.243.161-.497.161-.762 0-.305-.073-.569-.22-.792a1.427 1.427 0 0 0-.592-.516 1.924 1.924 0 0 0-.847-.182c-.333 0-.623.069-.871.207a1.43 1.43 0 0 0-.572.571 1.797 1.797 0 0 0-.199.864h-.998c0-.508.117-.954.351-1.337.234-.384.553-.683.956-.898a2.886 2.886 0 0 1 1.367-.321c.508 0 .958.107 1.35.321.392.215.7.504.923.868.223.364.334.769.334 1.215 0 .318-.058.63-.173.935-.113.302-.311.639-.593 1.011-.279.37-.667.821-1.164 1.354l-1.946 2.083v.067h4.028v.931h-5.467ZM32.082 7.074h.763v.373c0 .567.053 1.073.15 1.446l.013.047v.001a.356.356 0 0 0 .207.201l.028.008c.375.097.882.15 1.45.15h.153l.23.225v.547h-.373c-.569 0-1.076.052-1.45.15l-.047.012h-.001a.356.356 0 0 0-.202.206l-.008.029c-.097.373-.15.88-.15 1.447v.372h-.763v-.372c0-.567-.053-1.074-.15-1.447l-.012-.046v-.002a.35.35 0 0 0-.208-.198l-.04-.01c-.363-.098-.87-.15-1.438-.15h-.373V9.3h.373c.568 0 1.076-.053 1.45-.15l.046-.012h.002a.323.323 0 0 0 .188-.196V8.94l.012-.047c.097-.373.15-.88.15-1.446v-.373ZM134.881 49.78c-1.787-1.483-2.588-2.352-2.899-2.873-.158-.266-.201-.461-.157-.61.045-.153.172-.221.261-.258a.195.195 0 0 1 .129 0 .57.57 0 0 1 .12.053c.083.048.184.121.295.212.224.182.505.444.803.738a42.755 42.755 0 0 1 1.448 1.516V45.81a.372.372 0 1 1 .744 0v2.342c.342-.367.723-.764 1.077-1.114.298-.294.578-.556.802-.738.112-.09.212-.164.296-.212a.592.592 0 0 1 .119-.054.195.195 0 0 1 .129 0c.09.038.217.106.262.26.044.148.001.344-.158.609-.288.484-.998 1.266-2.527 2.562v1.623c.341-.418.72-.87 1.073-1.267.297-.336.578-.635.802-.844a2.36 2.36 0 0 1 .295-.241.538.538 0 0 1 .121-.063.184.184 0 0 1 .137.001.439.439 0 0 1 .258.288c.041.16.002.376-.156.679-.287.55-.998 1.445-2.53 2.929v1.06a.372.372 0 1 1-.744 0v-.7c-1.791-1.699-2.591-2.691-2.901-3.285-.158-.303-.198-.52-.156-.68a.437.437 0 0 1 .258-.287.184.184 0 0 1 .137-.001.583.583 0 0 1 .121.062c.083.055.184.139.295.242.224.209.505.508.802.844a46.74 46.74 0 0 1 1.444 1.727V49.78Z" clip-rule="evenodd"/>
</svg>