<svg xmlns="http://www.w3.org/2000/svg" fill="none" viewBox="0 0 217 82">
  <path fill="#0E57FF" d="M51.195 37.242h-1.59a3.306 3.306 0 0 0-1.34-2.077 3.591 3.591 0 0 0-1.097-.539c-.402-.12-.82-.18-1.257-.18-.795 0-1.515.202-2.16.603-.642.402-1.153.994-1.533 1.777-.376.782-.565 1.742-.565 2.879s.189 2.096.565 2.879c.38.782.891 1.374 1.532 1.776a4.006 4.006 0 0 0 2.161.603c.436 0 .855-.06 1.257-.18.402-.12.767-.297 1.096-.532a3.369 3.369 0 0 0 1.34-2.084h1.59a5.298 5.298 0 0 1-.653 1.802c-.316.53-.71.98-1.18 1.353-.47.367-.998.647-1.584.84a5.906 5.906 0 0 1-1.866.288c-1.12 0-2.116-.273-2.988-.82-.872-.548-1.558-1.326-2.058-2.335-.5-1.008-.75-2.205-.75-3.59 0-1.385.25-2.582.75-3.591.5-1.01 1.186-1.787 2.058-2.334.872-.547 1.868-.821 2.988-.821.663 0 1.285.096 1.866.288a5.092 5.092 0 0 1 1.584.847c.47.368.864.816 1.18 1.346.316.526.534 1.127.654 1.802ZM63.942 39.705c0 1.385-.25 2.582-.75 3.59-.5 1.01-1.186 1.787-2.058 2.334-.873.548-1.868.821-2.989.821-1.12 0-2.116-.273-2.988-.82-.872-.548-1.558-1.326-2.058-2.335-.5-1.008-.75-2.205-.75-3.59 0-1.385.25-2.582.75-3.591.5-1.01 1.186-1.787 2.058-2.334.872-.547 1.869-.821 2.989-.821 1.12 0 2.115.274 2.988.82.872.548 1.558 1.326 2.058 2.335.5 1.009.75 2.206.75 3.59Zm-1.539 0c0-1.137-.19-2.097-.57-2.88-.377-.782-.887-1.374-1.533-1.776a3.973 3.973 0 0 0-2.154-.602c-.796 0-1.516.2-2.162.602-.64.402-1.151.994-1.532 1.777-.376.782-.564 1.742-.564 2.879s.188 2.096.564 2.879c.38.782.891 1.374 1.532 1.776a4.006 4.006 0 0 0 2.161.603c.796 0 1.514-.201 2.155-.603.646-.402 1.156-.994 1.533-1.776.38-.783.57-1.742.57-2.88ZM72.895 36.422a2.013 2.013 0 0 0-.936-1.514c-.547-.359-1.219-.538-2.014-.538-.581 0-1.09.094-1.526.282-.432.188-.77.447-1.013.776-.24.329-.36.703-.36 1.122 0 .35.084.652.251.904.171.248.389.455.654.622.265.162.543.297.834.404.29.103.558.186.801.25l1.334.36c.342.089.722.213 1.141.371.423.158.827.374 1.212.648.39.269.71.615.962 1.038.252.424.378.943.378 1.559 0 .71-.186 1.35-.558 1.923-.367.573-.906 1.028-1.615 1.366-.706.338-1.563.507-2.572.507-.94 0-1.754-.152-2.443-.456-.684-.303-1.222-.726-1.616-1.27-.389-.542-.609-1.173-.66-1.89h1.641c.043.495.21.905.5 1.23.295.32.667.56 1.116.718.453.154.94.231 1.462.231.607 0 1.152-.098 1.635-.295.484-.2.866-.479 1.148-.833.282-.36.423-.778.423-1.257 0-.436-.121-.79-.365-1.065a2.683 2.683 0 0 0-.962-.666c-.397-.171-.827-.321-1.289-.45l-1.616-.46c-1.026-.296-1.838-.717-2.436-1.264-.599-.547-.898-1.263-.898-2.148 0-.736.199-1.377.596-1.924.402-.551.94-.979 1.616-1.282.68-.308 1.439-.462 2.276-.462.847 0 1.6.152 2.258.455.658.3 1.18.71 1.564 1.231.39.522.594 1.114.616 1.777h-1.54ZM76.325 33.139h1.898l4.463 10.9h.154l4.463-10.9H89.2V46.27h-1.488v-9.978h-.128l-4.104 9.978h-1.436l-4.104-9.978h-.128v9.978h-1.488V33.138ZM93.077 33.139V46.27h-1.59V33.138h1.59ZM105.93 37.242h-1.591a3.305 3.305 0 0 0-1.34-2.077 3.586 3.586 0 0 0-1.096-.539 4.381 4.381 0 0 0-1.257-.18c-.795 0-1.515.202-2.16.603-.642.402-1.153.994-1.533 1.777-.377.782-.565 1.742-.565 2.879s.188 2.096.565 2.879c.38.782.89 1.374 1.532 1.776a4.006 4.006 0 0 0 2.161.603c.436 0 .855-.06 1.257-.18.402-.12.767-.297 1.096-.532a3.368 3.368 0 0 0 1.34-2.084h1.591a5.311 5.311 0 0 1-.654 1.802c-.317.53-.71.98-1.18 1.353-.47.367-.998.647-1.584.84a5.902 5.902 0 0 1-1.866.288c-1.12 0-2.116-.273-2.988-.82-.872-.548-1.558-1.326-2.058-2.335-.5-1.008-.75-2.205-.75-3.59 0-1.385.25-2.582.75-3.591.5-1.01 1.186-1.787 2.058-2.334.872-.547 1.868-.821 2.988-.821.663 0 1.285.096 1.866.288a5.088 5.088 0 0 1 1.584.847c.47.368.863.816 1.18 1.346.316.526.534 1.127.654 1.802ZM39.499 50.631h1.821l3.642 6.13h.154l3.642-6.13h1.821l-4.745 7.72v5.412h-1.59v-5.412l-4.745-7.72ZM62.196 57.197c0 1.385-.25 2.582-.75 3.591-.5 1.009-1.186 1.787-2.058 2.334-.872.547-1.868.82-2.988.82-1.12 0-2.116-.273-2.988-.82-.872-.547-1.559-1.325-2.059-2.334-.5-1.009-.75-2.206-.75-3.59 0-1.386.25-2.583.75-3.592s1.187-1.787 2.059-2.334c.872-.547 1.868-.82 2.988-.82 1.12 0 2.116.273 2.988.82.872.547 1.558 1.325 2.058 2.334.5 1.01.75 2.206.75 3.591Zm-1.539 0c0-1.137-.19-2.097-.57-2.879-.376-.782-.887-1.374-1.533-1.776a3.974 3.974 0 0 0-2.154-.603c-.795 0-1.516.201-2.161.603-.641.402-1.152.994-1.533 1.776-.376.782-.564 1.742-.564 2.88 0 1.136.188 2.096.564 2.878.38.783.892 1.375 1.533 1.776a4.006 4.006 0 0 0 2.16.603c.796 0 1.514-.2 2.155-.602.646-.402 1.157-.994 1.533-1.777.38-.782.57-1.742.57-2.879ZM74.38 50.631v13.132h-1.538l-7.156-10.31h-.128v10.31h-1.59V50.631h1.538l7.182 10.337h.128V50.63h1.565ZM78.25 50.631v13.132h-1.59V50.631h1.59ZM84.712 63.763V50.631h1.59v5.848h7.002v-5.848h1.59v13.132h-1.59V57.89h-7.002v5.873h-1.59ZM97.175 63.763V50.631h7.926v1.41h-6.336v4.438h5.925v1.41h-5.925v4.464h6.438v1.41h-8.028ZM107.603 63.763h-1.668l4.822-13.132h1.642l4.822 13.132h-1.667L111.63 52.71h-.103l-3.924 11.054Zm.615-5.13h6.72v1.411h-6.72v-1.41ZM118.364 63.763V50.631h1.59v11.722h6.104v1.41h-7.694ZM129.208 50.631v13.132h-1.59V50.631h1.59ZM141.907 50.631v13.132h-1.539l-7.156-10.31h-.128v10.31h-1.59V50.631h1.539l7.181 10.337h.128V50.63h1.565ZM153.163 54.735a4.658 4.658 0 0 0-.557-1.16 3.58 3.58 0 0 0-.815-.886 3.422 3.422 0 0 0-1.064-.557 4.247 4.247 0 0 0-1.308-.193c-.778 0-1.486.201-2.123.603-.637.402-1.143.994-1.519 1.776-.377.782-.565 1.742-.565 2.88 0 1.136.19 2.096.571 2.878.38.783.896 1.375 1.545 1.776.65.402 1.381.603 2.193.603.753 0 1.415-.16 1.988-.48a3.415 3.415 0 0 0 1.347-1.373c.325-.594.487-1.293.487-2.097l.487.103h-3.95v-1.41h5.002v1.41c0 1.081-.231 2.022-.693 2.821a4.78 4.78 0 0 1-1.898 1.86c-.803.436-1.727.654-2.77.654-1.162 0-2.184-.274-3.065-.82-.876-.548-1.56-1.326-2.052-2.335-.487-1.009-.731-2.206-.731-3.59 0-1.04.139-1.974.417-2.803.282-.834.68-1.543 1.193-2.129a5.216 5.216 0 0 1 1.821-1.346c.701-.312 1.473-.468 2.315-.468.692 0 1.338.104 1.936.314a5.207 5.207 0 0 1 2.796 2.231c.316.522.534 1.101.654 1.738h-1.642ZM116.987 46.022a4.5 4.5 0 0 1-1.54-.256 3.979 3.979 0 0 1-1.245-.692 2.35 2.35 0 0 1-.158-.177 1.098 1.098 0 0 1-.098-.218 5.923 5.923 0 0 1-.139-1.027 17.16 17.16 0 0 0-.059-1.046c0-.093.04-.158.119-.198a.486.486 0 0 1 .276-.079c.066 0 .132.02.198.06.065.026.105.078.118.157.263 1.014.652 1.738 1.165 2.173.527.434 1.073.651 1.639.651.461 0 .869-.098 1.225-.296.355-.197.632-.474.829-.83.211-.368.316-.796.316-1.283 0-.54-.092-.974-.276-1.303a2.528 2.528 0 0 0-.751-.89c-.329-.25-.73-.52-1.204-.809-.514-.329-1.021-.658-1.521-.987-.5-.343-.915-.731-1.244-1.166-.329-.447-.494-.987-.494-1.62 0-.67.151-1.276.454-1.816.303-.54.757-.968 1.363-1.284.619-.329 1.389-.493 2.311-.493.474 0 .882.052 1.224.157.356.093.639.185.849.277.106.04.191.105.257.197.079.093.132.191.158.297.079.276.165.592.257.948.092.355.138.69.138 1.007 0 .145-.099.217-.296.217a.87.87 0 0 1-.356-.079c-.105-.052-.171-.118-.197-.197-.277-.698-.599-1.231-.968-1.6-.368-.369-.836-.553-1.402-.553-.395 0-.764.072-1.106.217a1.924 1.924 0 0 0-.849.711c-.211.33-.316.77-.316 1.323 0 .395.125.758.375 1.087.263.316.606.619 1.027.908.421.29.876.586 1.363.889.461.276.908.58 1.343.908.447.33.809.724 1.086 1.185.29.448.434 1.001.434 1.66 0 .776-.177 1.46-.533 2.053a3.543 3.543 0 0 1-1.501 1.343c-.645.316-1.402.474-2.271.474ZM132.894 45.805c-.171 0-.309-.02-.415-.06-.105-.026-.158-.078-.158-.157 0-.092.053-.171.158-.237.119-.066.283-.132.494-.198.224-.066.5-.178.829-.335a7.052 7.052 0 0 0 1.047-.652c.356-.263.672-.566.948-.909l2.469-3.08c.145-.185.243-.363.296-.534.053-.184-.013-.408-.197-.671l-2.647-3.713c-.329-.461-.625-.81-.889-1.047-.263-.25-.506-.428-.73-.533a4.68 4.68 0 0 0-.672-.257 2.767 2.767 0 0 1-.494-.197c-.105-.066-.158-.145-.158-.238 0-.079.053-.131.158-.157.106-.04.244-.06.415-.06.329 0 .757.02 1.284.06a31.711 31.711 0 0 0 2.686.02c.369-.014.638-.02.81-.02.171 0 .309.02.414.059.106.026.158.079.158.158 0 .092-.052.164-.158.217-.105.053-.27.112-.493.178-.33.092-.58.178-.751.257-.171.079-.257.197-.257.355 0 .21.218.619.652 1.224l1.797 2.528c.145.211.25.31.316.297.079-.014.171-.093.277-.237l2.113-2.785c.158-.198.283-.382.375-.553a.989.989 0 0 0 .139-.454c0-.145-.073-.27-.218-.375-.131-.106-.355-.185-.671-.237a2.33 2.33 0 0 1-.435-.139c-.145-.079-.217-.164-.217-.257 0-.079.053-.131.158-.158.105-.039.244-.059.415-.059h.494c.171 0 .348.007.533.02h.573c.381 0 .783-.02 1.204-.06.435-.039.784-.058 1.047-.058.171 0 .309.02.415.059.105.026.158.079.158.158 0 .092-.053.164-.158.217-.106.053-.27.112-.494.178-.369.092-.783.368-1.244.83-.448.447-.889.927-1.323 1.44l-2.272 2.687c-.171.21-.276.362-.316.454-.039.08-.026.191.04.336l3.061 4.404c.303.434.639.797 1.007 1.086.369.29.738.487 1.106.593.224.052.389.112.494.178.105.052.158.125.158.217 0 .079-.053.131-.158.158-.105.04-.244.059-.415.059-.184 0-.441-.013-.77-.04a33.85 33.85 0 0 1-1.047-.059 30.937 30.937 0 0 0-2.152 0h-.889a1.77 1.77 0 0 1-.415-.04c-.105-.039-.158-.098-.158-.177 0-.092.072-.171.217-.237.158-.066.303-.119.435-.158.197-.066.388-.171.573-.316a.75.75 0 0 0 .296-.612c0-.105-.02-.21-.059-.316a.943.943 0 0 0-.178-.336l-2.054-2.982c-.092-.145-.171-.217-.237-.217-.066-.014-.132.026-.198.118l-2.666 3.437a2.074 2.074 0 0 0-.138.236.704.704 0 0 0-.04.218c0 .184.079.349.237.494.172.131.389.23.652.296.224.052.389.112.494.178.105.052.158.125.158.217 0 .079-.053.138-.158.178a1.77 1.77 0 0 1-.415.039c-.171 0-.421-.007-.75-.02-.316-.013-.652-.02-1.008-.02-.447 0-.895.02-1.343.06-.434.04-.816.059-1.145.059ZM153.335 45.983c-1.171 0-2.152-.204-2.942-.612-.79-.422-1.383-1.008-1.778-1.758-.395-.764-.592-1.646-.592-2.647v-6.063c0-.474-.099-.816-.296-1.027-.185-.224-.389-.362-.613-.414-.434-.119-.651-.264-.651-.435 0-.079.052-.132.158-.158.105-.04.243-.06.414-.06.303 0 .599.014.889.04.303.013.639.02 1.007.02.303 0 .586-.007.85-.02.276-.013.52-.02.73-.02.171 0 .31.02.415.06.105.026.158.079.158.158 0 .092-.053.164-.158.217-.105.053-.27.112-.494.178-.158.052-.335.204-.533.454-.197.25-.296.573-.296.968v5.55c0 1.053.178 1.922.533 2.606.356.672.843 1.172 1.461 1.501.632.316 1.35.474 2.153.474 1.356 0 2.35-.467 2.982-1.402.632-.948.948-2.192.948-3.733 0-.29-.006-.671-.019-1.145 0-.474-.007-.981-.02-1.52a356.62 356.62 0 0 0-.04-1.58c0-.343-.033-.666-.098-.968a2.428 2.428 0 0 0-.257-.77c-.119-.225-.27-.363-.454-.416a4.496 4.496 0 0 1-.435-.157c-.145-.066-.217-.145-.217-.238 0-.079.053-.131.158-.158a1.2 1.2 0 0 1 .415-.059c.302 0 .553.007.75.02h1.323c.185-.013.362-.026.534-.04a6.19 6.19 0 0 1 .474-.02c.171 0 .309.02.414.06.106.026.158.079.158.158 0 .171-.217.303-.651.395-.343.066-.586.23-.731.494-.145.263-.231.592-.257.987a102.757 102.757 0 0 0-.138 3.1c-.013.936-.033 1.857-.059 2.766-.027 1.014-.27 1.916-.731 2.706a5.024 5.024 0 0 1-1.857 1.856c-.763.434-1.632.652-2.607.652ZM160.708 45.805a.928.928 0 0 1-.415-.079c-.105-.04-.158-.099-.158-.178 0-.092.053-.17.158-.237a1.95 1.95 0 0 1 .494-.217c.342-.105.658-.263.948-.474.289-.21.539-.56.75-1.047.369-.842.705-1.632 1.007-2.37.316-.737.613-1.461.889-2.172.277-.711.56-1.448.849-2.212.303-.777.619-1.62.948-2.528.066-.184.125-.369.178-.553.053-.184.086-.382.099-.593l.355-.118c.119-.04.237-.099.356-.178a.58.58 0 0 0 .237-.355c.052-.158.099-.264.138-.316.013-.013.026-.02.04-.02.026 0 .046.013.059.04a.708.708 0 0 1 .059.197l.079.237c.316 1 .645 2.021.987 3.061.343 1.04.672 2.048.988 3.022.329.961.625 1.83.889 2.607.276.764.493 1.382.651 1.856.185.527.382.922.593 1.185.211.264.428.448.652.553.237.106.487.185.75.237.224.04.389.106.494.198.105.079.158.164.158.257 0 .079-.053.131-.158.158a1.77 1.77 0 0 1-.415.039c-.184 0-.434-.013-.75-.04a31.64 31.64 0 0 1-1.008-.059c-.355-.013-.684-.02-.987-.02h-.77c-.264 0-.507.007-.731.02h-.573c-.171 0-.309-.02-.414-.059-.106-.04-.158-.099-.158-.178 0-.092.065-.17.197-.237.132-.066.283-.112.454-.138.435-.066.744-.178.928-.336.185-.158.277-.342.277-.553 0-.197-.046-.48-.138-.849a17.444 17.444 0 0 0-.297-1.205c-.118-.434-.23-.816-.335-1.145-.027-.105-.079-.165-.158-.178-.066-.026-.191-.04-.376-.04h-3.732c-.053 0-.112.027-.178.08-.053.04-.105.131-.158.276a39.35 39.35 0 0 1-.197.632 22.71 22.71 0 0 0-.277.889c-.092.316-.171.599-.237.849-.066.25-.099.408-.099.474 0 .29.112.533.336.73.224.185.494.317.81.396.434.118.652.25.652.395 0 .079-.053.138-.158.178-.106.026-.244.039-.415.039-.171 0-.422-.007-.751-.02-.329-.013-.678-.02-1.046-.02-.435 0-.856.02-1.264.06-.409.04-.777.059-1.106.059Zm4.621-5.668h3.061c.185 0 .277-.033.277-.099a.178.178 0 0 0-.02-.079.378.378 0 0 0-.02-.118l-1.54-4.82c-.079-.236-.138-.355-.178-.355-.026 0-.079.112-.158.336l-1.797 4.839a.624.624 0 0 0-.04.158c0 .065.033.105.099.118.079.013.184.02.316.02ZM174.54 45.805a.934.934 0 0 1-.415-.079c-.092-.04-.138-.092-.138-.158 0-.118.059-.197.178-.237.131-.053.217-.086.256-.099.514-.105.909-.257 1.185-.454.277-.21.415-.533.415-.968v-9.163c0-.316-.033-.547-.099-.692a.595.595 0 0 0-.355-.335c-.171-.08-.421-.145-.751-.198-.434-.079-.651-.21-.651-.395 0-.079.052-.132.158-.158.105-.04.243-.06.414-.06.356 0 .639.007.85.02l.632.04h1.58l.73-.04c.251-.013.553-.02.909-.02.171 0 .309.02.415.06.105.026.158.079.158.158 0 .092-.053.171-.158.237-.106.066-.27.118-.494.158a7.263 7.263 0 0 0-1.244.336c-.343.118-.514.368-.514.75v9.302c0 .408.092.711.277.909.184.197.599.296 1.244.296h2.449c.355 0 .665-.053.928-.158.277-.118.481-.237.612-.355.264-.224.455-.422.573-.593.132-.184.283-.454.454-.81.027-.079.079-.197.158-.355.092-.158.185-.237.277-.237.079 0 .138.04.178.118a.532.532 0 0 1 .059.237.156.156 0 0 1-.02.06v.04c-.092.341-.178.65-.257.927-.066.277-.125.54-.177.79a12.3 12.3 0 0 0-.099.79.636.636 0 0 1-.079.237c-.027.066-.092.099-.198.099-.658 0-1.29-.007-1.896-.02-.605-.013-1.191-.026-1.757-.04-.553 0-1.087-.006-1.6-.019a59.248 59.248 0 0 0-1.521-.02c-.329 0-.704.007-1.126.02-.408.013-.77.026-1.086.04l-.454.039ZM185.54 45.805c-.171 0-.309-.02-.415-.06-.105-.026-.158-.078-.158-.157 0-.158.218-.277.652-.356.501-.092.882-.243 1.146-.454.263-.21.395-.546.395-1.007v-8.927c0-.46-.099-.79-.297-.988-.184-.197-.526-.342-1.027-.434-.434-.079-.651-.21-.651-.395 0-.079.052-.132.158-.158.105-.04.243-.06.414-.06.356 0 .646.007.869.02l.672.04H188.779l.593-.04c.21-.013.493-.02.849-.02.171 0 .309.02.415.06.105.026.158.079.158.158 0 .092-.053.171-.158.237-.106.066-.27.118-.494.158-.487.092-.843.237-1.067.434-.223.198-.335.527-.335.988v8.927c0 .46.138.796.414 1.007.277.21.659.362 1.146.454.224.04.388.086.494.139.105.052.158.125.158.217 0 .079-.053.131-.158.158-.106.04-.244.059-.415.059-.356 0-.652-.013-.889-.04l-.652-.039a16.73 16.73 0 0 0-1.639 0l-.75.04c-.25.026-.553.039-.909.039ZM195.135 45.805c-.171 0-.309-.02-.414-.06-.106-.026-.158-.078-.158-.157 0-.092.052-.165.158-.218.105-.052.27-.098.493-.138.501-.092.883-.25 1.146-.474.263-.237.395-.592.395-1.066v-7.663c0-.606-.013-1.067-.04-1.383-.026-.329-.072-.56-.138-.69-.052-.132-.131-.205-.237-.218a2.822 2.822 0 0 0-.592-.06c-.198-.012-.468-.019-.81-.019h-.928c-.316 0-.632.066-.948.197-.303.119-.527.31-.672.573a5.345 5.345 0 0 1-.197.296 2.279 2.279 0 0 1-.296.316.485.485 0 0 1-.316.139c-.053 0-.093-.027-.119-.08a.742.742 0 0 1-.02-.177c0-.132.033-.263.099-.395.184-.382.316-.718.395-1.007a6.54 6.54 0 0 0 .217-1.067c.027-.224.073-.355.138-.395a.466.466 0 0 1 .198-.059c.053 0 .132.079.237.237.118.158.204.29.257.395.079.132.256.23.533.296.29.066.573.099.849.099h6.952c.461 0 .836-.026 1.126-.079a3.39 3.39 0 0 0 .75-.217c.158-.08.283-.165.376-.257a.577.577 0 0 1 .395-.138c.039 0 .072.052.098.158.027.092.04.19.04.296 0 .066-.013.158-.04.276a3.47 3.47 0 0 1-.039.277 3.02 3.02 0 0 1-.119.513 3.668 3.668 0 0 0-.059.277c-.013.079-.02.204-.02.375v.237c0 .119-.026.257-.079.415-.052.145-.131.217-.237.217-.092 0-.164-.072-.217-.217a4.551 4.551 0 0 1-.158-.592.948.948 0 0 0-.474-.652c-.263-.171-.711-.257-1.343-.257h-1.995c-.289 0-.507.04-.651.119-.145.078-.237.276-.277.592-.039.316-.059.836-.059 1.56v7.762c0 .474.138.83.415 1.066.276.224.658.382 1.145.474.224.04.389.086.494.139.105.052.158.125.158.217 0 .079-.053.131-.158.158-.105.04-.244.059-.415.059-.355 0-.652-.013-.889-.04l-.651-.039a16.757 16.757 0 0 0-1.64 0l-.75.04c-.25.026-.553.039-.909.039Z"/>
  <path fill="#0E57FF" d="M207.339 45.805c-.171 0-.309-.02-.415-.06-.105-.026-.158-.078-.158-.157 0-.092.053-.165.158-.218.106-.052.27-.098.494-.138.501-.092.882-.27 1.146-.533.263-.276.395-.652.395-1.126V40.65c0-.263-.073-.546-.218-.849a6.692 6.692 0 0 0-.276-.612l-2.311-3.792a9.204 9.204 0 0 0-.434-.652 6.535 6.535 0 0 0-.652-.81c-.224-.25-.448-.408-.672-.474a2.722 2.722 0 0 1-.493-.197c-.106-.066-.158-.145-.158-.237 0-.079.052-.132.158-.158.105-.04.243-.06.414-.06.303 0 .652.014 1.047.04.395.013.817.02 1.264.02.303 0 .586-.007.849-.02.277-.013.521-.02.731-.02.171 0 .31.02.415.06.105.026.158.079.158.158 0 .092-.053.17-.158.237-.105.052-.27.105-.494.158a2.17 2.17 0 0 0-.454.178.334.334 0 0 0-.178.316c0 .17.086.408.257.71l1.817 3.358c.263.5.448.75.553.75.079 0 .164-.052.257-.158.092-.118.223-.316.395-.592.302-.46.572-.902.809-1.323.237-.422.52-.929.85-1.521a3.2 3.2 0 0 0 .276-.573c.053-.171.079-.316.079-.434 0-.25-.092-.422-.276-.514a1.599 1.599 0 0 0-.534-.178 2.346 2.346 0 0 1-.434-.138c-.145-.079-.217-.164-.217-.257 0-.079.052-.131.158-.158.105-.039.243-.059.414-.059.303 0 .553.007.751.02h.731c.408 0 .796-.007 1.165-.02.368-.026.665-.04.889-.04.171 0 .309.02.414.06.106.026.158.079.158.158 0 .092-.105.178-.316.257-.21.079-.454.158-.73.237a1.659 1.659 0 0 0-.869.572c-.224.277-.514.685-.869 1.225-.264.408-.488.75-.672 1.027-.171.276-.336.533-.494.77-.144.237-.296.487-.454.75-.158.25-.349.56-.573.929-.171.276-.289.5-.355.671a1.817 1.817 0 0 0-.119.494 7.35 7.35 0 0 0-.019.612v3.002c0 .448.138.817.414 1.106.277.277.659.461 1.146.553.224.04.388.086.494.139.105.052.158.125.158.217 0 .079-.053.131-.158.158-.106.04-.244.059-.415.059-.356 0-.652-.013-.889-.04l-.652-.039a16.73 16.73 0 0 0-1.639 0l-.75.04c-.25.026-.553.039-.909.039ZM132.533 45.805c.171 0 .309-.02.414-.059.106-.026.158-.079.158-.158 0-.158-.217-.276-.651-.355-.501-.093-.869-.244-1.106-.455-.237-.21-.356-.553-.356-1.027v-8.887c0-.474.099-.81.297-1.007.184-.198.526-.343 1.026-.435.224-.04.389-.092.494-.158.106-.066.158-.145.158-.237 0-.079-.052-.131-.158-.158a1.201 1.201 0 0 0-.415-.059c-.5 0-.921.007-1.263.02-.356.013-.698.026-1.027.04h-2.568a49.85 49.85 0 0 0-1.343-.02c-.448-.014-.823-.02-1.126-.02-.316-.013-.5-.02-.553-.02a.693.693 0 0 0-.217.04c-.079.026-.125.072-.138.138l-.198 1.106a5.26 5.26 0 0 0-.098.928c0 .119.033.197.098.237a.29.29 0 0 0 .178.06c.066 0 .112-.014.138-.04a.816.816 0 0 0 .079-.158c.066-.224.132-.435.198-.632.066-.21.145-.362.237-.454.184-.211.388-.35.612-.415.224-.08.461-.119.711-.119h2.587c.106 0 .25.06.435.178.184.118.276.27.276.454v4.187a.535.535 0 0 1-.098.316.36.36 0 0 1-.257.119h-1.955c-.382 0-.646-.066-.79-.198-.145-.145-.264-.401-.356-.77-.079-.29-.197-.434-.355-.434-.053 0-.106.026-.158.078-.066.053-.099.132-.099.238 0 .052.006.17.02.355 0 .184.006.375.019.573.014.197.02.349.02.454v.533c-.013.21-.02.415-.02.612a7.616 7.616 0 0 0-.019.376c0 .092.013.17.039.237.013.066.059.098.138.098.198 0 .349-.21.455-.632.079-.302.184-.526.316-.671.131-.145.329-.217.592-.217h1.837c.224 0 .395.033.513.098.106.053.158.191.158.415v3.792c0 .5-.105.85-.316 1.047-.21.184-.54.276-.987.276h-1.462c-.421 0-.77-.02-1.046-.059a2.12 2.12 0 0 1-.751-.276 2.085 2.085 0 0 1-.553-.573 8.524 8.524 0 0 1-.573-.948.731.731 0 0 0-.138-.198.189.189 0 0 0-.178-.059.256.256 0 0 0-.158.099c-.039.04-.059.099-.059.178 0 .118.033.329.099.632.066.29.151.592.257.908.092.316.177.566.256.75.04.093.079.172.119.238.026.065.079.098.158.098.632 0 1.218-.006 1.758-.02a640.97 640.97 0 0 0 2.982-.078c.461-.014.941-.02 1.442-.02.289 0 .539.006.75.02.211.026.428.046.652.059a7.7 7.7 0 0 0 .869.04ZM0 15.646h1.821l3.642 6.13h.154l3.642-6.13h1.821l-4.745 7.72v5.412h-1.59v-5.412L0 15.646ZM12.234 28.778V15.646h7.926v1.41h-6.336v4.438h5.925v1.41h-5.925v4.463h6.438v1.411h-8.028ZM32.537 15.646v13.132h-1.54l-7.155-10.31h-.129v10.31h-1.59V15.646h1.54l7.18 10.337h.129V15.646h1.565ZM27.342 62.865v-8.464h1.436v8.464h-1.436Zm-3.514-3.513v-1.437h8.464v1.437h-8.464ZM157.202 81.256V80.1l4.335-4.745c.509-.555.927-1.038 1.257-1.449.329-.414.572-.803.731-1.167.162-.367.243-.752.243-1.154 0-.462-.111-.861-.333-1.2a2.16 2.16 0 0 0-.898-.781 2.909 2.909 0 0 0-1.282-.276c-.505 0-.945.105-1.321.314a2.162 2.162 0 0 0-.866.866c-.201.372-.301.808-.301 1.308h-1.514c0-.77.178-1.445.533-2.026a3.694 3.694 0 0 1 1.449-1.36c.615-.325 1.306-.487 2.071-.487.769 0 1.451.162 2.045.487a3.654 3.654 0 0 1 1.398 1.315c.338.551.507 1.165.507 1.84 0 .483-.088.955-.263 1.417-.171.457-.47.968-.898 1.533-.423.56-1.011 1.244-1.763 2.052l-2.95 3.154v.103h6.105v1.41h-8.285ZM171.516 81.435c-.967 0-1.789-.263-2.469-.788-.68-.53-1.199-1.298-1.558-2.303-.359-1.008-.539-2.227-.539-3.654 0-1.42.18-2.632.539-3.636.363-1.01.885-1.779 1.564-2.309.684-.534 1.505-.801 2.463-.801.957 0 1.776.267 2.455.801.684.53 1.206 1.3 1.565 2.309.363 1.004.545 2.216.545 3.635 0 1.428-.18 2.647-.539 3.656-.359 1.004-.878 1.771-1.558 2.302-.679.525-1.502.788-2.468.788Zm0-1.41c.957 0 1.701-.462 2.231-1.386.53-.923.795-2.24.795-3.95 0-1.137-.122-2.105-.365-2.904-.24-.8-.586-1.409-1.039-1.828a2.294 2.294 0 0 0-1.622-.628c-.949 0-1.691.468-2.226 1.404-.534.932-.801 2.25-.801 3.956 0 1.138.12 2.104.359 2.899.239.795.584 1.4 1.032 1.815a2.34 2.34 0 0 0 1.636.621ZM177.615 81.256V80.1l4.334-4.745c.509-.555.928-1.038 1.257-1.449.329-.414.573-.803.731-1.167.163-.367.244-.752.244-1.154 0-.462-.111-.861-.333-1.2a2.173 2.173 0 0 0-.898-.781 2.913 2.913 0 0 0-1.283-.276c-.504 0-.944.105-1.321.314-.371.205-.66.494-.865.866-.201.372-.302.808-.302 1.308h-1.513c0-.77.178-1.445.532-2.026a3.697 3.697 0 0 1 1.45-1.36c.615-.325 1.305-.487 2.071-.487.769 0 1.451.162 2.045.487.594.325 1.06.763 1.398 1.315.338.551.507 1.165.507 1.84 0 .483-.088.955-.263 1.417-.171.457-.471.968-.898 1.533-.423.56-1.011 1.244-1.763 2.052l-2.95 3.154v.103h6.104v1.41h-8.284ZM192.082 81.435c-.846 0-1.601-.145-2.263-.436-.659-.29-1.182-.694-1.571-1.212a3.255 3.255 0 0 1-.629-1.814h1.616c.034.423.18.788.436 1.096.257.304.592.539 1.007.705.414.167.874.25 1.378.25.565 0 1.065-.098 1.501-.294.436-.197.778-.47 1.026-.821.248-.35.372-.757.372-1.219 0-.483-.12-.908-.359-1.276-.24-.371-.59-.662-1.052-.872-.462-.21-1.026-.314-1.693-.314H190.8v-1.41h1.051c.522 0 .979-.095 1.372-.283a2.2 2.2 0 0 0 .93-.795c.227-.342.34-.744.34-1.205 0-.445-.098-.832-.295-1.16a2.018 2.018 0 0 0-.833-.77c-.355-.184-.774-.276-1.257-.276-.453 0-.881.083-1.283.25-.397.162-.722.4-.974.712-.253.308-.389.68-.411 1.115h-1.539c.026-.688.233-1.29.622-1.808a3.918 3.918 0 0 1 1.526-1.218 4.935 4.935 0 0 1 2.084-.436c.813 0 1.509.164 2.091.494a3.477 3.477 0 0 1 1.34 1.288c.312.535.468 1.112.468 1.732 0 .74-.194 1.37-.583 1.891-.385.522-.909.883-1.571 1.084v.103c.829.136 1.476.49 1.942 1.058.466.564.699 1.263.699 2.096 0 .714-.194 1.356-.583 1.924-.385.564-.911 1.009-1.578 1.334-.666.325-1.425.487-2.276.487ZM42.987 11.286v.027c-.889 0-1.71.082-2.34.246h-.013a1.1 1.1 0 0 0-.78.764v.014c-.164.628-.246 1.447-.246 2.334h-.027c0-.887-.082-1.706-.246-2.334v-.014a1.095 1.095 0 0 0-.78-.778h-.014c-.615-.164-1.436-.246-2.325-.246v-.027c.889 0 1.71-.082 2.34-.246h.013c.383-.095.67-.396.766-.778v-.014c.164-.628.246-1.447.246-2.334h.027c0 .887.082 1.706.246 2.334v.014a1.1 1.1 0 0 0 .766.778h.014c.63.164 1.45.246 2.34.246l.013.014Z"/>
  <path fill="#0E57FF" fill-rule="evenodd" d="M39.017 7.335h1.156V7.9c0 .859.08 1.626.228 2.192l.018.07v.002c.051.133.163.246.314.305l.044.011c.567.148 1.336.227 2.197.227h.231l.347.342v.828h-.564c-.861 0-1.63.08-2.197.227l-.07.019h-.003a.539.539 0 0 0-.305.313l-.012.043c-.148.566-.228 1.333-.228 2.192v.564h-1.156v-.564c0-.86-.08-1.626-.227-2.192l-.019-.07v-.003a.53.53 0 0 0-.314-.3l-.06-.016c-.55-.147-1.318-.227-2.18-.227h-.565v-1.155h.565c.86 0 1.63-.08 2.197-.228l.07-.018h.002a.489.489 0 0 0 .285-.296v-.004l.019-.07c.147-.566.227-1.333.227-2.192v-.565Zm.581 3.647c-.087.117-.19.221-.307.31.116.089.22.192.31.31.09-.117.194-.221.312-.31a1.671 1.671 0 0 1-.314-.31Z" clip-rule="evenodd"/>
  <path fill="#0E57FF" d="M49.194 3.95v.027c-.889 0-1.71.082-2.34.246h-.013c-.383.096-.67.396-.78.765V5c-.164.628-.246 1.447-.246 2.335h-.027c0-.888-.082-1.707-.246-2.335v-.013a1.095 1.095 0 0 0-.78-.779h-.014c-.615-.163-1.436-.245-2.325-.245v-.028c.889 0 1.71-.081 2.34-.245h.013c.383-.096.67-.396.766-.778v-.014c.164-.628.246-1.447.246-2.335h.027c0 .888.082 1.707.246 2.335v.014c.096.382.397.669.766.778h.014c.63.164 1.45.245 2.34.245l.013.014Z"/>
  <path fill="#0E57FF" fill-rule="evenodd" d="M45.224 0h1.156v.564c0 .86.08 1.627.228 2.192l.019.07v.003c.05.133.162.246.313.304l.044.012c.567.147 1.336.227 2.197.227h.231l.347.342v.828h-.564c-.861 0-1.63.08-2.197.227l-.07.018h-.003a.539.539 0 0 0-.305.313l-.012.044c-.147.565-.228 1.332-.228 2.192V7.9h-1.155v-.564c0-.86-.08-1.627-.228-2.192l-.019-.07V5.07a.53.53 0 0 0-.314-.3l-.06-.016c-.55-.147-1.318-.227-2.18-.227h-.565V3.372h.565c.86 0 1.63-.08 2.197-.227l.07-.019h.002a.49.49 0 0 0 .285-.295v-.005l.019-.07c.147-.565.227-1.332.227-2.192V0Zm.582 3.647c-.088.116-.191.22-.308.31.116.088.22.192.31.309.09-.116.194-.22.312-.31a1.666 1.666 0 0 1-.314-.31Z" clip-rule="evenodd"/>
  <path fill="#0E57FF" d="M52.58 14.671v.028c-.89 0-1.71.082-2.34.245h-.013c-.383.096-.67.396-.78.765v.013c-.164.629-.246 1.447-.246 2.335h-.027c0-.887-.082-1.706-.246-2.335v-.013a1.095 1.095 0 0 0-.78-.778h-.014c-.615-.164-1.436-.246-2.325-.246v-.027c.889 0 1.71-.082 2.339-.246h.013c.383-.096.67-.396.767-.778v-.014c.164-.628.246-1.447.246-2.334h.027c0 .887.082 1.706.246 2.334v.014a1.1 1.1 0 0 0 .766.778h.014c.63.164 1.45.246 2.34.246l.013.013Z"/>
  <path fill="#0E57FF" fill-rule="evenodd" d="M48.61 10.721h1.155v.565c0 .859.08 1.626.228 2.191l.018.07v.003a.539.539 0 0 0 .314.304l.044.012c.567.147 1.336.227 2.197.227h.231l.347.342v.828h-.564c-.861 0-1.63.08-2.197.227l-.07.018h-.003a.538.538 0 0 0-.306.313l-.011.044c-.148.565-.228 1.333-.228 2.192v.564H48.61v-.564c0-.86-.08-1.627-.227-2.192l-.019-.07v-.003a.53.53 0 0 0-.314-.3l-.06-.016c-.551-.147-1.319-.227-2.18-.227h-.565v-1.156h.564c.861 0 1.63-.08 2.197-.227l.07-.018h.003a.489.489 0 0 0 .285-.296v-.005l.018-.07c.148-.565.228-1.332.228-2.191v-.565Zm.58 3.647c-.087.116-.19.22-.307.31.116.088.22.192.31.309.09-.116.194-.22.312-.31a1.665 1.665 0 0 1-.315-.31ZM204.934 68.842a.564.564 0 0 0-.564.564v4.164a64.109 64.109 0 0 0-2.194-2.297 18.265 18.265 0 0 0-1.216-1.119 3.557 3.557 0 0 0-.447-.32.87.87 0 0 0-.182-.083.294.294 0 0 0-.195.001c-.136.056-.328.16-.397.392-.066.225 0 .521.239.924.471.79 1.685 2.105 4.392 4.353v2.686a71.406 71.406 0 0 0-2.187-2.617 19.423 19.423 0 0 0-1.216-1.277 3.629 3.629 0 0 0-.447-.367.86.86 0 0 0-.183-.095.277.277 0 0 0-.207.002c-.141.066-.327.185-.392.436-.063.242-.003.57.236 1.028.47.9 1.683 2.405 4.396 4.978v1.06a.564.564 0 0 0 1.129 0v-1.6c2.32-2.247 3.396-3.603 3.831-4.438.24-.459.299-.786.237-1.028-.066-.251-.251-.37-.392-.436a.277.277 0 0 0-.207-.002.816.816 0 0 0-.183.095c-.127.082-.279.21-.448.367a19.71 19.71 0 0 0-1.215 1.277 63.176 63.176 0 0 0-1.623 1.919v-2.46c2.314-1.963 3.39-3.149 3.827-3.881.24-.403.306-.7.239-.924-.068-.232-.261-.336-.396-.392a.297.297 0 0 0-.196 0 .864.864 0 0 0-.181.081 3.558 3.558 0 0 0-.448.321c-.339.276-.765.674-1.216 1.119-.536.529-1.111 1.13-1.629 1.685v-3.552a.565.565 0 0 0-.565-.564Z" clip-rule="evenodd"/>
</svg>