<svg xmlns="http://www.w3.org/2000/svg" fill="none" viewBox="0 0 335 148">
  <path fill="#0E57FF" d="M164.451 0h1.453l1.399 2.642h.06L168.762 0h1.453l-2.238 3.966v2.169h-1.288V3.966L164.451 0ZM236.141 74.041v-6.135h4.133v1.07h-2.836v1.462h2.624v1.069h-2.624v1.465h2.848v1.069h-4.145ZM170.741 137.074v6.135h-1.121l-2.669-3.861h-.045v3.861h-1.297v-6.135h1.139l2.648 3.858h.054v-3.858h1.291Z"/>
  <path stroke="#0E57FF" d="m148.791.816 37.715 140.756M131.221 8.094l72.86 126.198M116.129 19.672l103.04 103.04M104.551 34.766l126.198 72.86M97.272 52.336 238.026 90.05M167.543 14.57l.211 113.245M186.508.816l-37.715 140.756M204.08 8.094l-72.86 126.198M219.17 19.672l-103.04 103.04M230.748 34.766l-126.198 72.86M238.027 52.336 97.272 90.05M227.857 71.09H95.001"/>
  <g filter="url(#a)">
    <path fill="#0E57FF" d="M61 116v.097c-3.02 0-5.808.29-7.946.871h-.046c-1.301.339-2.277 1.403-2.649 2.709v.049c-.557 2.226-.836 5.129-.836 8.274h-.093c0-3.145-.278-6.048-.836-8.274v-.049c-.325-1.355-1.347-2.371-2.648-2.758h-.047c-2.09-.58-4.879-.871-7.899-.871v-.096c3.02 0 5.808-.291 7.946-.871h.046c1.301-.339 2.277-1.403 2.602-2.758v-.049c.557-2.226.836-5.129.836-8.274h.093c0 3.145.279 6.048.836 8.274v.049a3.827 3.827 0 0 0 2.602 2.758h.046c2.138.58 4.925.871 7.946.871L61 116Z"/>
    <path stroke="#0E57FF" d="M61 116v.097c-3.02 0-5.808.29-7.946.871h-.046c-1.301.339-2.277 1.403-2.649 2.709v.049c-.557 2.226-.836 5.129-.836 8.274h-.093c0-3.145-.278-6.048-.836-8.274v-.049c-.325-1.355-1.347-2.371-2.648-2.758h-.047c-2.09-.58-4.879-.871-7.899-.871v-.096c3.02 0 5.808-.291 7.946-.871h.046c1.301-.339 2.277-1.403 2.602-2.758v-.049c.557-2.226.836-5.129.836-8.274h.093c0 3.145.279 6.048.836 8.274v.049a3.827 3.827 0 0 0 2.602 2.758h.046c2.138.58 4.925.871 7.946.871L61 116Z"/>
  </g>
  <path fill="#0E57FF" d="M32.5 134c.94 0 1.5-.632 1.5-1.5s-.56-1.5-1.5-1.5-1.5.632-1.5 1.5.56 1.5 1.5 1.5ZM279.5 53c.939 0 1.5-.632 1.5-1.5s-.561-1.5-1.5-1.5-1.5.632-1.5 1.5.561 1.5 1.5 1.5ZM1.5 33c.94 0 1.5-.632 1.5-1.5S2.44 30 1.5 30 0 30.632 0 31.5.56 33 1.5 33ZM333.5 108c.939 0 1.5-.632 1.5-1.5s-.561-1.5-1.5-1.5-1.5.632-1.5 1.5.561 1.5 1.5 1.5Z"/>
  <defs>
    <filter id="a" width="62" height="63" x="18.5" y="84.5" color-interpolation-filters="sRGB" filterUnits="userSpaceOnUse">
      <feFlood flood-opacity="0" result="BackgroundImageFix"/>
      <feColorMatrix in="SourceAlpha" result="hardAlpha" values="0 0 0 0 0 0 0 0 0 0 0 0 0 0 0 0 0 0 127 0"/>
      <feOffset/>
      <feGaussianBlur stdDeviation="9.5"/>
      <feComposite in2="hardAlpha" operator="out"/>
      <feColorMatrix values="0 0 0 0 0 0 0 0 0 0.231373 0 0 0 0 0.764706 0 0 0 0.5 0"/>
      <feBlend in2="BackgroundImageFix" result="effect1_dropShadow_155_2828"/>
      <feBlend in="SourceGraphic" in2="effect1_dropShadow_155_2828" result="shape"/>
    </filter>
  </defs>
</svg>