<svg xmlns="http://www.w3.org/2000/svg" fill="none" viewBox="0 0 56 31">
  <path fill="#fff" d="M17.539.086H15.83v14.921a1.861 1.861 0 0 1-1.1 1.699l-3.934 1.756-1.113.498a6.343 6.343 0 0 1-1.877.297 6.094 6.094 0 0 1-6.094-6.093V.086L0 .098v14.05c0 3.366 2.657 6.166 6.023 6.166.129 0 .255-.012.382-.02a6.059 6.059 0 0 0 1.719-.36l.859-.388 6.848-2.985v2.075c0 4.58-.928 11.067-1.598 11.367h2.371c.57-.259.936-6.648.936-11.12v-4.11L17.54.086ZM49.888 0c-.129 0-.255.011-.382.02a6.06 6.06 0 0 0-1.719.36l-.859.388-6.816 2.97c.11-2.89.505-3.404 1.07-3.655h-1.875c-.57.259-.936.827-.936 5.3v14.844h1.71V5.292a1.858 1.858 0 0 1 1.1-1.685l3.932-1.756 1.118-.496a6.332 6.332 0 0 1 1.877-.297 6.094 6.094 0 0 1 6.094 6.093v13.076l1.71-.012V6.165C55.911 2.8 53.253 0 49.887 0ZM37.005 7.836V7.57l-.788.353c.092-.167.14-.356.142-.547v-3.85a1.487 1.487 0 0 0-.534-1.15A10.087 10.087 0 0 0 33.598.99a10.468 10.468 0 0 0-4.173-.903c-5.59 0-10.12 4.53-10.12 10.12 0 4.885 3.46 8.96 8.064 9.91l.048.01a9.531 9.531 0 0 0 .913.14l.094.01c.14.014.281.025.423.034.024 0 .048.003.073.004.166.009.332.013.499.013.085 0 .169-.004.253-.006.084-.003.168.006.253.006h.006c-.086 0-.17-.004-.256-.006.08-.002.162-.003.243-.007.024 0 .049-.003.073-.004a9.52 9.52 0 0 0 .423-.033l.094-.01a13.041 13.041 0 0 0 .488-.065c.143-.022.285-.047.425-.076l.048-.01a10.088 10.088 0 0 0 4.892-2.554v-.185a9.031 9.031 0 0 1-13.313-2.408 1.343 1.343 0 0 1 .763-1.203l3.58-1.61 3.04-1.367 3.537-1.59v.005l3.037-1.368Zm-6.577 2.687-3.04 1.364-4.834 2.17h-.003l-.115-.257A9.122 9.122 0 0 1 30.82 1.083a8.746 8.746 0 0 1 4.3 1.116v5.348a1.345 1.345 0 0 1-.767 1.214l-.39.175v.002l-3.536 1.585Z"/>
</svg>